<?xml version="1.0" encoding="UTF-8" standalone="no"?>
<?xml-stylesheet href="zcash-dag.css" type="text/css"?>
<!DOCTYPE svg PUBLIC "-//W3C//DTD SVG 1.1//EN"
 "http://www.w3.org/Graphics/SVG/1.1/DTD/svg11.dtd">
<!-- Generated by graphviz version 2.40.1 (20161225.0304)
 -->
<!-- Pages: 1 -->
<svg width="1681pt" height="1256pt"
 viewBox="0.00 0.00 1681.00 1255.50" xmlns="http://www.w3.org/2000/svg" xmlns:xlink="http://www.w3.org/1999/xlink">
<g id="graph0" class="graph" transform="scale(1 1) rotate(0) translate(4 1251.5)">
<polygon fill="#ffffff" stroke="transparent" points="-4,4 -4,-1251.5 1677,-1251.5 1677,4 -4,4"/>
<!-- zcash/pasta_curves#35 -->
<g id="node1" class="node open">
<title>zcash/pasta_curves#35</title>
<g id="a_node1"><a xlink:href="https://github.com/zcash/pasta_curves/issues/35" xlink:title="zcash/pasta_curves#35&#10;Enable `ec&#45;gpu` to&#10;generate MSM and FFT code&#10;for `pasta_curves`" target="_blank">
<polygon fill="#c2e0c6" stroke="#000000" points="477,-84 251,-84 251,-16 477,-16 477,-84"/>
<text text-anchor="middle" x="364" y="-68.8" font-family="Times,serif" font-size="14.00" fill="#000000">zcash/pasta_curves#35</text>
<text text-anchor="middle" x="364" y="-53.8" font-family="Times,serif" font-size="14.00" fill="#000000">Enable `ec&#45;gpu` to</text>
<text text-anchor="middle" x="364" y="-38.8" font-family="Times,serif" font-size="14.00" fill="#000000">generate MSM and FFT code</text>
<text text-anchor="middle" x="364" y="-23.8" font-family="Times,serif" font-size="14.00" fill="#000000">for `pasta_curves`</text>
</a>
</g>
</g>
<!-- zcash/halo2#379 -->
<g id="node2" class="node open">
<title>zcash/halo2#379</title>
<g id="a_node2"><a xlink:href="https://github.com/zcash/halo2/issues/379" xlink:title="zcash/halo2#379&#10;Add `ec&#45;gpu` support" target="_blank">
<polygon fill="#c2e0c6" stroke="#000000" points="698,-38 525,-38 525,0 698,0 698,-38"/>
<text text-anchor="middle" x="611.5" y="-22.8" font-family="Times,serif" font-size="14.00" fill="#000000">zcash/halo2#379</text>
<text text-anchor="middle" x="611.5" y="-7.8" font-family="Times,serif" font-size="14.00" fill="#000000">Add `ec&#45;gpu` support</text>
</a>
</g>
</g>
<!-- zcash/pasta_curves#35&#45;&gt;zcash/halo2#379 -->
<g id="edge1" class="edge">
<title>zcash/pasta_curves#35&#45;&gt;zcash/halo2#379</title>
<path fill="none" stroke="#000000" d="M477.25,-35.815C489.78,-34.246 502.45,-32.659 514.75,-31.118"/>
<polygon fill="#000000" stroke="#000000" points="515.4928,-34.5524 524.98,-29.836 514.6224,-27.6067 515.4928,-34.5524"/>
</g>
<!-- zcash/halo2#426 -->
<g id="node3" class="node open">
<title>zcash/halo2#426</title>
<g id="a_node3"><a xlink:href="https://github.com/zcash/halo2/issues/426" xlink:title="zcash/halo2#426&#10;Publish `halo2_proofs&#10;0.1.0`" target="_blank">
<polygon fill="#c2e0c6" stroke="#000000" points="698,-276.5 525,-276.5 525,-223.5 698,-223.5 698,-276.5"/>
<text text-anchor="middle" x="611.5" y="-261.3" font-family="Times,serif" font-size="14.00" fill="#000000">zcash/halo2#426</text>
<text text-anchor="middle" x="611.5" y="-246.3" font-family="Times,serif" font-size="14.00" fill="#000000">Publish `halo2_proofs</text>
<text text-anchor="middle" x="611.5" y="-231.3" font-family="Times,serif" font-size="14.00" fill="#000000">0.1.0`</text>
</a>
</g>
</g>
<!-- zcash/halo2#460 -->
<g id="node4" class="node open">
<title>zcash/halo2#460</title>
<g id="a_node4"><a xlink:href="https://github.com/zcash/halo2/issues/460" xlink:title="zcash/halo2#460&#10;Publish `halo2_gadgets&#10;v0.1.0`" target="_blank">
<polygon fill="#c2e0c6" stroke="#000000" points="941.5,-354.5 756.5,-354.5 756.5,-301.5 941.5,-301.5 941.5,-354.5"/>
<text text-anchor="middle" x="849" y="-339.3" font-family="Times,serif" font-size="14.00" fill="#000000">zcash/halo2#460</text>
<text text-anchor="middle" x="849" y="-324.3" font-family="Times,serif" font-size="14.00" fill="#000000">Publish `halo2_gadgets</text>
<text text-anchor="middle" x="849" y="-309.3" font-family="Times,serif" font-size="14.00" fill="#000000">v0.1.0`</text>
</a>
</g>
</g>
<!-- zcash/halo2#426&#45;&gt;zcash/halo2#460 -->
<g id="edge2" class="edge">
<title>zcash/halo2#426&#45;&gt;zcash/halo2#460</title>
<path fill="none" stroke="#000000" d="M692.24,-276.52C713.56,-283.52 736.7,-291.12 758.5,-298.28"/>
<polygon fill="#000000" stroke="#000000" points="757.4873,-301.6312 768.08,-301.42 759.6676,-294.9794 757.4873,-301.6312"/>
</g>
<!-- zcash/halo2#380 -->
<g id="node5" class="node open">
<title>zcash/halo2#380</title>
<g id="a_node5"><a xlink:href="https://github.com/zcash/halo2/pull/380" xlink:title="zcash/halo2#380&#10;[book] Fix errors and&#10;typos" target="_blank">
<polygon fill="#c2e0c6" stroke="#000000" points="933,-276.5 765,-276.5 765,-272.5 761,-272.5 761,-268.5 765,-268.5 765,-231.5 761,-231.5 761,-227.5 765,-227.5 765,-223.5 933,-223.5 933,-276.5"/>
<polyline fill="none" stroke="#000000" points="765,-272.5 769,-272.5 769,-268.5 765,-268.5 "/>
<polyline fill="none" stroke="#000000" points="765,-231.5 769,-231.5 769,-227.5 765,-227.5 "/>
<text text-anchor="middle" x="849" y="-261.3" font-family="Times,serif" font-size="14.00" fill="#000000">zcash/halo2#380</text>
<text text-anchor="middle" x="849" y="-246.3" font-family="Times,serif" font-size="14.00" fill="#000000">[book] Fix errors and</text>
<text text-anchor="middle" x="849" y="-231.3" font-family="Times,serif" font-size="14.00" fill="#000000">typos</text>
</a>
</g>
</g>
<!-- zcash/halo2#426&#45;&gt;zcash/halo2#380 -->
<g id="edge3" class="edge">
<title>zcash/halo2#426&#45;&gt;zcash/halo2#380</title>
<path fill="none" stroke="#000000" d="M698.25,-250C716.59,-250 736.02,-250 754.63,-250"/>
<polygon fill="#000000" stroke="#000000" points="754.86,-253.5001 764.86,-250 754.86,-246.5001 754.86,-253.5001"/>
</g>
<!-- zcash/pasta_curves#22 -->
<g id="node6" class="node open">
<title>zcash/pasta_curves#22</title>
<g id="a_node6"><a xlink:href="https://github.com/zcash/pasta_curves/issues/22" xlink:title="zcash/pasta_curves#22&#10;Add `ec&#45;gpu` support" target="_blank">
<polygon fill="#c2e0c6" stroke="#000000" stroke-width="2" points="200.5,-38 14.5,-38 14.5,0 200.5,0 200.5,-38"/>
<text text-anchor="middle" x="107.5" y="-22.8" font-family="Times,serif" font-size="14.00" fill="#000000">zcash/pasta_curves#22</text>
<text text-anchor="middle" x="107.5" y="-7.8" font-family="Times,serif" font-size="14.00" fill="#000000">Add `ec&#45;gpu` support</text>
</a>
</g>
</g>
<!-- zcash/pasta_curves#22&#45;&gt;zcash/pasta_curves#35 -->
<g id="edge4" class="edge">
<title>zcash/pasta_curves#22&#45;&gt;zcash/pasta_curves#35</title>
<path fill="none" stroke="#000000" d="M200.83,-30.279C213.73,-31.838 227.14,-33.459 240.48,-35.071"/>
<polygon fill="#000000" stroke="#000000" points="240.3021,-38.5749 250.65,-36.301 241.1426,-31.6255 240.3021,-38.5749"/>
</g>
<!-- zcash/pasta_curves#22&#45;&gt;zcash/halo2#379 -->
<g id="edge5" class="edge">
<title>zcash/pasta_curves#22&#45;&gt;zcash/halo2#379</title>
<path fill="none" stroke="#000000" d="M200.83,-10.06C217.52,-8.7848 234.76,-7.6777 251,-7 351.36,-2.8112 376.65,-2.5325 477,-7 489.2,-7.543 502,-8.3617 514.65,-9.3214"/>
<polygon fill="#000000" stroke="#000000" points="514.5055,-12.8208 524.75,-10.119 515.0566,-5.8425 514.5055,-12.8208"/>
</g>
<!-- zcash/halo2#520 -->
<g id="node7" class="node committed">
<title>zcash/halo2#520</title>
<g id="a_node7"><a xlink:href="https://github.com/zcash/halo2/issues/520" xlink:title="zcash/halo2#520&#10;Release `halo2_proofs&#10;0.1.0&#45;beta.3`" target="_blank">
<polygon fill="#a6cfff" stroke="#000000" stroke-width="2" points="452,-383.5 276,-383.5 276,-330.5 452,-330.5 452,-383.5"/>
<text text-anchor="middle" x="364" y="-368.3" font-family="Times,serif" font-size="14.00" fill="#000000">zcash/halo2#520</text>
<text text-anchor="middle" x="364" y="-353.3" font-family="Times,serif" font-size="14.00" fill="#000000">Release `halo2_proofs</text>
<text text-anchor="middle" x="364" y="-338.3" font-family="Times,serif" font-size="14.00" fill="#000000">0.1.0&#45;beta.3`</text>
</a>
</g>
</g>
<!-- zcash/halo2#520&#45;&gt;zcash/halo2#426 -->
<g id="edge6" class="edge">
<title>zcash/halo2#520&#45;&gt;zcash/halo2#426</title>
<path fill="none" stroke="#000000" d="M452.21,-333.52C460.85,-329.87 469.26,-325.71 477,-321 496.33,-309.23 493.87,-297.08 513,-285 514.93,-283.78 516.91,-282.59 518.93,-281.44"/>
<polygon fill="#000000" stroke="#000000" points="520.8184,-284.4002 528.01,-276.62 517.5363,-278.2173 520.8184,-284.4002"/>
</g>
<!-- zcash/halo2#75 -->
<g id="node8" class="node open">
<title>zcash/halo2#75</title>
<g id="a_node8"><a xlink:href="https://github.com/zcash/halo2/issues/75" xlink:title="zcash/halo2#75&#10;Implement support for&#10;recursion" target="_blank">
<polygon fill="#c2e0c6" stroke="#000000" points="1430.5,-620.5 1251.5,-620.5 1251.5,-567.5 1430.5,-567.5 1430.5,-620.5"/>
<text text-anchor="middle" x="1341" y="-605.3" font-family="Times,serif" font-size="14.00" fill="#000000">zcash/halo2#75</text>
<text text-anchor="middle" x="1341" y="-590.3" font-family="Times,serif" font-size="14.00" fill="#000000">Implement support for</text>
<text text-anchor="middle" x="1341" y="-575.3" font-family="Times,serif" font-size="14.00" fill="#000000">recursion</text>
</a>
</g>
</g>
<!-- zcash/halo2#494 -->
<g id="node9" class="node open">
<title>zcash/halo2#494</title>
<g id="a_node9"><a xlink:href="https://github.com/zcash/halo2/issues/494" xlink:title="zcash/halo2#494&#10;Consider adding an API&#10;that enables application&#10;circuits to be built&#10;across both fields" target="_blank">
<polygon fill="#c2e0c6" stroke="#000000" points="1673,-635.5 1484,-635.5 1484,-552.5 1673,-552.5 1673,-635.5"/>
<text text-anchor="middle" x="1578.5" y="-620.3" font-family="Times,serif" font-size="14.00" fill="#000000">zcash/halo2#494</text>
<text text-anchor="middle" x="1578.5" y="-605.3" font-family="Times,serif" font-size="14.00" fill="#000000">Consider adding an API</text>
<text text-anchor="middle" x="1578.5" y="-590.3" font-family="Times,serif" font-size="14.00" fill="#000000">that enables application</text>
<text text-anchor="middle" x="1578.5" y="-575.3" font-family="Times,serif" font-size="14.00" fill="#000000">circuits to be built</text>
<text text-anchor="middle" x="1578.5" y="-560.3" font-family="Times,serif" font-size="14.00" fill="#000000">across both fields</text>
</a>
</g>
</g>
<!-- zcash/halo2#75&#45;&gt;zcash/halo2#494 -->
<g id="edge7" class="edge">
<title>zcash/halo2#75&#45;&gt;zcash/halo2#494</title>
<path fill="none" stroke="#000000" d="M1430.8,-594C1444.7,-594 1459.3,-594 1473.5,-594"/>
<polygon fill="#000000" stroke="#000000" points="1473.8,-597.5001 1483.8,-594 1473.8,-590.5001 1473.8,-597.5001"/>
</g>
<!-- zcash/halo2#79 -->
<g id="node10" class="node open">
<title>zcash/halo2#79</title>
<g id="a_node10"><a xlink:href="https://github.com/zcash/halo2/issues/79" xlink:title="zcash/halo2#79&#10;Migrate Rescue and&#10;Poseidon gadgets to&#10;algebraic hash&#10;abstraction" target="_blank">
<polygon fill="#c2e0c6" stroke="#000000" points="1173.5,-902.5 1012.5,-902.5 1012.5,-819.5 1173.5,-819.5 1173.5,-902.5"/>
<text text-anchor="middle" x="1093" y="-887.3" font-family="Times,serif" font-size="14.00" fill="#000000">zcash/halo2#79</text>
<text text-anchor="middle" x="1093" y="-872.3" font-family="Times,serif" font-size="14.00" fill="#000000">Migrate Rescue and</text>
<text text-anchor="middle" x="1093" y="-857.3" font-family="Times,serif" font-size="14.00" fill="#000000">Poseidon gadgets to</text>
<text text-anchor="middle" x="1093" y="-842.3" font-family="Times,serif" font-size="14.00" fill="#000000">algebraic hash</text>
<text text-anchor="middle" x="1093" y="-827.3" font-family="Times,serif" font-size="14.00" fill="#000000">abstraction</text>
</a>
</g>
</g>
<!-- zcash/halo2#78 -->
<g id="node11" class="node open">
<title>zcash/halo2#78</title>
<g id="a_node11"><a xlink:href="https://github.com/zcash/halo2/issues/78" xlink:title="zcash/halo2#78&#10;Implement algebraic hash&#10;/ random oracle&#10;abstraction gadget" target="_blank">
<polygon fill="#c2e0c6" stroke="#000000" stroke-width="2" points="951,-895 747,-895 747,-827 951,-827 951,-895"/>
<text text-anchor="middle" x="849" y="-879.8" font-family="Times,serif" font-size="14.00" fill="#000000">zcash/halo2#78</text>
<text text-anchor="middle" x="849" y="-864.8" font-family="Times,serif" font-size="14.00" fill="#000000">Implement algebraic hash</text>
<text text-anchor="middle" x="849" y="-849.8" font-family="Times,serif" font-size="14.00" fill="#000000">/ random oracle</text>
<text text-anchor="middle" x="849" y="-834.8" font-family="Times,serif" font-size="14.00" fill="#000000">abstraction gadget</text>
</a>
</g>
</g>
<!-- zcash/halo2#78&#45;&gt;zcash/halo2#79 -->
<g id="edge8" class="edge">
<title>zcash/halo2#78&#45;&gt;zcash/halo2#79</title>
<path fill="none" stroke="#000000" d="M951.06,-861C968.04,-861 985.55,-861 1002.2,-861"/>
<polygon fill="#000000" stroke="#000000" points="1002.5,-864.5001 1012.5,-861 1002.5,-857.5001 1002.5,-864.5001"/>
</g>
<!-- zcash/halo2#250 -->
<g id="node12" class="node open">
<title>zcash/halo2#250</title>
<g id="a_node12"><a xlink:href="https://github.com/zcash/halo2/issues/250" xlink:title="zcash/halo2#250&#10;Implement the logic for&#10;the IVC verifier circuit" target="_blank">
<polygon fill="#c2e0c6" stroke="#000000" points="1186,-682.5 1000,-682.5 1000,-629.5 1186,-629.5 1186,-682.5"/>
<text text-anchor="middle" x="1093" y="-667.3" font-family="Times,serif" font-size="14.00" fill="#000000">zcash/halo2#250</text>
<text text-anchor="middle" x="1093" y="-652.3" font-family="Times,serif" font-size="14.00" fill="#000000">Implement the logic for</text>
<text text-anchor="middle" x="1093" y="-637.3" font-family="Times,serif" font-size="14.00" fill="#000000">the IVC verifier circuit</text>
</a>
</g>
</g>
<!-- zcash/halo2#78&#45;&gt;zcash/halo2#250 -->
<g id="edge9" class="edge">
<title>zcash/halo2#78&#45;&gt;zcash/halo2#250</title>
<path fill="none" stroke="#000000" d="M938.1,-826.99C942.93,-824.17 947.6,-821.17 952,-818 1001.1,-782.55 1044.7,-726.85 1070,-690.87"/>
<polygon fill="#000000" stroke="#000000" points="1072.8952,-692.8368 1075.7,-682.62 1067.1361,-688.8578 1072.8952,-692.8368"/>
</g>
<!-- zcash/halo2#250&#45;&gt;zcash/halo2#75 -->
<g id="edge10" class="edge">
<title>zcash/halo2#250&#45;&gt;zcash/halo2#75</title>
<path fill="none" stroke="#000000" d="M1186.1,-632.74C1204.1,-628.22 1223.1,-623.47 1241.4,-618.91"/>
<polygon fill="#000000" stroke="#000000" points="1242.256,-622.3038 1251.1,-616.47 1240.5483,-615.5153 1242.256,-622.3038"/>
</g>
<!-- zcash/halo2#57 -->
<g id="node13" class="node open">
<title>zcash/halo2#57</title>
<g id="a_node13"><a xlink:href="https://github.com/zcash/halo2/issues/57" xlink:title="zcash/halo2#57&#10;Remove unused&#10;fixed_values from&#10;ProvingKey" target="_blank">
<polygon fill="#c2e0c6" stroke="#000000" stroke-width="2" points="179,-633 36,-633 36,-565 179,-565 179,-633"/>
<text text-anchor="middle" x="107.5" y="-617.8" font-family="Times,serif" font-size="14.00" fill="#000000">zcash/halo2#57</text>
<text text-anchor="middle" x="107.5" y="-602.8" font-family="Times,serif" font-size="14.00" fill="#000000">Remove unused</text>
<text text-anchor="middle" x="107.5" y="-587.8" font-family="Times,serif" font-size="14.00" fill="#000000">fixed_values from</text>
<text text-anchor="middle" x="107.5" y="-572.8" font-family="Times,serif" font-size="14.00" fill="#000000">ProvingKey</text>
</a>
</g>
</g>
<!-- zcash/halo2#443 -->
<g id="node14" class="node open">
<title>zcash/halo2#443</title>
<g id="a_node14"><a xlink:href="https://github.com/zcash/halo2/issues/443" xlink:title="zcash/halo2#443&#10;implement `read` &amp;&#10;`write` for `halo2::plonk&#10;::ProvingKey`" target="_blank">
<polygon fill="#c2e0c6" stroke="#000000" points="461,-633 267,-633 267,-565 461,-565 461,-633"/>
<text text-anchor="middle" x="364" y="-617.8" font-family="Times,serif" font-size="14.00" fill="#000000">zcash/halo2#443</text>
<text text-anchor="middle" x="364" y="-602.8" font-family="Times,serif" font-size="14.00" fill="#000000">implement `read` &amp;</text>
<text text-anchor="middle" x="364" y="-587.8" font-family="Times,serif" font-size="14.00" fill="#000000">`write` for `halo2::plonk</text>
<text text-anchor="middle" x="364" y="-572.8" font-family="Times,serif" font-size="14.00" fill="#000000">::ProvingKey`</text>
</a>
</g>
</g>
<!-- zcash/halo2#57&#45;&gt;zcash/halo2#443 -->
<g id="edge11" class="edge">
<title>zcash/halo2#57&#45;&gt;zcash/halo2#443</title>
<path fill="none" stroke="#000000" d="M179.29,-599C203.23,-599 230.46,-599 256.51,-599"/>
<polygon fill="#000000" stroke="#000000" points="256.81,-602.5001 266.81,-599 256.81,-595.5001 256.81,-602.5001"/>
</g>
<!-- zcash/halo2#449 -->
<g id="node15" class="node committed">
<title>zcash/halo2#449</title>
<g id="a_node15"><a xlink:href="https://github.com/zcash/halo2/issues/449" xlink:title="zcash/halo2#449&#10;Define a stable&#10;serialization format for&#10;`VerifyingKey`" target="_blank">
<polygon fill="#a6cfff" stroke="#000000" stroke-width="2" points="198.5,-719 16.5,-719 16.5,-651 198.5,-651 198.5,-719"/>
<text text-anchor="middle" x="107.5" y="-703.8" font-family="Times,serif" font-size="14.00" fill="#000000">zcash/halo2#449</text>
<text text-anchor="middle" x="107.5" y="-688.8" font-family="Times,serif" font-size="14.00" fill="#000000">Define a stable</text>
<text text-anchor="middle" x="107.5" y="-673.8" font-family="Times,serif" font-size="14.00" fill="#000000">serialization format for</text>
<text text-anchor="middle" x="107.5" y="-658.8" font-family="Times,serif" font-size="14.00" fill="#000000">`VerifyingKey`</text>
</a>
</g>
</g>
<!-- zcash/halo2#482 -->
<g id="node16" class="node open">
<title>zcash/halo2#482</title>
<g id="a_node16"><a xlink:href="https://github.com/zcash/halo2/issues/482" xlink:title="zcash/halo2#482&#10;Raise MSRV to 1.56.1" target="_blank">
<polygon fill="#c2e0c6" stroke="#000000" stroke-width="2" points="194,-775 21,-775 21,-737 194,-737 194,-775"/>
<text text-anchor="middle" x="107.5" y="-759.8" font-family="Times,serif" font-size="14.00" fill="#000000">zcash/halo2#482</text>
<text text-anchor="middle" x="107.5" y="-744.8" font-family="Times,serif" font-size="14.00" fill="#000000">Raise MSRV to 1.56.1</text>
</a>
</g>
</g>
<!-- zcash/halo2#483 -->
<g id="node17" class="node open">
<title>zcash/halo2#483</title>
<g id="a_node17"><a xlink:href="https://github.com/zcash/halo2/issues/483" xlink:title="zcash/halo2#483&#10;Refactor variable&#45;base&#10;scalar mul to distinguish&#10;the &quot;base field element&quot;&#10;case" target="_blank">
<polygon fill="#c2e0c6" stroke="#000000" stroke-width="2" points="708.5,-377.5 514.5,-377.5 514.5,-294.5 708.5,-294.5 708.5,-377.5"/>
<text text-anchor="middle" x="611.5" y="-362.3" font-family="Times,serif" font-size="14.00" fill="#000000">zcash/halo2#483</text>
<text text-anchor="middle" x="611.5" y="-347.3" font-family="Times,serif" font-size="14.00" fill="#000000">Refactor variable&#45;base</text>
<text text-anchor="middle" x="611.5" y="-332.3" font-family="Times,serif" font-size="14.00" fill="#000000">scalar mul to distinguish</text>
<text text-anchor="middle" x="611.5" y="-317.3" font-family="Times,serif" font-size="14.00" fill="#000000">the &quot;base field element&quot;</text>
<text text-anchor="middle" x="611.5" y="-302.3" font-family="Times,serif" font-size="14.00" fill="#000000">case</text>
</a>
</g>
</g>
<!-- zcash/halo2#483&#45;&gt;zcash/halo2#460 -->
<g id="edge12" class="edge">
<title>zcash/halo2#483&#45;&gt;zcash/halo2#460</title>
<path fill="none" stroke="#000000" d="M708.79,-332.72C721.1,-332.31 733.72,-331.88 746.12,-331.47"/>
<polygon fill="#000000" stroke="#000000" points="746.5842,-334.9564 756.46,-331.12 746.3473,-327.9604 746.5842,-334.9564"/>
</g>
<!-- zcash/halo2#420 -->
<g id="node18" class="node open">
<title>zcash/halo2#420</title>
<g id="a_node18"><a xlink:href="https://github.com/zcash/halo2/issues/420" xlink:title="zcash/halo2#420&#10;CI: Measure memory&#45;usage&#10;benchmarks" target="_blank">
<polygon fill="#c2e0c6" stroke="#000000" stroke-width="2" points="215,-846.5 0,-846.5 0,-793.5 215,-793.5 215,-846.5"/>
<text text-anchor="middle" x="107.5" y="-831.3" font-family="Times,serif" font-size="14.00" fill="#000000">zcash/halo2#420</text>
<text text-anchor="middle" x="107.5" y="-816.3" font-family="Times,serif" font-size="14.00" fill="#000000">CI: Measure memory&#45;usage</text>
<text text-anchor="middle" x="107.5" y="-801.3" font-family="Times,serif" font-size="14.00" fill="#000000">benchmarks</text>
</a>
</g>
</g>
<!-- zcash/halo2#418 -->
<g id="node19" class="node open">
<title>zcash/halo2#418</title>
<g id="a_node19"><a xlink:href="https://github.com/zcash/halo2/issues/418" xlink:title="zcash/halo2#418&#10;[memory optimization]&#10;lookup prover memory&#10;analysis" target="_blank">
<polygon fill="#c2e0c6" stroke="#000000" points="453.5,-854 274.5,-854 274.5,-786 453.5,-786 453.5,-854"/>
<text text-anchor="middle" x="364" y="-838.8" font-family="Times,serif" font-size="14.00" fill="#000000">zcash/halo2#418</text>
<text text-anchor="middle" x="364" y="-823.8" font-family="Times,serif" font-size="14.00" fill="#000000">[memory optimization]</text>
<text text-anchor="middle" x="364" y="-808.8" font-family="Times,serif" font-size="14.00" fill="#000000">lookup prover memory</text>
<text text-anchor="middle" x="364" y="-793.8" font-family="Times,serif" font-size="14.00" fill="#000000">analysis</text>
</a>
</g>
</g>
<!-- zcash/halo2#420&#45;&gt;zcash/halo2#418 -->
<g id="edge13" class="edge">
<title>zcash/halo2#420&#45;&gt;zcash/halo2#418</title>
<path fill="none" stroke="#000000" d="M215.16,-820C231.36,-820 248,-820 264.03,-820"/>
<polygon fill="#000000" stroke="#000000" points="264.46,-823.5001 274.46,-820 264.46,-816.5001 264.46,-823.5001"/>
</g>
<!-- zcash/halo2#425 -->
<g id="node20" class="node open">
<title>zcash/halo2#425</title>
<g id="a_node20"><a xlink:href="https://github.com/zcash/halo2/issues/425" xlink:title="zcash/halo2#425&#10;Make `Assigned&lt;F: Field&gt;`&#10;easier to use" target="_blank">
<polygon fill="#c2e0c6" stroke="#000000" stroke-width="2" points="473.5,-312.5 254.5,-312.5 254.5,-259.5 473.5,-259.5 473.5,-312.5"/>
<text text-anchor="middle" x="364" y="-297.3" font-family="Times,serif" font-size="14.00" fill="#000000">zcash/halo2#425</text>
<text text-anchor="middle" x="364" y="-282.3" font-family="Times,serif" font-size="14.00" fill="#000000">Make `Assigned&lt;F: Field&gt;`</text>
<text text-anchor="middle" x="364" y="-267.3" font-family="Times,serif" font-size="14.00" fill="#000000">easier to use</text>
</a>
</g>
</g>
<!-- zcash/halo2#425&#45;&gt;zcash/halo2#426 -->
<g id="edge14" class="edge">
<title>zcash/halo2#425&#45;&gt;zcash/halo2#426</title>
<path fill="none" stroke="#000000" d="M473.64,-270.05C487.34,-268.06 501.28,-266.03 514.77,-264.07"/>
<polygon fill="#000000" stroke="#000000" points="515.5903,-267.4875 524.98,-262.58 514.5794,-260.5608 515.5903,-267.4875"/>
</g>
<!-- zcash/halo2#427 -->
<g id="node21" class="node open">
<title>zcash/halo2#427</title>
<g id="a_node21"><a xlink:href="https://github.com/zcash/halo2/issues/427" xlink:title="zcash/halo2#427&#10;Use smaller extended&#10;domains where possible&#10;during proving" target="_blank">
<polygon fill="#c2e0c6" stroke="#000000" stroke-width="2" points="201.5,-933 13.5,-933 13.5,-865 201.5,-865 201.5,-933"/>
<text text-anchor="middle" x="107.5" y="-917.8" font-family="Times,serif" font-size="14.00" fill="#000000">zcash/halo2#427</text>
<text text-anchor="middle" x="107.5" y="-902.8" font-family="Times,serif" font-size="14.00" fill="#000000">Use smaller extended</text>
<text text-anchor="middle" x="107.5" y="-887.8" font-family="Times,serif" font-size="14.00" fill="#000000">domains where possible</text>
<text text-anchor="middle" x="107.5" y="-872.8" font-family="Times,serif" font-size="14.00" fill="#000000">during proving</text>
</a>
</g>
</g>
<!-- zcash/halo2#456 -->
<g id="node22" class="node open">
<title>zcash/halo2#456</title>
<g id="a_node22"><a xlink:href="https://github.com/zcash/halo2/issues/456" xlink:title="zcash/halo2#456&#10;Benchmark `sha256`&#10;gadget." target="_blank">
<polygon fill="#c2e0c6" stroke="#000000" stroke-width="2" points="192.5,-1004.5 22.5,-1004.5 22.5,-951.5 192.5,-951.5 192.5,-1004.5"/>
<text text-anchor="middle" x="107.5" y="-989.3" font-family="Times,serif" font-size="14.00" fill="#000000">zcash/halo2#456</text>
<text text-anchor="middle" x="107.5" y="-974.3" font-family="Times,serif" font-size="14.00" fill="#000000">Benchmark `sha256`</text>
<text text-anchor="middle" x="107.5" y="-959.3" font-family="Times,serif" font-size="14.00" fill="#000000">gadget.</text>
</a>
</g>
</g>
<!-- zcash/halo2#455 -->
<g id="node23" class="node open">
<title>zcash/halo2#455</title>
<g id="a_node23"><a xlink:href="https://github.com/zcash/halo2/issues/455" xlink:title="zcash/halo2#455&#10;[Book] add description of&#10;Poseidon gadget and chip" target="_blank">
<polygon fill="#c2e0c6" stroke="#000000" stroke-width="2" points="207.5,-1075.5 7.5,-1075.5 7.5,-1022.5 207.5,-1022.5 207.5,-1075.5"/>
<text text-anchor="middle" x="107.5" y="-1060.3" font-family="Times,serif" font-size="14.00" fill="#000000">zcash/halo2#455</text>
<text text-anchor="middle" x="107.5" y="-1045.3" font-family="Times,serif" font-size="14.00" fill="#000000">[Book] add description of</text>
<text text-anchor="middle" x="107.5" y="-1030.3" font-family="Times,serif" font-size="14.00" fill="#000000">Poseidon gadget and chip</text>
</a>
</g>
</g>
<!-- zcash/halo2#251 -->
<g id="node24" class="node open">
<title>zcash/halo2#251</title>
<g id="a_node24"><a xlink:href="https://github.com/zcash/halo2/issues/251" xlink:title="zcash/halo2#251&#10;Implement user&#45;facing API&#10;for recursive proving of&#10;IVC" target="_blank">
<polygon fill="#c2e0c6" stroke="#000000" points="1198,-565 988,-565 988,-497 1198,-497 1198,-565"/>
<text text-anchor="middle" x="1093" y="-549.8" font-family="Times,serif" font-size="14.00" fill="#000000">zcash/halo2#251</text>
<text text-anchor="middle" x="1093" y="-534.8" font-family="Times,serif" font-size="14.00" fill="#000000">Implement user&#45;facing API</text>
<text text-anchor="middle" x="1093" y="-519.8" font-family="Times,serif" font-size="14.00" fill="#000000">for recursive proving of</text>
<text text-anchor="middle" x="1093" y="-504.8" font-family="Times,serif" font-size="14.00" fill="#000000">IVC</text>
</a>
</g>
</g>
<!-- zcash/halo2#251&#45;&gt;zcash/halo2#75 -->
<g id="edge15" class="edge">
<title>zcash/halo2#251&#45;&gt;zcash/halo2#75</title>
<path fill="none" stroke="#000000" d="M1198.2,-557.72C1212.5,-561.37 1227.3,-565.11 1241.5,-568.73"/>
<polygon fill="#000000" stroke="#000000" points="1240.746,-572.1496 1251.3,-571.22 1242.4699,-565.3651 1240.746,-572.1496"/>
</g>
<!-- zcash/halo2#437 -->
<g id="node25" class="node open">
<title>zcash/halo2#437</title>
<g id="a_node25"><a xlink:href="https://github.com/zcash/halo2/issues/437" xlink:title="zcash/halo2#437&#10;Amend user&#45;facing API to&#10;work for both IVC and PCD" target="_blank">
<polygon fill="#c2e0c6" stroke="#000000" points="1448,-526.5 1234,-526.5 1234,-473.5 1448,-473.5 1448,-526.5"/>
<text text-anchor="middle" x="1341" y="-511.3" font-family="Times,serif" font-size="14.00" fill="#000000">zcash/halo2#437</text>
<text text-anchor="middle" x="1341" y="-496.3" font-family="Times,serif" font-size="14.00" fill="#000000">Amend user&#45;facing API to</text>
<text text-anchor="middle" x="1341" y="-481.3" font-family="Times,serif" font-size="14.00" fill="#000000">work for both IVC and PCD</text>
</a>
</g>
</g>
<!-- zcash/halo2#251&#45;&gt;zcash/halo2#437 -->
<g id="edge16" class="edge">
<title>zcash/halo2#251&#45;&gt;zcash/halo2#437</title>
<path fill="none" stroke="#000000" d="M1198.2,-517.85C1206.6,-516.8 1215.2,-515.73 1223.7,-514.66"/>
<polygon fill="#000000" stroke="#000000" points="1224.2114,-518.1234 1233.7,-513.41 1223.3431,-511.1775 1224.2114,-518.1234"/>
</g>
<!-- zcash/halo2#436 -->
<g id="node26" class="node open">
<title>zcash/halo2#436</title>
<g id="a_node26"><a xlink:href="https://github.com/zcash/halo2/issues/436" xlink:title="zcash/halo2#436&#10;Implement mock&#10;verification circuit for&#10;PCD" target="_blank">
<polygon fill="#c2e0c6" stroke="#000000" points="699,-475 524,-475 524,-407 699,-407 699,-475"/>
<text text-anchor="middle" x="611.5" y="-459.8" font-family="Times,serif" font-size="14.00" fill="#000000">zcash/halo2#436</text>
<text text-anchor="middle" x="611.5" y="-444.8" font-family="Times,serif" font-size="14.00" fill="#000000">Implement mock</text>
<text text-anchor="middle" x="611.5" y="-429.8" font-family="Times,serif" font-size="14.00" fill="#000000">verification circuit for</text>
<text text-anchor="middle" x="611.5" y="-414.8" font-family="Times,serif" font-size="14.00" fill="#000000">PCD</text>
</a>
</g>
</g>
<!-- zcash/halo2#436&#45;&gt;zcash/halo2#437 -->
<g id="edge17" class="edge">
<title>zcash/halo2#436&#45;&gt;zcash/halo2#437</title>
<path fill="none" stroke="#000000" d="M699.44,-447.94C814.16,-457.03 1021.1,-473.49 1198,-488 1206.3,-488.68 1214.9,-489.39 1223.5,-490.1"/>
<polygon fill="#000000" stroke="#000000" points="1223.3417,-493.599 1233.6,-490.95 1223.9288,-486.6236 1223.3417,-493.599"/>
</g>
<!-- zcash/halo2#438 -->
<g id="node27" class="node open">
<title>zcash/halo2#438</title>
<g id="a_node27"><a xlink:href="https://github.com/zcash/halo2/issues/438" xlink:title="zcash/halo2#438&#10;Implement the logic for&#10;the PCD verifier circuit" target="_blank">
<polygon fill="#c2e0c6" stroke="#000000" points="942,-440.5 756,-440.5 756,-387.5 942,-387.5 942,-440.5"/>
<text text-anchor="middle" x="849" y="-425.3" font-family="Times,serif" font-size="14.00" fill="#000000">zcash/halo2#438</text>
<text text-anchor="middle" x="849" y="-410.3" font-family="Times,serif" font-size="14.00" fill="#000000">Implement the logic for</text>
<text text-anchor="middle" x="849" y="-395.3" font-family="Times,serif" font-size="14.00" fill="#000000">the PCD verifier circuit</text>
</a>
</g>
</g>
<!-- zcash/halo2#436&#45;&gt;zcash/halo2#438 -->
<g id="edge18" class="edge">
<title>zcash/halo2#436&#45;&gt;zcash/halo2#438</title>
<path fill="none" stroke="#000000" d="M699.26,-431.02C714.33,-429.31 730.11,-427.52 745.54,-425.76"/>
<polygon fill="#000000" stroke="#000000" points="746.0767,-429.2217 755.62,-424.62 745.29,-422.266 746.0767,-429.2217"/>
</g>
<!-- zcash/halo2#435 -->
<g id="node28" class="node open">
<title>zcash/halo2#435</title>
<g id="a_node28"><a xlink:href="https://github.com/zcash/halo2/issues/435" xlink:title="zcash/halo2#435&#10;Implement mock&#10;verification circuit for&#10;IVC" target="_blank">
<polygon fill="#c2e0c6" stroke="#000000" points="699,-633 524,-633 524,-565 699,-565 699,-633"/>
<text text-anchor="middle" x="611.5" y="-617.8" font-family="Times,serif" font-size="14.00" fill="#000000">zcash/halo2#435</text>
<text text-anchor="middle" x="611.5" y="-602.8" font-family="Times,serif" font-size="14.00" fill="#000000">Implement mock</text>
<text text-anchor="middle" x="611.5" y="-587.8" font-family="Times,serif" font-size="14.00" fill="#000000">verification circuit for</text>
<text text-anchor="middle" x="611.5" y="-572.8" font-family="Times,serif" font-size="14.00" fill="#000000">IVC</text>
</a>
</g>
</g>
<!-- zcash/halo2#247 -->
<g id="node29" class="node open">
<title>zcash/halo2#247</title>
<g id="a_node29"><a xlink:href="https://github.com/zcash/halo2/issues/247" xlink:title="zcash/halo2#247&#10;Implement underlying&#10;scaffolding for creating&#10;the IVC proof cycle" target="_blank">
<polygon fill="#c2e0c6" stroke="#000000" points="941.5,-565 756.5,-565 756.5,-497 941.5,-497 941.5,-565"/>
<text text-anchor="middle" x="849" y="-549.8" font-family="Times,serif" font-size="14.00" fill="#000000">zcash/halo2#247</text>
<text text-anchor="middle" x="849" y="-534.8" font-family="Times,serif" font-size="14.00" fill="#000000">Implement underlying</text>
<text text-anchor="middle" x="849" y="-519.8" font-family="Times,serif" font-size="14.00" fill="#000000">scaffolding for creating</text>
<text text-anchor="middle" x="849" y="-504.8" font-family="Times,serif" font-size="14.00" fill="#000000">the IVC proof cycle</text>
</a>
</g>
</g>
<!-- zcash/halo2#435&#45;&gt;zcash/halo2#247 -->
<g id="edge19" class="edge">
<title>zcash/halo2#435&#45;&gt;zcash/halo2#247</title>
<path fill="none" stroke="#000000" d="M699.26,-573.87C714.69,-569.45 730.87,-564.82 746.66,-560.3"/>
<polygon fill="#000000" stroke="#000000" points="747.7671,-563.6238 756.42,-557.51 745.8431,-556.8934 747.7671,-563.6238"/>
</g>
<!-- zcash/halo2#247&#45;&gt;zcash/halo2#250 -->
<g id="edge20" class="edge">
<title>zcash/halo2#247&#45;&gt;zcash/halo2#250</title>
<path fill="none" stroke="#000000" d="M933.17,-565.06C939.59,-567.99 945.93,-570.98 952,-574 982.53,-589.17 1015.5,-608.21 1041.9,-624.12"/>
<polygon fill="#000000" stroke="#000000" points="1040.2316,-627.2012 1050.6,-629.38 1043.8533,-621.211 1040.2316,-627.2012"/>
</g>
<!-- zcash/halo2#247&#45;&gt;zcash/halo2#251 -->
<g id="edge21" class="edge">
<title>zcash/halo2#247&#45;&gt;zcash/halo2#251</title>
<path fill="none" stroke="#000000" d="M941.59,-531C953.39,-531 965.58,-531 977.68,-531"/>
<polygon fill="#000000" stroke="#000000" points="977.81,-534.5001 987.81,-531 977.81,-527.5001 977.81,-534.5001"/>
</g>
<!-- zcash/halo2#246 -->
<g id="node30" class="node open">
<title>zcash/halo2#246</title>
<g id="a_node30"><a xlink:href="https://github.com/zcash/halo2/issues/246" xlink:title="zcash/halo2#246&#10;Create recursive proof&#10;structures" target="_blank">
<polygon fill="#c2e0c6" stroke="#000000" points="453.5,-546.5 274.5,-546.5 274.5,-493.5 453.5,-493.5 453.5,-546.5"/>
<text text-anchor="middle" x="364" y="-531.3" font-family="Times,serif" font-size="14.00" fill="#000000">zcash/halo2#246</text>
<text text-anchor="middle" x="364" y="-516.3" font-family="Times,serif" font-size="14.00" fill="#000000">Create recursive proof</text>
<text text-anchor="middle" x="364" y="-501.3" font-family="Times,serif" font-size="14.00" fill="#000000">structures</text>
</a>
</g>
</g>
<!-- zcash/halo2#246&#45;&gt;zcash/halo2#436 -->
<g id="edge22" class="edge">
<title>zcash/halo2#246&#45;&gt;zcash/halo2#436</title>
<path fill="none" stroke="#000000" d="M447.1,-493.47C468.63,-486.6 492.01,-479.14 514.2,-472.06"/>
<polygon fill="#000000" stroke="#000000" points="515.5006,-475.3188 523.96,-468.94 513.3691,-468.6512 515.5006,-475.3188"/>
</g>
<!-- zcash/halo2#246&#45;&gt;zcash/halo2#435 -->
<g id="edge23" class="edge">
<title>zcash/halo2#246&#45;&gt;zcash/halo2#435</title>
<path fill="none" stroke="#000000" d="M447.31,-546.53C457.32,-549.72 467.39,-552.93 477,-556 489.1,-559.86 501.8,-563.92 514.38,-567.94"/>
<polygon fill="#000000" stroke="#000000" points="513.3692,-571.2913 523.96,-571 515.4991,-564.6232 513.3692,-571.2913"/>
</g>
<!-- zcash/halo2#439 -->
<g id="node31" class="node open">
<title>zcash/halo2#439</title>
<g id="a_node31"><a xlink:href="https://github.com/zcash/halo2/issues/439" xlink:title="zcash/halo2#439&#10;Support split&#10;accumulation in Halo 2" target="_blank">
<polygon fill="#c2e0c6" stroke="#000000" stroke-width="2" points="199,-546.5 16,-546.5 16,-493.5 199,-493.5 199,-546.5"/>
<text text-anchor="middle" x="107.5" y="-531.3" font-family="Times,serif" font-size="14.00" fill="#000000">zcash/halo2#439</text>
<text text-anchor="middle" x="107.5" y="-516.3" font-family="Times,serif" font-size="14.00" fill="#000000">Support split</text>
<text text-anchor="middle" x="107.5" y="-501.3" font-family="Times,serif" font-size="14.00" fill="#000000">accumulation in Halo 2</text>
</a>
</g>
</g>
<!-- zcash/halo2#439&#45;&gt;zcash/halo2#246 -->
<g id="edge24" class="edge">
<title>zcash/halo2#439&#45;&gt;zcash/halo2#246</title>
<path fill="none" stroke="#000000" d="M199.02,-520C220.13,-520 242.7,-520 264.15,-520"/>
<polygon fill="#000000" stroke="#000000" points="264.24,-523.5001 274.24,-520 264.24,-516.5001 264.24,-523.5001"/>
</g>
<!-- zcash/halo2#359 -->
<g id="node32" class="node open">
<title>zcash/halo2#359</title>
<g id="a_node32"><a xlink:href="https://github.com/zcash/halo2/issues/359" xlink:title="zcash/halo2#359&#10;Set up `BaseTranscript`,&#10;`ScalarTranscript`" target="_blank">
<polygon fill="#c2e0c6" stroke="#000000" stroke-width="2" points="710,-546.5 513,-546.5 513,-493.5 710,-493.5 710,-546.5"/>
<text text-anchor="middle" x="611.5" y="-531.3" font-family="Times,serif" font-size="14.00" fill="#000000">zcash/halo2#359</text>
<text text-anchor="middle" x="611.5" y="-516.3" font-family="Times,serif" font-size="14.00" fill="#000000">Set up `BaseTranscript`,</text>
<text text-anchor="middle" x="611.5" y="-501.3" font-family="Times,serif" font-size="14.00" fill="#000000">`ScalarTranscript`</text>
</a>
</g>
</g>
<!-- zcash/halo2#359&#45;&gt;zcash/halo2#247 -->
<g id="edge25" class="edge">
<title>zcash/halo2#359&#45;&gt;zcash/halo2#247</title>
<path fill="none" stroke="#000000" d="M710.16,-524.57C722.11,-525.12 734.33,-525.69 746.34,-526.25"/>
<polygon fill="#000000" stroke="#000000" points="746.21,-529.7476 756.36,-526.71 746.5311,-522.755 746.21,-529.7476"/>
</g>
<!-- zcash/halo2#249 -->
<g id="node33" class="node open">
<title>zcash/halo2#249</title>
<g id="a_node33"><a xlink:href="https://github.com/zcash/halo2/issues/249" xlink:title="zcash/halo2#249&#10;Implement recursion&#10;circuit logic for&#10;handling public inputs" target="_blank">
<polygon fill="#c2e0c6" stroke="#000000" stroke-width="2" points="937.5,-809 760.5,-809 760.5,-741 937.5,-741 937.5,-809"/>
<text text-anchor="middle" x="849" y="-793.8" font-family="Times,serif" font-size="14.00" fill="#000000">zcash/halo2#249</text>
<text text-anchor="middle" x="849" y="-778.8" font-family="Times,serif" font-size="14.00" fill="#000000">Implement recursion</text>
<text text-anchor="middle" x="849" y="-763.8" font-family="Times,serif" font-size="14.00" fill="#000000">circuit logic for</text>
<text text-anchor="middle" x="849" y="-748.8" font-family="Times,serif" font-size="14.00" fill="#000000">handling public inputs</text>
</a>
</g>
</g>
<!-- zcash/halo2#249&#45;&gt;zcash/halo2#250 -->
<g id="edge26" class="edge">
<title>zcash/halo2#249&#45;&gt;zcash/halo2#250</title>
<path fill="none" stroke="#000000" d="M932.51,-740.96C939.14,-738.01 945.7,-735 952,-732 980.74,-718.3 1012,-701.65 1037.7,-687.43"/>
<polygon fill="#000000" stroke="#000000" points="1039.5416,-690.4112 1046.6,-682.51 1036.1549,-684.285 1039.5416,-690.4112"/>
</g>
<!-- zcash/halo2#398 -->
<g id="node34" class="node open">
<title>zcash/halo2#398</title>
<g id="a_node34"><a xlink:href="https://github.com/zcash/halo2/issues/398" xlink:title="zcash/halo2#398&#10;[MockProver] Testing is&#10;slower after #389" target="_blank">
<polygon fill="#c2e0c6" stroke="#000000" points="458.5,-241.5 269.5,-241.5 269.5,-188.5 458.5,-188.5 458.5,-241.5"/>
<text text-anchor="middle" x="364" y="-226.3" font-family="Times,serif" font-size="14.00" fill="#000000">zcash/halo2#398</text>
<text text-anchor="middle" x="364" y="-211.3" font-family="Times,serif" font-size="14.00" fill="#000000">[MockProver] Testing is</text>
<text text-anchor="middle" x="364" y="-196.3" font-family="Times,serif" font-size="14.00" fill="#000000">slower after #389</text>
</a>
</g>
</g>
<!-- zcash/halo2#398&#45;&gt;zcash/halo2#426 -->
<g id="edge27" class="edge">
<title>zcash/halo2#398&#45;&gt;zcash/halo2#426</title>
<path fill="none" stroke="#000000" d="M458.63,-228.38C476.94,-230.97 496.15,-233.69 514.53,-236.29"/>
<polygon fill="#000000" stroke="#000000" points="514.2484,-239.7849 524.64,-237.72 515.2288,-232.8539 514.2484,-239.7849"/>
</g>
<!-- zcash/halo2#480 -->
<g id="node35" class="node open">
<title>zcash/halo2#480</title>
<g id="a_node35"><a xlink:href="https://github.com/zcash/halo2/pull/480" xlink:title="zcash/halo2#480&#10;Add `MockProver::assert_s&#10;atisfied` with pretty&#45;&#10;printed failures" target="_blank">
<polygon fill="#c2e0c6" stroke="#000000" stroke-width="2" points="470.5,-170 257.5,-170 257.5,-166 253.5,-166 253.5,-162 257.5,-162 257.5,-110 253.5,-110 253.5,-106 257.5,-106 257.5,-102 470.5,-102 470.5,-170"/>
<polyline fill="none" stroke="#000000" stroke-width="2" points="257.5,-166 261.5,-166 261.5,-162 257.5,-162 "/>
<polyline fill="none" stroke="#000000" stroke-width="2" points="257.5,-110 261.5,-110 261.5,-106 257.5,-106 "/>
<text text-anchor="middle" x="364" y="-154.8" font-family="Times,serif" font-size="14.00" fill="#000000">zcash/halo2#480</text>
<text text-anchor="middle" x="364" y="-139.8" font-family="Times,serif" font-size="14.00" fill="#000000">Add `MockProver::assert_s</text>
<text text-anchor="middle" x="364" y="-124.8" font-family="Times,serif" font-size="14.00" fill="#000000">atisfied` with pretty&#45;</text>
<text text-anchor="middle" x="364" y="-109.8" font-family="Times,serif" font-size="14.00" fill="#000000">printed failures</text>
</a>
</g>
</g>
<!-- zcash/halo2#480&#45;&gt;zcash/halo2#426 -->
<g id="edge28" class="edge">
<title>zcash/halo2#480&#45;&gt;zcash/halo2#426</title>
<path fill="none" stroke="#000000" d="M456.27,-170.04C463.33,-172.97 470.31,-175.97 477,-179 503.35,-190.91 531.77,-205.63 555.66,-218.56"/>
<polygon fill="#000000" stroke="#000000" points="554.1257,-221.71 564.58,-223.43 557.4801,-215.566 554.1257,-221.71"/>
</g>
<!-- zcash/halo2#528 -->
<g id="node36" class="node open">
<title>zcash/halo2#528</title>
<g id="a_node36"><a xlink:href="https://github.com/zcash/halo2/issues/528" xlink:title="zcash/halo2#528&#10;Add benchmark for a&#10;circuit with a highly&#45;&#10;padded lookup table" target="_blank">
<polygon fill="#c2e0c6" stroke="#000000" stroke-width="2" points="191.5,-249 23.5,-249 23.5,-181 191.5,-181 191.5,-249"/>
<text text-anchor="middle" x="107.5" y="-233.8" font-family="Times,serif" font-size="14.00" fill="#000000">zcash/halo2#528</text>
<text text-anchor="middle" x="107.5" y="-218.8" font-family="Times,serif" font-size="14.00" fill="#000000">Add benchmark for a</text>
<text text-anchor="middle" x="107.5" y="-203.8" font-family="Times,serif" font-size="14.00" fill="#000000">circuit with a highly&#45;</text>
<text text-anchor="middle" x="107.5" y="-188.8" font-family="Times,serif" font-size="14.00" fill="#000000">padded lookup table</text>
</a>
</g>
</g>
<!-- zcash/halo2#528&#45;&gt;zcash/halo2#398 -->
<g id="edge29" class="edge">
<title>zcash/halo2#528&#45;&gt;zcash/halo2#398</title>
<path fill="none" stroke="#000000" d="M191.84,-215C213.37,-215 236.77,-215 259.19,-215"/>
<polygon fill="#000000" stroke="#000000" points="259.4,-218.5001 269.4,-215 259.4,-211.5001 259.4,-218.5001"/>
</g>
<!-- zcash/halo2#248 -->
<g id="node37" class="node open">
<title>zcash/halo2#248</title>
<g id="a_node37"><a xlink:href="https://github.com/zcash/halo2/issues/248" xlink:title="zcash/halo2#248&#10;Implement endoscaling in&#10;the circuit" target="_blank">
<polygon fill="#c2e0c6" stroke="#000000" stroke-width="2" points="950.5,-722.5 747.5,-722.5 747.5,-669.5 950.5,-669.5 950.5,-722.5"/>
<text text-anchor="middle" x="849" y="-707.3" font-family="Times,serif" font-size="14.00" fill="#000000">zcash/halo2#248</text>
<text text-anchor="middle" x="849" y="-692.3" font-family="Times,serif" font-size="14.00" fill="#000000">Implement endoscaling in</text>
<text text-anchor="middle" x="849" y="-677.3" font-family="Times,serif" font-size="14.00" fill="#000000">the circuit</text>
</a>
</g>
</g>
<!-- zcash/halo2#248&#45;&gt;zcash/halo2#250 -->
<g id="edge30" class="edge">
<title>zcash/halo2#248&#45;&gt;zcash/halo2#250</title>
<path fill="none" stroke="#000000" d="M950.71,-679.33C963.51,-677.23 976.61,-675.08 989.43,-672.98"/>
<polygon fill="#000000" stroke="#000000" points="990.341,-676.3773 999.64,-671.3 989.2044,-669.4701 990.341,-676.3773"/>
</g>
<!-- zcash/halo2#245 -->
<g id="node38" class="node open">
<title>zcash/halo2#245</title>
<g id="a_node38"><a xlink:href="https://github.com/zcash/halo2/issues/245" xlink:title="zcash/halo2#245&#10;Remove the need to&#10;multiply by powers of x^n&#10;in verifier" target="_blank">
<polygon fill="#c2e0c6" stroke="#000000" stroke-width="2" points="952,-651 746,-651 746,-583 952,-583 952,-651"/>
<text text-anchor="middle" x="849" y="-635.8" font-family="Times,serif" font-size="14.00" fill="#000000">zcash/halo2#245</text>
<text text-anchor="middle" x="849" y="-620.8" font-family="Times,serif" font-size="14.00" fill="#000000">Remove the need to</text>
<text text-anchor="middle" x="849" y="-605.8" font-family="Times,serif" font-size="14.00" fill="#000000">multiply by powers of x^n</text>
<text text-anchor="middle" x="849" y="-590.8" font-family="Times,serif" font-size="14.00" fill="#000000">in verifier</text>
</a>
</g>
</g>
<!-- zcash/halo2#245&#45;&gt;zcash/halo2#250 -->
<g id="edge31" class="edge">
<title>zcash/halo2#245&#45;&gt;zcash/halo2#250</title>
<path fill="none" stroke="#000000" d="M952.12,-633.48C964.65,-635.48 977.44,-637.53 989.96,-639.53"/>
<polygon fill="#000000" stroke="#000000" points="989.5036,-643.0014 999.93,-641.12 990.606,-636.0887 989.5036,-643.0014"/>
</g>
<!-- zcash/halo2#312 -->
<g id="node39" class="node open">
<title>zcash/halo2#312</title>
<g id="a_node39"><a xlink:href="https://github.com/zcash/halo2/issues/312" xlink:title="zcash/halo2#312&#10;[Book] Document gadget&#10;API" target="_blank">
<polygon fill="#c2e0c6" stroke="#000000" stroke-width="2" points="205,-1146.5 10,-1146.5 10,-1093.5 205,-1093.5 205,-1146.5"/>
<text text-anchor="middle" x="107.5" y="-1131.3" font-family="Times,serif" font-size="14.00" fill="#000000">zcash/halo2#312</text>
<text text-anchor="middle" x="107.5" y="-1116.3" font-family="Times,serif" font-size="14.00" fill="#000000">[Book] Document gadget</text>
<text text-anchor="middle" x="107.5" y="-1101.3" font-family="Times,serif" font-size="14.00" fill="#000000">API</text>
</a>
</g>
</g>
<!-- zcash/pasta_curves#23 -->
<g id="node40" class="node open">
<title>zcash/pasta_curves#23</title>
<g id="a_node40"><a xlink:href="https://github.com/zcash/pasta_curves/pull/23" xlink:title="zcash/pasta_curves#23&#10;Ensure that GitHub&#39;s&#10;&quot;View license&quot; link&#10;points to complete&#10;license information" target="_blank">
<polygon fill="#c2e0c6" stroke="#000000" stroke-width="2" points="200.5,-1247.5 14.5,-1247.5 14.5,-1243.5 10.5,-1243.5 10.5,-1239.5 14.5,-1239.5 14.5,-1172.5 10.5,-1172.5 10.5,-1168.5 14.5,-1168.5 14.5,-1164.5 200.5,-1164.5 200.5,-1247.5"/>
<polyline fill="none" stroke="#000000" stroke-width="2" points="14.5,-1243.5 18.5,-1243.5 18.5,-1239.5 14.5,-1239.5 "/>
<polyline fill="none" stroke="#000000" stroke-width="2" points="14.5,-1172.5 18.5,-1172.5 18.5,-1168.5 14.5,-1168.5 "/>
<text text-anchor="middle" x="107.5" y="-1232.3" font-family="Times,serif" font-size="14.00" fill="#000000">zcash/pasta_curves#23</text>
<text text-anchor="middle" x="107.5" y="-1217.3" font-family="Times,serif" font-size="14.00" fill="#000000">Ensure that GitHub&#39;s</text>
<text text-anchor="middle" x="107.5" y="-1202.3" font-family="Times,serif" font-size="14.00" fill="#000000">&quot;View license&quot; link</text>
<text text-anchor="middle" x="107.5" y="-1187.3" font-family="Times,serif" font-size="14.00" fill="#000000">points to complete</text>
<text text-anchor="middle" x="107.5" y="-1172.3" font-family="Times,serif" font-size="14.00" fill="#000000">license information</text>
</a>
</g>
</g>
</g>
</svg>
