<?xml version="1.0" encoding="UTF-8" standalone="no"?>
<?xml-stylesheet href="zcash-dag.css" type="text/css"?>
<!DOCTYPE svg PUBLIC "-//W3C//DTD SVG 1.1//EN"
 "http://www.w3.org/Graphics/SVG/1.1/DTD/svg11.dtd">
<!-- Generated by graphviz version 2.40.1 (20161225.0304)
 -->
<!-- Pages: 1 -->
<svg width="1048pt" height="1184pt"
 viewBox="0.00 0.00 1048.00 1184.00" xmlns="http://www.w3.org/2000/svg" xmlns:xlink="http://www.w3.org/1999/xlink">
<g id="graph0" class="graph" transform="scale(1 1) rotate(0) translate(4 1180)">
<polygon fill="#ffffff" stroke="transparent" points="-4,4 -4,-1180 1044,-1180 1044,4 -4,4"/>
<!-- zcash/librustzcash#226 -->
<g id="node1" class="node open">
<title>zcash/librustzcash#226</title>
<g id="a_node1"><a xlink:href="https://github.com/zcash/librustzcash/issues/226" xlink:title="zcash/librustzcash#226&#10;Bring in Bolt TZE" target="_blank">
<polygon fill="#c2e0c6" stroke="#000000" stroke-width="2" points="233,-45.5 45,-45.5 45,-7.5 233,-7.5 233,-45.5"/>
<text text-anchor="middle" x="139" y="-30.3" font-family="Times,serif" font-size="14.00" fill="#000000">zcash/librustzcash#226</text>
<text text-anchor="middle" x="139" y="-15.3" font-family="Times,serif" font-size="14.00" fill="#000000">Bring in Bolt TZE</text>
</a>
</g>
</g>
<!-- zcash/librustzcash#225 -->
<g id="node2" class="node open">
<title>zcash/librustzcash#225</title>
<g id="a_node2"><a xlink:href="https://github.com/zcash/librustzcash/issues/225" xlink:title="zcash/librustzcash#225&#10;Add Bolt TZE support to&#10;the transaction builder" target="_blank">
<polygon fill="#c2e0c6" stroke="#000000" points="549,-53 357,-53 357,0 549,0 549,-53"/>
<text text-anchor="middle" x="453" y="-37.8" font-family="Times,serif" font-size="14.00" fill="#000000">zcash/librustzcash#225</text>
<text text-anchor="middle" x="453" y="-22.8" font-family="Times,serif" font-size="14.00" fill="#000000">Add Bolt TZE support to</text>
<text text-anchor="middle" x="453" y="-7.8" font-family="Times,serif" font-size="14.00" fill="#000000">the transaction builder</text>
</a>
</g>
</g>
<!-- zcash/librustzcash#226&#45;&gt;zcash/librustzcash#225 -->
<g id="edge1" class="edge">
<title>zcash/librustzcash#226&#45;&gt;zcash/librustzcash#225</title>
<path fill="none" stroke="#000000" d="M233.21,-26.5C268.96,-26.5 309.91,-26.5 346.7,-26.5"/>
<polygon fill="#000000" stroke="#000000" points="346.95,-30.0001 356.95,-26.5 346.95,-23.0001 346.95,-30.0001"/>
</g>
<!-- zcash/librustzcash#403 -->
<g id="node3" class="node open">
<title>zcash/librustzcash#403</title>
<g id="a_node3"><a xlink:href="https://github.com/zcash/librustzcash/issues/403" xlink:title="zcash/librustzcash#403&#10;Add Orchard support to&#10;`zcash_client_backend`" target="_blank">
<polygon fill="#c2e0c6" stroke="#000000" points="816,-159 628,-159 628,-106 816,-106 816,-159"/>
<text text-anchor="middle" x="722" y="-143.8" font-family="Times,serif" font-size="14.00" fill="#000000">zcash/librustzcash#403</text>
<text text-anchor="middle" x="722" y="-128.8" font-family="Times,serif" font-size="14.00" fill="#000000">Add Orchard support to</text>
<text text-anchor="middle" x="722" y="-113.8" font-family="Times,serif" font-size="14.00" fill="#000000">`zcash_client_backend`</text>
</a>
</g>
</g>
<!-- zcash/librustzcash#404 -->
<g id="node4" class="node open">
<title>zcash/librustzcash#404</title>
<g id="a_node4"><a xlink:href="https://github.com/zcash/librustzcash/issues/404" xlink:title="zcash/librustzcash#404&#10;Add Orchard support to&#10;`zcash_client_sqlite`" target="_blank">
<polygon fill="#c2e0c6" stroke="#000000" points="1040,-159 852,-159 852,-106 1040,-106 1040,-159"/>
<text text-anchor="middle" x="946" y="-143.8" font-family="Times,serif" font-size="14.00" fill="#000000">zcash/librustzcash#404</text>
<text text-anchor="middle" x="946" y="-128.8" font-family="Times,serif" font-size="14.00" fill="#000000">Add Orchard support to</text>
<text text-anchor="middle" x="946" y="-113.8" font-family="Times,serif" font-size="14.00" fill="#000000">`zcash_client_sqlite`</text>
</a>
</g>
</g>
<!-- zcash/librustzcash#403&#45;&gt;zcash/librustzcash#404 -->
<g id="edge2" class="edge">
<title>zcash/librustzcash#403&#45;&gt;zcash/librustzcash#404</title>
<path fill="none" stroke="#000000" d="M816.02,-132.5C824.54,-132.5 833.2,-132.5 841.8,-132.5"/>
<polygon fill="#000000" stroke="#000000" points="841.86,-136.0001 851.86,-132.5 841.86,-129.0001 841.86,-136.0001"/>
</g>
<!-- zcash/librustzcash#210 -->
<g id="node5" class="node open">
<title>zcash/librustzcash#210</title>
<g id="a_node5"><a xlink:href="https://github.com/zcash/librustzcash/pull/210" xlink:title="zcash/librustzcash#210&#10;ZIP 304: Message signing&#10;and verification for&#10;Sapling addresses" target="_blank">
<polygon fill="#c2e0c6" stroke="#000000" stroke-width="2" points="240.5,-316.5 37.5,-316.5 37.5,-312.5 33.5,-312.5 33.5,-308.5 37.5,-308.5 37.5,-256.5 33.5,-256.5 33.5,-252.5 37.5,-252.5 37.5,-248.5 240.5,-248.5 240.5,-316.5"/>
<polyline fill="none" stroke="#000000" stroke-width="2" points="37.5,-312.5 41.5,-312.5 41.5,-308.5 37.5,-308.5 "/>
<polyline fill="none" stroke="#000000" stroke-width="2" points="37.5,-256.5 41.5,-256.5 41.5,-252.5 37.5,-252.5 "/>
<text text-anchor="middle" x="139" y="-301.3" font-family="Times,serif" font-size="14.00" fill="#000000">zcash/librustzcash#210</text>
<text text-anchor="middle" x="139" y="-286.3" font-family="Times,serif" font-size="14.00" fill="#000000">ZIP 304: Message signing</text>
<text text-anchor="middle" x="139" y="-271.3" font-family="Times,serif" font-size="14.00" fill="#000000">and verification for</text>
<text text-anchor="middle" x="139" y="-256.3" font-family="Times,serif" font-size="14.00" fill="#000000">Sapling addresses</text>
</a>
</g>
</g>
<!-- zcash/librustzcash#480 -->
<g id="node6" class="node committed">
<title>zcash/librustzcash#480</title>
<g id="a_node6"><a xlink:href="https://github.com/zcash/librustzcash/pull/480" xlink:title="zcash/librustzcash#480&#10;[ZIP 316] Transparent&#10;internal and external ovk" target="_blank">
<polygon fill="#a6cfff" stroke="#000000" points="551.5,-266 354.5,-266 354.5,-262 350.5,-262 350.5,-258 354.5,-258 354.5,-221 350.5,-221 350.5,-217 354.5,-217 354.5,-213 551.5,-213 551.5,-266"/>
<polyline fill="none" stroke="#000000" points="354.5,-262 358.5,-262 358.5,-258 354.5,-258 "/>
<polyline fill="none" stroke="#000000" points="354.5,-221 358.5,-221 358.5,-217 354.5,-217 "/>
<text text-anchor="middle" x="453" y="-250.8" font-family="Times,serif" font-size="14.00" fill="#000000">zcash/librustzcash#480</text>
<text text-anchor="middle" x="453" y="-235.8" font-family="Times,serif" font-size="14.00" fill="#000000">[ZIP 316] Transparent</text>
<text text-anchor="middle" x="453" y="-220.8" font-family="Times,serif" font-size="14.00" fill="#000000">internal and external ovk</text>
</a>
</g>
</g>
<!-- zcash/librustzcash#341 -->
<g id="node7" class="node open">
<title>zcash/librustzcash#341</title>
<g id="a_node7"><a xlink:href="https://github.com/zcash/librustzcash/pull/341" xlink:title="zcash/librustzcash#341&#10;Add auto&#45;shielding to the&#10;data access API" target="_blank">
<polygon fill="#c2e0c6" stroke="#000000" stroke-width="2" points="237.5,-230 40.5,-230 40.5,-226 36.5,-226 36.5,-222 40.5,-222 40.5,-185 36.5,-185 36.5,-181 40.5,-181 40.5,-177 237.5,-177 237.5,-230"/>
<polyline fill="none" stroke="#000000" stroke-width="2" points="40.5,-226 44.5,-226 44.5,-222 40.5,-222 "/>
<polyline fill="none" stroke="#000000" stroke-width="2" points="40.5,-185 44.5,-185 44.5,-181 40.5,-181 "/>
<text text-anchor="middle" x="139" y="-214.8" font-family="Times,serif" font-size="14.00" fill="#000000">zcash/librustzcash#341</text>
<text text-anchor="middle" x="139" y="-199.8" font-family="Times,serif" font-size="14.00" fill="#000000">Add auto&#45;shielding to the</text>
<text text-anchor="middle" x="139" y="-184.8" font-family="Times,serif" font-size="14.00" fill="#000000">data access API</text>
</a>
</g>
</g>
<!-- zcash/librustzcash#341&#45;&gt;zcash/librustzcash#480 -->
<g id="edge3" class="edge">
<title>zcash/librustzcash#341&#45;&gt;zcash/librustzcash#480</title>
<path fill="none" stroke="#000000" d="M237.92,-214.84C271.71,-218.71 309.67,-223.07 344.19,-227.03"/>
<polygon fill="#000000" stroke="#000000" points="343.9787,-230.5284 354.31,-228.18 344.7692,-223.5732 343.9787,-230.5284"/>
</g>
<!-- zcash/librustzcash#406 -->
<g id="node8" class="node open">
<title>zcash/librustzcash#406</title>
<g id="a_node8"><a xlink:href="https://github.com/zcash/librustzcash/issues/406" xlink:title="zcash/librustzcash#406&#10;Add Orchard support to&#10;the transaction builder" target="_blank">
<polygon fill="#c2e0c6" stroke="#000000" points="547,-195 359,-195 359,-142 547,-142 547,-195"/>
<text text-anchor="middle" x="453" y="-179.8" font-family="Times,serif" font-size="14.00" fill="#000000">zcash/librustzcash#406</text>
<text text-anchor="middle" x="453" y="-164.8" font-family="Times,serif" font-size="14.00" fill="#000000">Add Orchard support to</text>
<text text-anchor="middle" x="453" y="-149.8" font-family="Times,serif" font-size="14.00" fill="#000000">the transaction builder</text>
</a>
</g>
</g>
<!-- zcash/librustzcash#341&#45;&gt;zcash/librustzcash#406 -->
<g id="edge4" class="edge">
<title>zcash/librustzcash#341&#45;&gt;zcash/librustzcash#406</title>
<path fill="none" stroke="#000000" d="M237.92,-192.47C273.25,-188.54 313.14,-184.09 348.9,-180.1"/>
<polygon fill="#000000" stroke="#000000" points="349.3092,-183.5762 358.86,-178.99 348.5338,-176.6192 349.3092,-183.5762"/>
</g>
<!-- zcash/librustzcash#406&#45;&gt;zcash/librustzcash#403 -->
<g id="edge5" class="edge">
<title>zcash/librustzcash#406&#45;&gt;zcash/librustzcash#403</title>
<path fill="none" stroke="#000000" d="M547.08,-155.91C570.02,-152.84 594.68,-149.54 618.04,-146.41"/>
<polygon fill="#000000" stroke="#000000" points="618.5232,-149.8766 627.97,-145.08 617.5938,-142.9386 618.5232,-149.8766"/>
</g>
<!-- zcash/librustzcash#249 -->
<g id="node9" class="node open">
<title>zcash/librustzcash#249</title>
<g id="a_node9"><a xlink:href="https://github.com/zcash/librustzcash/issues/249" xlink:title="zcash/librustzcash#249&#10;Product Request: Surface&#10;additional unverified&#10;transaction states in&#10;zcash_client_sqlite" target="_blank">
<polygon fill="#c2e0c6" stroke="#000000" stroke-width="2" points="239.5,-418 38.5,-418 38.5,-335 239.5,-335 239.5,-418"/>
<text text-anchor="middle" x="139" y="-402.8" font-family="Times,serif" font-size="14.00" fill="#000000">zcash/librustzcash#249</text>
<text text-anchor="middle" x="139" y="-387.8" font-family="Times,serif" font-size="14.00" fill="#000000">Product Request: Surface</text>
<text text-anchor="middle" x="139" y="-372.8" font-family="Times,serif" font-size="14.00" fill="#000000">additional unverified</text>
<text text-anchor="middle" x="139" y="-357.8" font-family="Times,serif" font-size="14.00" fill="#000000">transaction states in</text>
<text text-anchor="middle" x="139" y="-342.8" font-family="Times,serif" font-size="14.00" fill="#000000">zcash_client_sqlite</text>
</a>
</g>
</g>
<!-- zcash/zcash&#45;android&#45;wallet&#45;sdk#238 -->
<g id="node10" class="node open">
<title>zcash/zcash&#45;android&#45;wallet&#45;sdk#238</title>
<g id="a_node10"><a xlink:href="https://github.com/zcash/zcash-android-wallet-sdk/issues/238" xlink:title="zcash/zcash&#45;android&#45;wallet&#45;sdk#238&#10;Fix the balance display:&#10;Show expected change as&#10;part of balance" target="_blank">
<polygon fill="#c2e0c6" stroke="#000000" points="592,-410.5 314,-410.5 314,-342.5 592,-342.5 592,-410.5"/>
<text text-anchor="middle" x="453" y="-395.3" font-family="Times,serif" font-size="14.00" fill="#000000">zcash/zcash&#45;android&#45;wallet&#45;sdk#238</text>
<text text-anchor="middle" x="453" y="-380.3" font-family="Times,serif" font-size="14.00" fill="#000000">Fix the balance display:</text>
<text text-anchor="middle" x="453" y="-365.3" font-family="Times,serif" font-size="14.00" fill="#000000">Show expected change as</text>
<text text-anchor="middle" x="453" y="-350.3" font-family="Times,serif" font-size="14.00" fill="#000000">part of balance</text>
</a>
</g>
</g>
<!-- zcash/librustzcash#249&#45;&gt;zcash/zcash&#45;android&#45;wallet&#45;sdk#238 -->
<g id="edge6" class="edge">
<title>zcash/librustzcash#249&#45;&gt;zcash/zcash&#45;android&#45;wallet&#45;sdk#238</title>
<path fill="none" stroke="#000000" d="M239.65,-376.5C260.01,-376.5 281.83,-376.5 303.47,-376.5"/>
<polygon fill="#000000" stroke="#000000" points="303.72,-380.0001 313.72,-376.5 303.72,-373.0001 303.72,-380.0001"/>
</g>
<!-- zcash/librustzcash#456 -->
<g id="node11" class="node open">
<title>zcash/librustzcash#456</title>
<g id="a_node11"><a xlink:href="https://github.com/zcash/librustzcash/issues/456" xlink:title="zcash/librustzcash#456&#10;Update orchard crate and&#10;NU5 branch ID, and set&#10;activation heights" target="_blank">
<polygon fill="#c2e0c6" stroke="#000000" stroke-width="2" points="240.5,-504.5 37.5,-504.5 37.5,-436.5 240.5,-436.5 240.5,-504.5"/>
<text text-anchor="middle" x="139" y="-489.3" font-family="Times,serif" font-size="14.00" fill="#000000">zcash/librustzcash#456</text>
<text text-anchor="middle" x="139" y="-474.3" font-family="Times,serif" font-size="14.00" fill="#000000">Update orchard crate and</text>
<text text-anchor="middle" x="139" y="-459.3" font-family="Times,serif" font-size="14.00" fill="#000000">NU5 branch ID, and set</text>
<text text-anchor="middle" x="139" y="-444.3" font-family="Times,serif" font-size="14.00" fill="#000000">activation heights</text>
</a>
</g>
</g>
<!-- zcash/librustzcash#458 -->
<g id="node12" class="node open">
<title>zcash/librustzcash#458</title>
<g id="a_node12"><a xlink:href="https://github.com/zcash/librustzcash/issues/458" xlink:title="zcash/librustzcash#458&#10;Publish 0.6.0 crate&#10;versions required for&#10;zcashd" target="_blank">
<polygon fill="#c2e0c6" stroke="#000000" stroke-width="2" points="233,-590.5 45,-590.5 45,-522.5 233,-522.5 233,-590.5"/>
<text text-anchor="middle" x="139" y="-575.3" font-family="Times,serif" font-size="14.00" fill="#000000">zcash/librustzcash#458</text>
<text text-anchor="middle" x="139" y="-560.3" font-family="Times,serif" font-size="14.00" fill="#000000">Publish 0.6.0 crate</text>
<text text-anchor="middle" x="139" y="-545.3" font-family="Times,serif" font-size="14.00" fill="#000000">versions required for</text>
<text text-anchor="middle" x="139" y="-530.3" font-family="Times,serif" font-size="14.00" fill="#000000">zcashd</text>
</a>
</g>
</g>
<!-- zcash/librustzcash#475 -->
<g id="node13" class="node open">
<title>zcash/librustzcash#475</title>
<g id="a_node13"><a xlink:href="https://github.com/zcash/librustzcash/pull/475" xlink:title="zcash/librustzcash#475&#10;Derive Sapling internal&#10;keys." target="_blank">
<polygon fill="#c2e0c6" stroke="#000000" stroke-width="2" points="233,-662 45,-662 45,-658 41,-658 41,-654 45,-654 45,-617 41,-617 41,-613 45,-613 45,-609 233,-609 233,-662"/>
<polyline fill="none" stroke="#000000" stroke-width="2" points="45,-658 49,-658 49,-654 45,-654 "/>
<polyline fill="none" stroke="#000000" stroke-width="2" points="45,-617 49,-617 49,-613 45,-613 "/>
<text text-anchor="middle" x="139" y="-646.8" font-family="Times,serif" font-size="14.00" fill="#000000">zcash/librustzcash#475</text>
<text text-anchor="middle" x="139" y="-631.8" font-family="Times,serif" font-size="14.00" fill="#000000">Derive Sapling internal</text>
<text text-anchor="middle" x="139" y="-616.8" font-family="Times,serif" font-size="14.00" fill="#000000">keys.</text>
</a>
</g>
</g>
<!-- zcash/librustzcash#454 -->
<g id="node14" class="node open">
<title>zcash/librustzcash#454</title>
<g id="a_node14"><a xlink:href="https://github.com/zcash/librustzcash/issues/454" xlink:title="zcash/librustzcash#454&#10;Refactor `sapling::Note`&#10;to store `d`, not `g_d`" target="_blank">
<polygon fill="#c2e0c6" stroke="#000000" stroke-width="2" points="236,-733 42,-733 42,-680 236,-680 236,-733"/>
<text text-anchor="middle" x="139" y="-717.8" font-family="Times,serif" font-size="14.00" fill="#000000">zcash/librustzcash#454</text>
<text text-anchor="middle" x="139" y="-702.8" font-family="Times,serif" font-size="14.00" fill="#000000">Refactor `sapling::Note`</text>
<text text-anchor="middle" x="139" y="-687.8" font-family="Times,serif" font-size="14.00" fill="#000000">to store `d`, not `g_d`</text>
</a>
</g>
</g>
<!-- zcash/librustzcash#455 -->
<g id="node15" class="node open">
<title>zcash/librustzcash#455</title>
<g id="a_node15"><a xlink:href="https://github.com/zcash/librustzcash/issues/455" xlink:title="zcash/librustzcash#455&#10;`zcash_note_encryption`:&#10;Remove `recipient`&#10;parameter from `Domain::n&#10;ote_plaintext_bytes`" target="_blank">
<polygon fill="#c2e0c6" stroke="#000000" points="560.5,-748 345.5,-748 345.5,-665 560.5,-665 560.5,-748"/>
<text text-anchor="middle" x="453" y="-732.8" font-family="Times,serif" font-size="14.00" fill="#000000">zcash/librustzcash#455</text>
<text text-anchor="middle" x="453" y="-717.8" font-family="Times,serif" font-size="14.00" fill="#000000">`zcash_note_encryption`:</text>
<text text-anchor="middle" x="453" y="-702.8" font-family="Times,serif" font-size="14.00" fill="#000000">Remove `recipient`</text>
<text text-anchor="middle" x="453" y="-687.8" font-family="Times,serif" font-size="14.00" fill="#000000">parameter from `Domain::n</text>
<text text-anchor="middle" x="453" y="-672.8" font-family="Times,serif" font-size="14.00" fill="#000000">ote_plaintext_bytes`</text>
</a>
</g>
</g>
<!-- zcash/librustzcash#454&#45;&gt;zcash/librustzcash#455 -->
<g id="edge7" class="edge">
<title>zcash/librustzcash#454&#45;&gt;zcash/librustzcash#455</title>
<path fill="none" stroke="#000000" d="M236.2,-706.5C267.54,-706.5 302.62,-706.5 335.27,-706.5"/>
<polygon fill="#000000" stroke="#000000" points="335.32,-710.0001 345.32,-706.5 335.32,-703.0001 335.32,-710.0001"/>
</g>
<!-- zcash/librustzcash#387 -->
<g id="node16" class="node open">
<title>zcash/librustzcash#387</title>
<g id="a_node16"><a xlink:href="https://github.com/zcash/librustzcash/issues/387" xlink:title="zcash/librustzcash#387&#10;Implement Unified Address&#10;key derivation" target="_blank">
<polygon fill="#c2e0c6" stroke="#000000" stroke-width="2" points="560.5,-124 345.5,-124 345.5,-71 560.5,-71 560.5,-124"/>
<text text-anchor="middle" x="453" y="-108.8" font-family="Times,serif" font-size="14.00" fill="#000000">zcash/librustzcash#387</text>
<text text-anchor="middle" x="453" y="-93.8" font-family="Times,serif" font-size="14.00" fill="#000000">Implement Unified Address</text>
<text text-anchor="middle" x="453" y="-78.8" font-family="Times,serif" font-size="14.00" fill="#000000">key derivation</text>
</a>
</g>
</g>
<!-- zcash/librustzcash#387&#45;&gt;zcash/librustzcash#403 -->
<g id="edge8" class="edge">
<title>zcash/librustzcash#387&#45;&gt;zcash/librustzcash#403</title>
<path fill="none" stroke="#000000" d="M560.86,-111.53C579.7,-113.98 599.25,-116.53 617.98,-118.97"/>
<polygon fill="#000000" stroke="#000000" points="617.6225,-122.4529 627.99,-120.27 618.5241,-115.5112 617.6225,-122.4529"/>
</g>
<!-- zcash/zcash&#45;android&#45;wallet&#45;sdk#240 -->
<g id="node17" class="node open">
<title>zcash/zcash&#45;android&#45;wallet&#45;sdk#240</title>
<g id="a_node17"><a xlink:href="https://github.com/zcash/zcash-android-wallet-sdk/issues/240" xlink:title="zcash/zcash&#45;android&#45;wallet&#45;sdk#240&#10;Make the SDK database&#10;more robust" target="_blank">
<polygon fill="#c2e0c6" stroke="#000000" stroke-width="2" points="278,-827 0,-827 0,-774 278,-774 278,-827"/>
<text text-anchor="middle" x="139" y="-811.8" font-family="Times,serif" font-size="14.00" fill="#000000">zcash/zcash&#45;android&#45;wallet&#45;sdk#240</text>
<text text-anchor="middle" x="139" y="-796.8" font-family="Times,serif" font-size="14.00" fill="#000000">Make the SDK database</text>
<text text-anchor="middle" x="139" y="-781.8" font-family="Times,serif" font-size="14.00" fill="#000000">more robust</text>
</a>
</g>
</g>
<!-- zcash/zcash&#45;android&#45;wallet&#45;sdk#239 -->
<g id="node18" class="node open">
<title>zcash/zcash&#45;android&#45;wallet&#45;sdk#239</title>
<g id="a_node18"><a xlink:href="https://github.com/zcash/zcash-android-wallet-sdk/issues/239" xlink:title="zcash/zcash&#45;android&#45;wallet&#45;sdk#239&#10;Get rid of the&#10;PendingTransaction&#10;Database" target="_blank">
<polygon fill="#c2e0c6" stroke="#000000" points="592,-834.5 314,-834.5 314,-766.5 592,-766.5 592,-834.5"/>
<text text-anchor="middle" x="453" y="-819.3" font-family="Times,serif" font-size="14.00" fill="#000000">zcash/zcash&#45;android&#45;wallet&#45;sdk#239</text>
<text text-anchor="middle" x="453" y="-804.3" font-family="Times,serif" font-size="14.00" fill="#000000">Get rid of the</text>
<text text-anchor="middle" x="453" y="-789.3" font-family="Times,serif" font-size="14.00" fill="#000000">PendingTransaction</text>
<text text-anchor="middle" x="453" y="-774.3" font-family="Times,serif" font-size="14.00" fill="#000000">Database</text>
</a>
</g>
</g>
<!-- zcash/zcash&#45;android&#45;wallet&#45;sdk#240&#45;&gt;zcash/zcash&#45;android&#45;wallet&#45;sdk#239 -->
<g id="edge9" class="edge">
<title>zcash/zcash&#45;android&#45;wallet&#45;sdk#240&#45;&gt;zcash/zcash&#45;android&#45;wallet&#45;sdk#239</title>
<path fill="none" stroke="#000000" d="M278.1,-800.5C286.49,-800.5 294.96,-800.5 303.4,-800.5"/>
<polygon fill="#000000" stroke="#000000" points="303.67,-804.0001 313.67,-800.5 303.67,-797.0001 303.67,-804.0001"/>
</g>
<!-- zcash/zcash&#45;android&#45;wallet&#45;sdk#295 -->
<g id="node19" class="node open">
<title>zcash/zcash&#45;android&#45;wallet&#45;sdk#295</title>
<g id="a_node19"><a xlink:href="https://github.com/zcash/zcash-android-wallet-sdk/issues/295" xlink:title="zcash/zcash&#45;android&#45;wallet&#45;sdk#295&#10;Repackaging SDK Classes &#45;&#10;Phase 3" target="_blank">
<polygon fill="#c2e0c6" stroke="#000000" stroke-width="2" points="278,-906 0,-906 0,-853 278,-853 278,-906"/>
<text text-anchor="middle" x="139" y="-890.8" font-family="Times,serif" font-size="14.00" fill="#000000">zcash/zcash&#45;android&#45;wallet&#45;sdk#295</text>
<text text-anchor="middle" x="139" y="-875.8" font-family="Times,serif" font-size="14.00" fill="#000000">Repackaging SDK Classes &#45;</text>
<text text-anchor="middle" x="139" y="-860.8" font-family="Times,serif" font-size="14.00" fill="#000000">Phase 3</text>
</a>
</g>
</g>
<!-- zcash/zcash&#45;android&#45;wallet&#45;sdk#296 -->
<g id="node20" class="node open">
<title>zcash/zcash&#45;android&#45;wallet&#45;sdk#296</title>
<g id="a_node20"><a xlink:href="https://github.com/zcash/zcash-android-wallet-sdk/issues/296" xlink:title="zcash/zcash&#45;android&#45;wallet&#45;sdk#296&#10;Repackaging SDK Classes &#45;&#10;Phase 4" target="_blank">
<polygon fill="#c2e0c6" stroke="#000000" points="592,-906 314,-906 314,-853 592,-853 592,-906"/>
<text text-anchor="middle" x="453" y="-890.8" font-family="Times,serif" font-size="14.00" fill="#000000">zcash/zcash&#45;android&#45;wallet&#45;sdk#296</text>
<text text-anchor="middle" x="453" y="-875.8" font-family="Times,serif" font-size="14.00" fill="#000000">Repackaging SDK Classes &#45;</text>
<text text-anchor="middle" x="453" y="-860.8" font-family="Times,serif" font-size="14.00" fill="#000000">Phase 4</text>
</a>
</g>
</g>
<!-- zcash/zcash&#45;android&#45;wallet&#45;sdk#295&#45;&gt;zcash/zcash&#45;android&#45;wallet&#45;sdk#296 -->
<g id="edge10" class="edge">
<title>zcash/zcash&#45;android&#45;wallet&#45;sdk#295&#45;&gt;zcash/zcash&#45;android&#45;wallet&#45;sdk#296</title>
<path fill="none" stroke="#000000" d="M278.1,-879.5C286.49,-879.5 294.96,-879.5 303.4,-879.5"/>
<polygon fill="#000000" stroke="#000000" points="303.67,-883.0001 313.67,-879.5 303.67,-876.0001 303.67,-883.0001"/>
</g>
<!-- zcash/ZcashLightClientKit#320 -->
<g id="node21" class="node open">
<title>zcash/ZcashLightClientKit#320</title>
<g id="a_node21"><a xlink:href="https://github.com/zcash/ZcashLightClientKit/issues/320" xlink:title="zcash/ZcashLightClientKit#320&#10;ZIP&#45;321 Request Parsing&#10;API" target="_blank">
<polygon fill="#c2e0c6" stroke="#000000" stroke-width="2" points="262,-977 16,-977 16,-924 262,-924 262,-977"/>
<text text-anchor="middle" x="139" y="-961.8" font-family="Times,serif" font-size="14.00" fill="#000000">zcash/ZcashLightClientKit#320</text>
<text text-anchor="middle" x="139" y="-946.8" font-family="Times,serif" font-size="14.00" fill="#000000">ZIP&#45;321 Request Parsing</text>
<text text-anchor="middle" x="139" y="-931.8" font-family="Times,serif" font-size="14.00" fill="#000000">API</text>
</a>
</g>
</g>
<!-- zcash/ZcashLightClientKit#319 -->
<g id="node22" class="node open">
<title>zcash/ZcashLightClientKit#319</title>
<g id="a_node22"><a xlink:href="https://github.com/zcash/ZcashLightClientKit/issues/319" xlink:title="zcash/ZcashLightClientKit#319&#10;ZIP&#45;321 Request&#10;Generation API" target="_blank">
<polygon fill="#c2e0c6" stroke="#000000" stroke-width="2" points="262,-1048 16,-1048 16,-995 262,-995 262,-1048"/>
<text text-anchor="middle" x="139" y="-1032.8" font-family="Times,serif" font-size="14.00" fill="#000000">zcash/ZcashLightClientKit#319</text>
<text text-anchor="middle" x="139" y="-1017.8" font-family="Times,serif" font-size="14.00" fill="#000000">ZIP&#45;321 Request</text>
<text text-anchor="middle" x="139" y="-1002.8" font-family="Times,serif" font-size="14.00" fill="#000000">Generation API</text>
</a>
</g>
</g>
<!-- zcash/ZcashLightClientKit#321 -->
<g id="node23" class="node open">
<title>zcash/ZcashLightClientKit#321</title>
<g id="a_node23"><a xlink:href="https://github.com/zcash/ZcashLightClientKit/issues/321" xlink:title="zcash/ZcashLightClientKit#321&#10;Validate UA" target="_blank">
<polygon fill="#c2e0c6" stroke="#000000" stroke-width="2" points="262,-1104.5 16,-1104.5 16,-1066.5 262,-1066.5 262,-1104.5"/>
<text text-anchor="middle" x="139" y="-1089.3" font-family="Times,serif" font-size="14.00" fill="#000000">zcash/ZcashLightClientKit#321</text>
<text text-anchor="middle" x="139" y="-1074.3" font-family="Times,serif" font-size="14.00" fill="#000000">Validate UA</text>
</a>
</g>
</g>
<!-- zcash/zcash&#45;android&#45;wallet#49 -->
<g id="node24" class="node open">
<title>zcash/zcash&#45;android&#45;wallet#49</title>
<g id="a_node24"><a xlink:href="https://github.com/zcash/zcash-android-wallet/issues/49" xlink:title="zcash/zcash&#45;android&#45;wallet#49&#10;Android: Send: Press and&#10;Hold UX" target="_blank">
<polygon fill="#c2e0c6" stroke="#000000" stroke-width="2" points="258.5,-1176 19.5,-1176 19.5,-1123 258.5,-1123 258.5,-1176"/>
<text text-anchor="middle" x="139" y="-1160.8" font-family="Times,serif" font-size="14.00" fill="#000000">zcash/zcash&#45;android&#45;wallet#49</text>
<text text-anchor="middle" x="139" y="-1145.8" font-family="Times,serif" font-size="14.00" fill="#000000">Android: Send: Press and</text>
<text text-anchor="middle" x="139" y="-1130.8" font-family="Times,serif" font-size="14.00" fill="#000000">Hold UX</text>
</a>
</g>
</g>
</g>
</svg>
