<?xml version="1.0" encoding="UTF-8" standalone="no"?>
<?xml-stylesheet href="zcash-dag.css" type="text/css"?>
<!DOCTYPE svg PUBLIC "-//W3C//DTD SVG 1.1//EN"
 "http://www.w3.org/Graphics/SVG/1.1/DTD/svg11.dtd">
<!-- Generated by graphviz version 2.40.1 (20161225.0304)
 -->
<!-- Pages: 1 -->
<svg width="1674pt" height="1114pt"
 viewBox="0.00 0.00 1674.00 1113.50" xmlns="http://www.w3.org/2000/svg" xmlns:xlink="http://www.w3.org/1999/xlink">
<g id="graph0" class="graph" transform="scale(1 1) rotate(0) translate(4 1109.5)">
<polygon fill="#ffffff" stroke="transparent" points="-4,4 -4,-1109.5 1670,-1109.5 1670,4 -4,4"/>
<!-- zcash/halo2#426 -->
<g id="node1" class="node open">
<title>zcash/halo2#426</title>
<g id="a_node1"><a xlink:href="https://github.com/zcash/halo2/issues/426" xlink:title="zcash/halo2#426&#10;Publish `halo2_proofs&#10;0.1.0`" target="_blank">
<polygon fill="#c2e0c6" stroke="#000000" points="691,-212.5 518,-212.5 518,-159.5 691,-159.5 691,-212.5"/>
<text text-anchor="middle" x="604.5" y="-197.3" font-family="Times,serif" font-size="14.00" fill="#000000">zcash/halo2#426</text>
<text text-anchor="middle" x="604.5" y="-182.3" font-family="Times,serif" font-size="14.00" fill="#000000">Publish `halo2_proofs</text>
<text text-anchor="middle" x="604.5" y="-167.3" font-family="Times,serif" font-size="14.00" fill="#000000">0.1.0`</text>
</a>
</g>
</g>
<!-- zcash/halo2#460 -->
<g id="node2" class="node open">
<title>zcash/halo2#460</title>
<g id="a_node2"><a xlink:href="https://github.com/zcash/halo2/issues/460" xlink:title="zcash/halo2#460&#10;Publish `halo2_gadgets&#10;v0.1.0`" target="_blank">
<polygon fill="#c2e0c6" stroke="#000000" points="934.5,-298.5 749.5,-298.5 749.5,-245.5 934.5,-245.5 934.5,-298.5"/>
<text text-anchor="middle" x="842" y="-283.3" font-family="Times,serif" font-size="14.00" fill="#000000">zcash/halo2#460</text>
<text text-anchor="middle" x="842" y="-268.3" font-family="Times,serif" font-size="14.00" fill="#000000">Publish `halo2_gadgets</text>
<text text-anchor="middle" x="842" y="-253.3" font-family="Times,serif" font-size="14.00" fill="#000000">v0.1.0`</text>
</a>
</g>
</g>
<!-- zcash/halo2#426&#45;&gt;zcash/halo2#460 -->
<g id="edge1" class="edge">
<title>zcash/halo2#426&#45;&gt;zcash/halo2#460</title>
<path fill="none" stroke="#000000" d="M679.55,-212.58C687.47,-215.41 695.4,-218.26 703,-221 721.61,-227.72 741.6,-235.01 760.46,-241.92"/>
<polygon fill="#000000" stroke="#000000" points="759.3164,-245.2285 769.91,-245.39 761.7293,-238.6575 759.3164,-245.2285"/>
</g>
<!-- zcash/halo2#380 -->
<g id="node3" class="node open">
<title>zcash/halo2#380</title>
<g id="a_node3"><a xlink:href="https://github.com/zcash/halo2/pull/380" xlink:title="zcash/halo2#380&#10;[book] Fix errors and&#10;typos" target="_blank">
<polygon fill="#c2e0c6" stroke="#000000" points="926,-212.5 758,-212.5 758,-208.5 754,-208.5 754,-204.5 758,-204.5 758,-167.5 754,-167.5 754,-163.5 758,-163.5 758,-159.5 926,-159.5 926,-212.5"/>
<polyline fill="none" stroke="#000000" points="758,-208.5 762,-208.5 762,-204.5 758,-204.5 "/>
<polyline fill="none" stroke="#000000" points="758,-167.5 762,-167.5 762,-163.5 758,-163.5 "/>
<text text-anchor="middle" x="842" y="-197.3" font-family="Times,serif" font-size="14.00" fill="#000000">zcash/halo2#380</text>
<text text-anchor="middle" x="842" y="-182.3" font-family="Times,serif" font-size="14.00" fill="#000000">[book] Fix errors and</text>
<text text-anchor="middle" x="842" y="-167.3" font-family="Times,serif" font-size="14.00" fill="#000000">typos</text>
</a>
</g>
</g>
<!-- zcash/halo2#426&#45;&gt;zcash/halo2#380 -->
<g id="edge2" class="edge">
<title>zcash/halo2#426&#45;&gt;zcash/halo2#380</title>
<path fill="none" stroke="#000000" d="M691.25,-186C709.59,-186 729.02,-186 747.63,-186"/>
<polygon fill="#000000" stroke="#000000" points="747.86,-189.5001 757.86,-186 747.86,-182.5001 747.86,-189.5001"/>
</g>
<!-- zcash/halo2#404 -->
<g id="node4" class="node open">
<title>zcash/halo2#404</title>
<g id="a_node4"><a xlink:href="https://github.com/zcash/halo2/issues/404" xlink:title="zcash/halo2#404&#10;Publish `halo2_proofs&#10;0.1.0&#45;beta.2`" target="_blank">
<polygon fill="#c2e0c6" stroke="#000000" points="447,-379.5 274,-379.5 274,-326.5 447,-326.5 447,-379.5"/>
<text text-anchor="middle" x="360.5" y="-364.3" font-family="Times,serif" font-size="14.00" fill="#000000">zcash/halo2#404</text>
<text text-anchor="middle" x="360.5" y="-349.3" font-family="Times,serif" font-size="14.00" fill="#000000">Publish `halo2_proofs</text>
<text text-anchor="middle" x="360.5" y="-334.3" font-family="Times,serif" font-size="14.00" fill="#000000">0.1.0&#45;beta.2`</text>
</a>
</g>
</g>
<!-- zcash/halo2#404&#45;&gt;zcash/halo2#426 -->
<g id="edge3" class="edge">
<title>zcash/halo2#404&#45;&gt;zcash/halo2#426</title>
<path fill="none" stroke="#000000" d="M442.17,-326.49C452.34,-320.83 461.97,-314.06 470,-306 498.94,-276.92 476.14,-249.14 506,-221 507.11,-219.95 508.26,-218.93 509.44,-217.94"/>
<polygon fill="#000000" stroke="#000000" points="511.689,-220.6292 517.62,-211.85 507.5087,-215.0144 511.689,-220.6292"/>
</g>
<!-- zcash/halo2#458 -->
<g id="node5" class="node open">
<title>zcash/halo2#458</title>
<g id="a_node5"><a xlink:href="https://github.com/zcash/halo2/issues/458" xlink:title="zcash/halo2#458&#10;Publish `halo2_gadgets&#10;v0.1.0&#45;beta.1`" target="_blank">
<polygon fill="#c2e0c6" stroke="#000000" points="697,-384.5 512,-384.5 512,-331.5 697,-331.5 697,-384.5"/>
<text text-anchor="middle" x="604.5" y="-369.3" font-family="Times,serif" font-size="14.00" fill="#000000">zcash/halo2#458</text>
<text text-anchor="middle" x="604.5" y="-354.3" font-family="Times,serif" font-size="14.00" fill="#000000">Publish `halo2_gadgets</text>
<text text-anchor="middle" x="604.5" y="-339.3" font-family="Times,serif" font-size="14.00" fill="#000000">v0.1.0&#45;beta.1`</text>
</a>
</g>
</g>
<!-- zcash/halo2#404&#45;&gt;zcash/halo2#458 -->
<g id="edge4" class="edge">
<title>zcash/halo2#404&#45;&gt;zcash/halo2#458</title>
<path fill="none" stroke="#000000" d="M447.21,-354.78C464.9,-355.14 483.66,-355.52 501.84,-355.9"/>
<polygon fill="#000000" stroke="#000000" points="501.8022,-359.3998 511.87,-356.1 501.9418,-352.4012 501.8022,-359.3998"/>
</g>
<!-- zcash/halo2#458&#45;&gt;zcash/halo2#460 -->
<g id="edge5" class="edge">
<title>zcash/halo2#458&#45;&gt;zcash/halo2#460</title>
<path fill="none" stroke="#000000" d="M677.7,-331.5C703.43,-322.18 732.53,-311.64 759.01,-302.05"/>
<polygon fill="#000000" stroke="#000000" points="760.4248,-305.2603 768.64,-298.57 758.0457,-298.677 760.4248,-305.2603"/>
</g>
<!-- zcash/pasta_curves#22 -->
<g id="node6" class="node open">
<title>zcash/pasta_curves#22</title>
<g id="a_node6"><a xlink:href="https://github.com/zcash/pasta_curves/issues/22" xlink:title="zcash/pasta_curves#22&#10;Add `ec&#45;gpu` support" target="_blank">
<polygon fill="#c2e0c6" stroke="#000000" stroke-width="2" points="200.5,-466 14.5,-466 14.5,-428 200.5,-428 200.5,-466"/>
<text text-anchor="middle" x="107.5" y="-450.8" font-family="Times,serif" font-size="14.00" fill="#000000">zcash/pasta_curves#22</text>
<text text-anchor="middle" x="107.5" y="-435.8" font-family="Times,serif" font-size="14.00" fill="#000000">Add `ec&#45;gpu` support</text>
</a>
</g>
</g>
<!-- zcash/halo2#379 -->
<g id="node7" class="node open">
<title>zcash/halo2#379</title>
<g id="a_node7"><a xlink:href="https://github.com/zcash/halo2/issues/379" xlink:title="zcash/halo2#379&#10;Add `ec&#45;gpu` support" target="_blank">
<polygon fill="#c2e0c6" stroke="#000000" points="447,-466 274,-466 274,-428 447,-428 447,-466"/>
<text text-anchor="middle" x="360.5" y="-450.8" font-family="Times,serif" font-size="14.00" fill="#000000">zcash/halo2#379</text>
<text text-anchor="middle" x="360.5" y="-435.8" font-family="Times,serif" font-size="14.00" fill="#000000">Add `ec&#45;gpu` support</text>
</a>
</g>
</g>
<!-- zcash/pasta_curves#22&#45;&gt;zcash/halo2#379 -->
<g id="edge6" class="edge">
<title>zcash/pasta_curves#22&#45;&gt;zcash/halo2#379</title>
<path fill="none" stroke="#000000" d="M200.63,-447C221.21,-447 243.07,-447 263.79,-447"/>
<polygon fill="#000000" stroke="#000000" points="263.86,-450.5001 273.86,-447 263.86,-443.5001 263.86,-450.5001"/>
</g>
<!-- zcash/halo2#495 -->
<g id="node8" class="node open">
<title>zcash/halo2#495</title>
<g id="a_node8"><a xlink:href="https://github.com/zcash/halo2/pull/495" xlink:title="zcash/halo2#495&#10;halo2_proofs: rename&#10;variables for consistency" target="_blank">
<polygon fill="#c2e0c6" stroke="#000000" stroke-width="2" points="205.5,-379.5 9.5,-379.5 9.5,-375.5 5.5,-375.5 5.5,-371.5 9.5,-371.5 9.5,-334.5 5.5,-334.5 5.5,-330.5 9.5,-330.5 9.5,-326.5 205.5,-326.5 205.5,-379.5"/>
<polyline fill="none" stroke="#000000" stroke-width="2" points="9.5,-375.5 13.5,-375.5 13.5,-371.5 9.5,-371.5 "/>
<polyline fill="none" stroke="#000000" stroke-width="2" points="9.5,-334.5 13.5,-334.5 13.5,-330.5 9.5,-330.5 "/>
<text text-anchor="middle" x="107.5" y="-364.3" font-family="Times,serif" font-size="14.00" fill="#000000">zcash/halo2#495</text>
<text text-anchor="middle" x="107.5" y="-349.3" font-family="Times,serif" font-size="14.00" fill="#000000">halo2_proofs: rename</text>
<text text-anchor="middle" x="107.5" y="-334.3" font-family="Times,serif" font-size="14.00" fill="#000000">variables for consistency</text>
</a>
</g>
</g>
<!-- zcash/halo2#495&#45;&gt;zcash/halo2#404 -->
<g id="edge7" class="edge">
<title>zcash/halo2#495&#45;&gt;zcash/halo2#404</title>
<path fill="none" stroke="#000000" d="M205.68,-353C224.75,-353 244.73,-353 263.76,-353"/>
<polygon fill="#000000" stroke="#000000" points="263.91,-356.5001 273.91,-353 263.91,-349.5001 263.91,-356.5001"/>
</g>
<!-- zcash/halo2#75 -->
<g id="node9" class="node open">
<title>zcash/halo2#75</title>
<g id="a_node9"><a xlink:href="https://github.com/zcash/halo2/issues/75" xlink:title="zcash/halo2#75&#10;Implement support for&#10;recursion" target="_blank">
<polygon fill="#c2e0c6" stroke="#000000" points="1423.5,-624.5 1244.5,-624.5 1244.5,-571.5 1423.5,-571.5 1423.5,-624.5"/>
<text text-anchor="middle" x="1334" y="-609.3" font-family="Times,serif" font-size="14.00" fill="#000000">zcash/halo2#75</text>
<text text-anchor="middle" x="1334" y="-594.3" font-family="Times,serif" font-size="14.00" fill="#000000">Implement support for</text>
<text text-anchor="middle" x="1334" y="-579.3" font-family="Times,serif" font-size="14.00" fill="#000000">recursion</text>
</a>
</g>
</g>
<!-- zcash/halo2#494 -->
<g id="node10" class="node open">
<title>zcash/halo2#494</title>
<g id="a_node10"><a xlink:href="https://github.com/zcash/halo2/issues/494" xlink:title="zcash/halo2#494&#10;Consider adding an API&#10;that enables application&#10;circuits to be built&#10;across both fields" target="_blank">
<polygon fill="#c2e0c6" stroke="#000000" points="1666,-639.5 1477,-639.5 1477,-556.5 1666,-556.5 1666,-639.5"/>
<text text-anchor="middle" x="1571.5" y="-624.3" font-family="Times,serif" font-size="14.00" fill="#000000">zcash/halo2#494</text>
<text text-anchor="middle" x="1571.5" y="-609.3" font-family="Times,serif" font-size="14.00" fill="#000000">Consider adding an API</text>
<text text-anchor="middle" x="1571.5" y="-594.3" font-family="Times,serif" font-size="14.00" fill="#000000">that enables application</text>
<text text-anchor="middle" x="1571.5" y="-579.3" font-family="Times,serif" font-size="14.00" fill="#000000">circuits to be built</text>
<text text-anchor="middle" x="1571.5" y="-564.3" font-family="Times,serif" font-size="14.00" fill="#000000">across both fields</text>
</a>
</g>
</g>
<!-- zcash/halo2#75&#45;&gt;zcash/halo2#494 -->
<g id="edge8" class="edge">
<title>zcash/halo2#75&#45;&gt;zcash/halo2#494</title>
<path fill="none" stroke="#000000" d="M1423.8,-598C1437.7,-598 1452.3,-598 1466.5,-598"/>
<polygon fill="#000000" stroke="#000000" points="1466.8,-601.5001 1476.8,-598 1466.8,-594.5001 1466.8,-601.5001"/>
</g>
<!-- zcash/halo2#79 -->
<g id="node11" class="node open">
<title>zcash/halo2#79</title>
<g id="a_node11"><a xlink:href="https://github.com/zcash/halo2/issues/79" xlink:title="zcash/halo2#79&#10;Migrate Rescue and&#10;Poseidon gadgets to&#10;algebraic hash&#10;abstraction" target="_blank">
<polygon fill="#c2e0c6" stroke="#000000" points="1166.5,-906.5 1005.5,-906.5 1005.5,-823.5 1166.5,-823.5 1166.5,-906.5"/>
<text text-anchor="middle" x="1086" y="-891.3" font-family="Times,serif" font-size="14.00" fill="#000000">zcash/halo2#79</text>
<text text-anchor="middle" x="1086" y="-876.3" font-family="Times,serif" font-size="14.00" fill="#000000">Migrate Rescue and</text>
<text text-anchor="middle" x="1086" y="-861.3" font-family="Times,serif" font-size="14.00" fill="#000000">Poseidon gadgets to</text>
<text text-anchor="middle" x="1086" y="-846.3" font-family="Times,serif" font-size="14.00" fill="#000000">algebraic hash</text>
<text text-anchor="middle" x="1086" y="-831.3" font-family="Times,serif" font-size="14.00" fill="#000000">abstraction</text>
</a>
</g>
</g>
<!-- zcash/halo2#78 -->
<g id="node12" class="node open">
<title>zcash/halo2#78</title>
<g id="a_node12"><a xlink:href="https://github.com/zcash/halo2/issues/78" xlink:title="zcash/halo2#78&#10;Implement algebraic hash&#10;/ random oracle&#10;abstraction gadget" target="_blank">
<polygon fill="#c2e0c6" stroke="#000000" stroke-width="2" points="944,-899 740,-899 740,-831 944,-831 944,-899"/>
<text text-anchor="middle" x="842" y="-883.8" font-family="Times,serif" font-size="14.00" fill="#000000">zcash/halo2#78</text>
<text text-anchor="middle" x="842" y="-868.8" font-family="Times,serif" font-size="14.00" fill="#000000">Implement algebraic hash</text>
<text text-anchor="middle" x="842" y="-853.8" font-family="Times,serif" font-size="14.00" fill="#000000">/ random oracle</text>
<text text-anchor="middle" x="842" y="-838.8" font-family="Times,serif" font-size="14.00" fill="#000000">abstraction gadget</text>
</a>
</g>
</g>
<!-- zcash/halo2#78&#45;&gt;zcash/halo2#79 -->
<g id="edge9" class="edge">
<title>zcash/halo2#78&#45;&gt;zcash/halo2#79</title>
<path fill="none" stroke="#000000" d="M944.06,-865C961.04,-865 978.55,-865 995.23,-865"/>
<polygon fill="#000000" stroke="#000000" points="995.5,-868.5001 1005.5,-865 995.5,-861.5001 995.5,-868.5001"/>
</g>
<!-- zcash/halo2#250 -->
<g id="node13" class="node open">
<title>zcash/halo2#250</title>
<g id="a_node13"><a xlink:href="https://github.com/zcash/halo2/issues/250" xlink:title="zcash/halo2#250&#10;Implement the logic for&#10;the IVC verifier circuit" target="_blank">
<polygon fill="#c2e0c6" stroke="#000000" points="1179,-686.5 993,-686.5 993,-633.5 1179,-633.5 1179,-686.5"/>
<text text-anchor="middle" x="1086" y="-671.3" font-family="Times,serif" font-size="14.00" fill="#000000">zcash/halo2#250</text>
<text text-anchor="middle" x="1086" y="-656.3" font-family="Times,serif" font-size="14.00" fill="#000000">Implement the logic for</text>
<text text-anchor="middle" x="1086" y="-641.3" font-family="Times,serif" font-size="14.00" fill="#000000">the IVC verifier circuit</text>
</a>
</g>
</g>
<!-- zcash/halo2#78&#45;&gt;zcash/halo2#250 -->
<g id="edge10" class="edge">
<title>zcash/halo2#78&#45;&gt;zcash/halo2#250</title>
<path fill="none" stroke="#000000" d="M931.1,-830.99C935.93,-828.17 940.6,-825.17 945,-822 994.13,-786.55 1037.7,-730.85 1063,-694.87"/>
<polygon fill="#000000" stroke="#000000" points="1065.8952,-696.8368 1068.7,-686.62 1060.1361,-692.8578 1065.8952,-696.8368"/>
</g>
<!-- zcash/halo2#250&#45;&gt;zcash/halo2#75 -->
<g id="edge11" class="edge">
<title>zcash/halo2#250&#45;&gt;zcash/halo2#75</title>
<path fill="none" stroke="#000000" d="M1179.1,-636.74C1197.1,-632.22 1216.1,-627.47 1234.4,-622.91"/>
<polygon fill="#000000" stroke="#000000" points="1235.256,-626.3038 1244.1,-620.47 1233.5483,-619.5153 1235.256,-626.3038"/>
</g>
<!-- zcash/halo2#57 -->
<g id="node14" class="node open">
<title>zcash/halo2#57</title>
<g id="a_node14"><a xlink:href="https://github.com/zcash/halo2/issues/57" xlink:title="zcash/halo2#57&#10;Remove unused&#10;fixed_values from&#10;ProvingKey" target="_blank">
<polygon fill="#c2e0c6" stroke="#000000" stroke-width="2" points="179,-678 36,-678 36,-610 179,-610 179,-678"/>
<text text-anchor="middle" x="107.5" y="-662.8" font-family="Times,serif" font-size="14.00" fill="#000000">zcash/halo2#57</text>
<text text-anchor="middle" x="107.5" y="-647.8" font-family="Times,serif" font-size="14.00" fill="#000000">Remove unused</text>
<text text-anchor="middle" x="107.5" y="-632.8" font-family="Times,serif" font-size="14.00" fill="#000000">fixed_values from</text>
<text text-anchor="middle" x="107.5" y="-617.8" font-family="Times,serif" font-size="14.00" fill="#000000">ProvingKey</text>
</a>
</g>
</g>
<!-- zcash/halo2#443 -->
<g id="node15" class="node open">
<title>zcash/halo2#443</title>
<g id="a_node15"><a xlink:href="https://github.com/zcash/halo2/issues/443" xlink:title="zcash/halo2#443&#10;implement `read` &amp;&#10;`write` for `halo2::plonk&#10;::ProvingKey`" target="_blank">
<polygon fill="#c2e0c6" stroke="#000000" points="457.5,-678 263.5,-678 263.5,-610 457.5,-610 457.5,-678"/>
<text text-anchor="middle" x="360.5" y="-662.8" font-family="Times,serif" font-size="14.00" fill="#000000">zcash/halo2#443</text>
<text text-anchor="middle" x="360.5" y="-647.8" font-family="Times,serif" font-size="14.00" fill="#000000">implement `read` &amp;</text>
<text text-anchor="middle" x="360.5" y="-632.8" font-family="Times,serif" font-size="14.00" fill="#000000">`write` for `halo2::plonk</text>
<text text-anchor="middle" x="360.5" y="-617.8" font-family="Times,serif" font-size="14.00" fill="#000000">::ProvingKey`</text>
</a>
</g>
</g>
<!-- zcash/halo2#57&#45;&gt;zcash/halo2#443 -->
<g id="edge12" class="edge">
<title>zcash/halo2#57&#45;&gt;zcash/halo2#443</title>
<path fill="none" stroke="#000000" d="M179.32,-644C202.31,-644 228.27,-644 253.22,-644"/>
<polygon fill="#000000" stroke="#000000" points="253.46,-647.5001 263.46,-644 253.46,-640.5001 253.46,-647.5001"/>
</g>
<!-- zcash/halo2#482 -->
<g id="node16" class="node open">
<title>zcash/halo2#482</title>
<g id="a_node16"><a xlink:href="https://github.com/zcash/halo2/issues/482" xlink:title="zcash/halo2#482&#10;Raise MSRV to 1.56.1" target="_blank">
<polygon fill="#c2e0c6" stroke="#000000" stroke-width="2" points="194,-734 21,-734 21,-696 194,-696 194,-734"/>
<text text-anchor="middle" x="107.5" y="-718.8" font-family="Times,serif" font-size="14.00" fill="#000000">zcash/halo2#482</text>
<text text-anchor="middle" x="107.5" y="-703.8" font-family="Times,serif" font-size="14.00" fill="#000000">Raise MSRV to 1.56.1</text>
</a>
</g>
</g>
<!-- zcash/halo2#483 -->
<g id="node17" class="node open">
<title>zcash/halo2#483</title>
<g id="a_node17"><a xlink:href="https://github.com/zcash/halo2/issues/483" xlink:title="zcash/halo2#483&#10;Refactor variable&#45;base&#10;scalar mul to distinguish&#10;the &quot;base field element&quot;&#10;case" target="_blank">
<polygon fill="#c2e0c6" stroke="#000000" stroke-width="2" points="701.5,-313.5 507.5,-313.5 507.5,-230.5 701.5,-230.5 701.5,-313.5"/>
<text text-anchor="middle" x="604.5" y="-298.3" font-family="Times,serif" font-size="14.00" fill="#000000">zcash/halo2#483</text>
<text text-anchor="middle" x="604.5" y="-283.3" font-family="Times,serif" font-size="14.00" fill="#000000">Refactor variable&#45;base</text>
<text text-anchor="middle" x="604.5" y="-268.3" font-family="Times,serif" font-size="14.00" fill="#000000">scalar mul to distinguish</text>
<text text-anchor="middle" x="604.5" y="-253.3" font-family="Times,serif" font-size="14.00" fill="#000000">the &quot;base field element&quot;</text>
<text text-anchor="middle" x="604.5" y="-238.3" font-family="Times,serif" font-size="14.00" fill="#000000">case</text>
</a>
</g>
</g>
<!-- zcash/halo2#483&#45;&gt;zcash/halo2#460 -->
<g id="edge13" class="edge">
<title>zcash/halo2#483&#45;&gt;zcash/halo2#460</title>
<path fill="none" stroke="#000000" d="M701.79,-272C714.1,-272 726.72,-272 739.12,-272"/>
<polygon fill="#000000" stroke="#000000" points="739.46,-275.5001 749.46,-272 739.46,-268.5001 739.46,-275.5001"/>
</g>
<!-- zcash/halo2#420 -->
<g id="node18" class="node open">
<title>zcash/halo2#420</title>
<g id="a_node18"><a xlink:href="https://github.com/zcash/halo2/issues/420" xlink:title="zcash/halo2#420&#10;CI: Measure memory&#45;usage&#10;benchmarks" target="_blank">
<polygon fill="#c2e0c6" stroke="#000000" stroke-width="2" points="215,-805.5 0,-805.5 0,-752.5 215,-752.5 215,-805.5"/>
<text text-anchor="middle" x="107.5" y="-790.3" font-family="Times,serif" font-size="14.00" fill="#000000">zcash/halo2#420</text>
<text text-anchor="middle" x="107.5" y="-775.3" font-family="Times,serif" font-size="14.00" fill="#000000">CI: Measure memory&#45;usage</text>
<text text-anchor="middle" x="107.5" y="-760.3" font-family="Times,serif" font-size="14.00" fill="#000000">benchmarks</text>
</a>
</g>
</g>
<!-- zcash/halo2#418 -->
<g id="node19" class="node open">
<title>zcash/halo2#418</title>
<g id="a_node19"><a xlink:href="https://github.com/zcash/halo2/issues/418" xlink:title="zcash/halo2#418&#10;[memory optimization]&#10;lookup prover memory&#10;analysis" target="_blank">
<polygon fill="#c2e0c6" stroke="#000000" points="450,-813 271,-813 271,-745 450,-745 450,-813"/>
<text text-anchor="middle" x="360.5" y="-797.8" font-family="Times,serif" font-size="14.00" fill="#000000">zcash/halo2#418</text>
<text text-anchor="middle" x="360.5" y="-782.8" font-family="Times,serif" font-size="14.00" fill="#000000">[memory optimization]</text>
<text text-anchor="middle" x="360.5" y="-767.8" font-family="Times,serif" font-size="14.00" fill="#000000">lookup prover memory</text>
<text text-anchor="middle" x="360.5" y="-752.8" font-family="Times,serif" font-size="14.00" fill="#000000">analysis</text>
</a>
</g>
</g>
<!-- zcash/halo2#420&#45;&gt;zcash/halo2#418 -->
<g id="edge14" class="edge">
<title>zcash/halo2#420&#45;&gt;zcash/halo2#418</title>
<path fill="none" stroke="#000000" d="M215.16,-779C230.24,-779 245.69,-779 260.61,-779"/>
<polygon fill="#000000" stroke="#000000" points="260.86,-782.5001 270.86,-779 260.86,-775.5001 260.86,-782.5001"/>
</g>
<!-- zcash/halo2#425 -->
<g id="node20" class="node open">
<title>zcash/halo2#425</title>
<g id="a_node20"><a xlink:href="https://github.com/zcash/halo2/issues/425" xlink:title="zcash/halo2#425&#10;Make `Assigned&lt;F: Field&gt;`&#10;easier to use" target="_blank">
<polygon fill="#c2e0c6" stroke="#000000" stroke-width="2" points="470,-297.5 251,-297.5 251,-244.5 470,-244.5 470,-297.5"/>
<text text-anchor="middle" x="360.5" y="-282.3" font-family="Times,serif" font-size="14.00" fill="#000000">zcash/halo2#425</text>
<text text-anchor="middle" x="360.5" y="-267.3" font-family="Times,serif" font-size="14.00" fill="#000000">Make `Assigned&lt;F: Field&gt;`</text>
<text text-anchor="middle" x="360.5" y="-252.3" font-family="Times,serif" font-size="14.00" fill="#000000">easier to use</text>
</a>
</g>
</g>
<!-- zcash/halo2#425&#45;&gt;zcash/halo2#426 -->
<g id="edge15" class="edge">
<title>zcash/halo2#425&#45;&gt;zcash/halo2#426</title>
<path fill="none" stroke="#000000" d="M442.88,-244.44C452.05,-241.33 461.24,-238.14 470,-235 486.16,-229.21 489.91,-226.99 506,-221 510.44,-219.35 515.01,-217.67 519.62,-215.98"/>
<polygon fill="#000000" stroke="#000000" points="520.9231,-219.2305 529.13,-212.53 518.5358,-212.6502 520.9231,-219.2305"/>
</g>
<!-- zcash/halo2#427 -->
<g id="node21" class="node open">
<title>zcash/halo2#427</title>
<g id="a_node21"><a xlink:href="https://github.com/zcash/halo2/issues/427" xlink:title="zcash/halo2#427&#10;Use smaller extended&#10;domains where possible&#10;during proving" target="_blank">
<polygon fill="#c2e0c6" stroke="#000000" stroke-width="2" points="201.5,-892 13.5,-892 13.5,-824 201.5,-824 201.5,-892"/>
<text text-anchor="middle" x="107.5" y="-876.8" font-family="Times,serif" font-size="14.00" fill="#000000">zcash/halo2#427</text>
<text text-anchor="middle" x="107.5" y="-861.8" font-family="Times,serif" font-size="14.00" fill="#000000">Use smaller extended</text>
<text text-anchor="middle" x="107.5" y="-846.8" font-family="Times,serif" font-size="14.00" fill="#000000">domains where possible</text>
<text text-anchor="middle" x="107.5" y="-831.8" font-family="Times,serif" font-size="14.00" fill="#000000">during proving</text>
</a>
</g>
</g>
<!-- zcash/halo2#456 -->
<g id="node22" class="node open">
<title>zcash/halo2#456</title>
<g id="a_node22"><a xlink:href="https://github.com/zcash/halo2/issues/456" xlink:title="zcash/halo2#456&#10;Benchmark `sha256`&#10;gadget." target="_blank">
<polygon fill="#c2e0c6" stroke="#000000" stroke-width="2" points="192.5,-963.5 22.5,-963.5 22.5,-910.5 192.5,-910.5 192.5,-963.5"/>
<text text-anchor="middle" x="107.5" y="-948.3" font-family="Times,serif" font-size="14.00" fill="#000000">zcash/halo2#456</text>
<text text-anchor="middle" x="107.5" y="-933.3" font-family="Times,serif" font-size="14.00" fill="#000000">Benchmark `sha256`</text>
<text text-anchor="middle" x="107.5" y="-918.3" font-family="Times,serif" font-size="14.00" fill="#000000">gadget.</text>
</a>
</g>
</g>
<!-- zcash/halo2#455 -->
<g id="node23" class="node open">
<title>zcash/halo2#455</title>
<g id="a_node23"><a xlink:href="https://github.com/zcash/halo2/issues/455" xlink:title="zcash/halo2#455&#10;[Book] add description of&#10;Poseidon gadget and chip" target="_blank">
<polygon fill="#c2e0c6" stroke="#000000" stroke-width="2" points="207.5,-1034.5 7.5,-1034.5 7.5,-981.5 207.5,-981.5 207.5,-1034.5"/>
<text text-anchor="middle" x="107.5" y="-1019.3" font-family="Times,serif" font-size="14.00" fill="#000000">zcash/halo2#455</text>
<text text-anchor="middle" x="107.5" y="-1004.3" font-family="Times,serif" font-size="14.00" fill="#000000">[Book] add description of</text>
<text text-anchor="middle" x="107.5" y="-989.3" font-family="Times,serif" font-size="14.00" fill="#000000">Poseidon gadget and chip</text>
</a>
</g>
</g>
<!-- zcash/halo2#251 -->
<g id="node24" class="node open">
<title>zcash/halo2#251</title>
<g id="a_node24"><a xlink:href="https://github.com/zcash/halo2/issues/251" xlink:title="zcash/halo2#251&#10;Implement user&#45;facing API&#10;for recursive proving of&#10;IVC" target="_blank">
<polygon fill="#c2e0c6" stroke="#000000" points="1191,-569 981,-569 981,-501 1191,-501 1191,-569"/>
<text text-anchor="middle" x="1086" y="-553.8" font-family="Times,serif" font-size="14.00" fill="#000000">zcash/halo2#251</text>
<text text-anchor="middle" x="1086" y="-538.8" font-family="Times,serif" font-size="14.00" fill="#000000">Implement user&#45;facing API</text>
<text text-anchor="middle" x="1086" y="-523.8" font-family="Times,serif" font-size="14.00" fill="#000000">for recursive proving of</text>
<text text-anchor="middle" x="1086" y="-508.8" font-family="Times,serif" font-size="14.00" fill="#000000">IVC</text>
</a>
</g>
</g>
<!-- zcash/halo2#251&#45;&gt;zcash/halo2#75 -->
<g id="edge16" class="edge">
<title>zcash/halo2#251&#45;&gt;zcash/halo2#75</title>
<path fill="none" stroke="#000000" d="M1191.2,-561.72C1205.5,-565.37 1220.3,-569.11 1234.5,-572.73"/>
<polygon fill="#000000" stroke="#000000" points="1233.746,-576.1496 1244.3,-575.22 1235.4699,-569.3651 1233.746,-576.1496"/>
</g>
<!-- zcash/halo2#437 -->
<g id="node25" class="node open">
<title>zcash/halo2#437</title>
<g id="a_node25"><a xlink:href="https://github.com/zcash/halo2/issues/437" xlink:title="zcash/halo2#437&#10;Amend user&#45;facing API to&#10;work for both IVC and PCD" target="_blank">
<polygon fill="#c2e0c6" stroke="#000000" points="1441,-530.5 1227,-530.5 1227,-477.5 1441,-477.5 1441,-530.5"/>
<text text-anchor="middle" x="1334" y="-515.3" font-family="Times,serif" font-size="14.00" fill="#000000">zcash/halo2#437</text>
<text text-anchor="middle" x="1334" y="-500.3" font-family="Times,serif" font-size="14.00" fill="#000000">Amend user&#45;facing API to</text>
<text text-anchor="middle" x="1334" y="-485.3" font-family="Times,serif" font-size="14.00" fill="#000000">work for both IVC and PCD</text>
</a>
</g>
</g>
<!-- zcash/halo2#251&#45;&gt;zcash/halo2#437 -->
<g id="edge17" class="edge">
<title>zcash/halo2#251&#45;&gt;zcash/halo2#437</title>
<path fill="none" stroke="#000000" d="M1191.2,-521.85C1199.6,-520.8 1208.2,-519.73 1216.7,-518.66"/>
<polygon fill="#000000" stroke="#000000" points="1217.2114,-522.1234 1226.7,-517.41 1216.3431,-515.1775 1217.2114,-522.1234"/>
</g>
<!-- zcash/halo2#436 -->
<g id="node26" class="node open">
<title>zcash/halo2#436</title>
<g id="a_node26"><a xlink:href="https://github.com/zcash/halo2/issues/436" xlink:title="zcash/halo2#436&#10;Implement mock&#10;verification circuit for&#10;PCD" target="_blank">
<polygon fill="#c2e0c6" stroke="#000000" points="692,-471 517,-471 517,-403 692,-403 692,-471"/>
<text text-anchor="middle" x="604.5" y="-455.8" font-family="Times,serif" font-size="14.00" fill="#000000">zcash/halo2#436</text>
<text text-anchor="middle" x="604.5" y="-440.8" font-family="Times,serif" font-size="14.00" fill="#000000">Implement mock</text>
<text text-anchor="middle" x="604.5" y="-425.8" font-family="Times,serif" font-size="14.00" fill="#000000">verification circuit for</text>
<text text-anchor="middle" x="604.5" y="-410.8" font-family="Times,serif" font-size="14.00" fill="#000000">PCD</text>
</a>
</g>
</g>
<!-- zcash/halo2#436&#45;&gt;zcash/halo2#437 -->
<g id="edge18" class="edge">
<title>zcash/halo2#436&#45;&gt;zcash/halo2#437</title>
<path fill="none" stroke="#000000" d="M692.36,-447.87C707.89,-449.67 723.91,-451.46 739,-453 785.08,-457.71 1056.8,-480.7 1216.6,-494.15"/>
<polygon fill="#000000" stroke="#000000" points="1216.743,-497.6741 1227,-495.02 1217.3266,-490.6985 1216.743,-497.6741"/>
</g>
<!-- zcash/halo2#438 -->
<g id="node27" class="node open">
<title>zcash/halo2#438</title>
<g id="a_node27"><a xlink:href="https://github.com/zcash/halo2/issues/438" xlink:title="zcash/halo2#438&#10;Implement the logic for&#10;the PCD verifier circuit" target="_blank">
<polygon fill="#c2e0c6" stroke="#000000" points="935,-444.5 749,-444.5 749,-391.5 935,-391.5 935,-444.5"/>
<text text-anchor="middle" x="842" y="-429.3" font-family="Times,serif" font-size="14.00" fill="#000000">zcash/halo2#438</text>
<text text-anchor="middle" x="842" y="-414.3" font-family="Times,serif" font-size="14.00" fill="#000000">Implement the logic for</text>
<text text-anchor="middle" x="842" y="-399.3" font-family="Times,serif" font-size="14.00" fill="#000000">the PCD verifier circuit</text>
</a>
</g>
</g>
<!-- zcash/halo2#436&#45;&gt;zcash/halo2#438 -->
<g id="edge19" class="edge">
<title>zcash/halo2#436&#45;&gt;zcash/halo2#438</title>
<path fill="none" stroke="#000000" d="M692.26,-429.98C707.33,-428.77 723.11,-427.51 738.54,-426.28"/>
<polygon fill="#000000" stroke="#000000" points="738.9325,-429.7598 748.62,-425.47 738.3718,-422.7823 738.9325,-429.7598"/>
</g>
<!-- zcash/halo2#435 -->
<g id="node28" class="node open">
<title>zcash/halo2#435</title>
<g id="a_node28"><a xlink:href="https://github.com/zcash/halo2/issues/435" xlink:title="zcash/halo2#435&#10;Implement mock&#10;verification circuit for&#10;IVC" target="_blank">
<polygon fill="#c2e0c6" stroke="#000000" points="692,-629 517,-629 517,-561 692,-561 692,-629"/>
<text text-anchor="middle" x="604.5" y="-613.8" font-family="Times,serif" font-size="14.00" fill="#000000">zcash/halo2#435</text>
<text text-anchor="middle" x="604.5" y="-598.8" font-family="Times,serif" font-size="14.00" fill="#000000">Implement mock</text>
<text text-anchor="middle" x="604.5" y="-583.8" font-family="Times,serif" font-size="14.00" fill="#000000">verification circuit for</text>
<text text-anchor="middle" x="604.5" y="-568.8" font-family="Times,serif" font-size="14.00" fill="#000000">IVC</text>
</a>
</g>
</g>
<!-- zcash/halo2#247 -->
<g id="node29" class="node open">
<title>zcash/halo2#247</title>
<g id="a_node29"><a xlink:href="https://github.com/zcash/halo2/issues/247" xlink:title="zcash/halo2#247&#10;Implement underlying&#10;scaffolding for creating&#10;the IVC proof cycle" target="_blank">
<polygon fill="#c2e0c6" stroke="#000000" points="934.5,-569 749.5,-569 749.5,-501 934.5,-501 934.5,-569"/>
<text text-anchor="middle" x="842" y="-553.8" font-family="Times,serif" font-size="14.00" fill="#000000">zcash/halo2#247</text>
<text text-anchor="middle" x="842" y="-538.8" font-family="Times,serif" font-size="14.00" fill="#000000">Implement underlying</text>
<text text-anchor="middle" x="842" y="-523.8" font-family="Times,serif" font-size="14.00" fill="#000000">scaffolding for creating</text>
<text text-anchor="middle" x="842" y="-508.8" font-family="Times,serif" font-size="14.00" fill="#000000">the IVC proof cycle</text>
</a>
</g>
</g>
<!-- zcash/halo2#435&#45;&gt;zcash/halo2#247 -->
<g id="edge20" class="edge">
<title>zcash/halo2#435&#45;&gt;zcash/halo2#247</title>
<path fill="none" stroke="#000000" d="M692.26,-572.83C707.69,-568.93 723.87,-564.84 739.66,-560.86"/>
<polygon fill="#000000" stroke="#000000" points="740.5843,-564.2365 749.42,-558.39 738.8669,-557.4504 740.5843,-564.2365"/>
</g>
<!-- zcash/halo2#247&#45;&gt;zcash/halo2#250 -->
<g id="edge21" class="edge">
<title>zcash/halo2#247&#45;&gt;zcash/halo2#250</title>
<path fill="none" stroke="#000000" d="M926.17,-569.06C932.59,-571.99 938.93,-574.98 945,-578 975.53,-593.17 1008.5,-612.21 1034.9,-628.12"/>
<polygon fill="#000000" stroke="#000000" points="1033.2316,-631.2012 1043.6,-633.38 1036.8533,-625.211 1033.2316,-631.2012"/>
</g>
<!-- zcash/halo2#247&#45;&gt;zcash/halo2#251 -->
<g id="edge22" class="edge">
<title>zcash/halo2#247&#45;&gt;zcash/halo2#251</title>
<path fill="none" stroke="#000000" d="M934.59,-535C946.39,-535 958.58,-535 970.68,-535"/>
<polygon fill="#000000" stroke="#000000" points="970.81,-538.5001 980.81,-535 970.81,-531.5001 970.81,-538.5001"/>
</g>
<!-- zcash/halo2#246 -->
<g id="node30" class="node open">
<title>zcash/halo2#246</title>
<g id="a_node30"><a xlink:href="https://github.com/zcash/halo2/issues/246" xlink:title="zcash/halo2#246&#10;Create recursive proof&#10;structures" target="_blank">
<polygon fill="#c2e0c6" stroke="#000000" points="450,-591.5 271,-591.5 271,-538.5 450,-538.5 450,-591.5"/>
<text text-anchor="middle" x="360.5" y="-576.3" font-family="Times,serif" font-size="14.00" fill="#000000">zcash/halo2#246</text>
<text text-anchor="middle" x="360.5" y="-561.3" font-family="Times,serif" font-size="14.00" fill="#000000">Create recursive proof</text>
<text text-anchor="middle" x="360.5" y="-546.3" font-family="Times,serif" font-size="14.00" fill="#000000">structures</text>
</a>
</g>
</g>
<!-- zcash/halo2#246&#45;&gt;zcash/halo2#436 -->
<g id="edge23" class="edge">
<title>zcash/halo2#246&#45;&gt;zcash/halo2#436</title>
<path fill="none" stroke="#000000" d="M403.06,-538.36C431.68,-520.89 470.53,-498.02 506,-480 508.95,-478.5 511.97,-477 515.03,-475.51"/>
<polygon fill="#000000" stroke="#000000" points="516.793,-478.5464 524.3,-471.07 513.7692,-472.2332 516.793,-478.5464"/>
</g>
<!-- zcash/halo2#246&#45;&gt;zcash/halo2#435 -->
<g id="edge24" class="edge">
<title>zcash/halo2#246&#45;&gt;zcash/halo2#435</title>
<path fill="none" stroke="#000000" d="M450.32,-576.04C468.75,-578.31 488.23,-580.7 506.92,-583"/>
<polygon fill="#000000" stroke="#000000" points="506.5572,-586.4817 516.91,-584.23 507.4127,-579.5341 506.5572,-586.4817"/>
</g>
<!-- zcash/halo2#439 -->
<g id="node31" class="node open">
<title>zcash/halo2#439</title>
<g id="a_node31"><a xlink:href="https://github.com/zcash/halo2/issues/439" xlink:title="zcash/halo2#439&#10;Support split&#10;accumulation in Halo 2" target="_blank">
<polygon fill="#c2e0c6" stroke="#000000" stroke-width="2" points="199,-591.5 16,-591.5 16,-538.5 199,-538.5 199,-591.5"/>
<text text-anchor="middle" x="107.5" y="-576.3" font-family="Times,serif" font-size="14.00" fill="#000000">zcash/halo2#439</text>
<text text-anchor="middle" x="107.5" y="-561.3" font-family="Times,serif" font-size="14.00" fill="#000000">Support split</text>
<text text-anchor="middle" x="107.5" y="-546.3" font-family="Times,serif" font-size="14.00" fill="#000000">accumulation in Halo 2</text>
</a>
</g>
</g>
<!-- zcash/halo2#439&#45;&gt;zcash/halo2#246 -->
<g id="edge25" class="edge">
<title>zcash/halo2#439&#45;&gt;zcash/halo2#246</title>
<path fill="none" stroke="#000000" d="M199.2,-565C219.16,-565 240.37,-565 260.63,-565"/>
<polygon fill="#000000" stroke="#000000" points="260.81,-568.5001 270.81,-565 260.81,-561.5001 260.81,-568.5001"/>
</g>
<!-- zcash/halo2#359 -->
<g id="node32" class="node open">
<title>zcash/halo2#359</title>
<g id="a_node32"><a xlink:href="https://github.com/zcash/halo2/issues/359" xlink:title="zcash/halo2#359&#10;Set up `BaseTranscript`,&#10;`ScalarTranscript`" target="_blank">
<polygon fill="#c2e0c6" stroke="#000000" stroke-width="2" points="703,-542.5 506,-542.5 506,-489.5 703,-489.5 703,-542.5"/>
<text text-anchor="middle" x="604.5" y="-527.3" font-family="Times,serif" font-size="14.00" fill="#000000">zcash/halo2#359</text>
<text text-anchor="middle" x="604.5" y="-512.3" font-family="Times,serif" font-size="14.00" fill="#000000">Set up `BaseTranscript`,</text>
<text text-anchor="middle" x="604.5" y="-497.3" font-family="Times,serif" font-size="14.00" fill="#000000">`ScalarTranscript`</text>
</a>
</g>
</g>
<!-- zcash/halo2#359&#45;&gt;zcash/halo2#247 -->
<g id="edge26" class="edge">
<title>zcash/halo2#359&#45;&gt;zcash/halo2#247</title>
<path fill="none" stroke="#000000" d="M703.16,-523.89C715.11,-524.85 727.33,-525.83 739.34,-526.79"/>
<polygon fill="#000000" stroke="#000000" points="739.1131,-530.2829 749.36,-527.59 739.6703,-523.3051 739.1131,-530.2829"/>
</g>
<!-- zcash/halo2#249 -->
<g id="node33" class="node committed">
<title>zcash/halo2#249</title>
<g id="a_node33"><a xlink:href="https://github.com/zcash/halo2/issues/249" xlink:title="zcash/halo2#249&#10;Implement recursion&#10;circuit logic for&#10;handling public inputs" target="_blank">
<polygon fill="#a6cfff" stroke="#000000" stroke-width="2" points="930.5,-813 753.5,-813 753.5,-745 930.5,-745 930.5,-813"/>
<text text-anchor="middle" x="842" y="-797.8" font-family="Times,serif" font-size="14.00" fill="#000000">zcash/halo2#249</text>
<text text-anchor="middle" x="842" y="-782.8" font-family="Times,serif" font-size="14.00" fill="#000000">Implement recursion</text>
<text text-anchor="middle" x="842" y="-767.8" font-family="Times,serif" font-size="14.00" fill="#000000">circuit logic for</text>
<text text-anchor="middle" x="842" y="-752.8" font-family="Times,serif" font-size="14.00" fill="#000000">handling public inputs</text>
</a>
</g>
</g>
<!-- zcash/halo2#249&#45;&gt;zcash/halo2#250 -->
<g id="edge27" class="edge">
<title>zcash/halo2#249&#45;&gt;zcash/halo2#250</title>
<path fill="none" stroke="#000000" d="M925.51,-744.96C932.14,-742.01 938.7,-739 945,-736 973.74,-722.3 1005,-705.65 1030.7,-691.43"/>
<polygon fill="#000000" stroke="#000000" points="1032.5416,-694.4112 1039.6,-686.51 1029.1549,-688.285 1032.5416,-694.4112"/>
</g>
<!-- zcash/halo2#449 -->
<g id="node34" class="node open">
<title>zcash/halo2#449</title>
<g id="a_node34"><a xlink:href="https://github.com/zcash/halo2/issues/449" xlink:title="zcash/halo2#449&#10;`VerifyingKey`&#10;serialization is not&#10;round&#45;trip compatible" target="_blank">
<polygon fill="#c2e0c6" stroke="#000000" stroke-width="2" points="447,-226 274,-226 274,-158 447,-158 447,-226"/>
<text text-anchor="middle" x="360.5" y="-210.8" font-family="Times,serif" font-size="14.00" fill="#000000">zcash/halo2#449</text>
<text text-anchor="middle" x="360.5" y="-195.8" font-family="Times,serif" font-size="14.00" fill="#000000">`VerifyingKey`</text>
<text text-anchor="middle" x="360.5" y="-180.8" font-family="Times,serif" font-size="14.00" fill="#000000">serialization is not</text>
<text text-anchor="middle" x="360.5" y="-165.8" font-family="Times,serif" font-size="14.00" fill="#000000">round&#45;trip compatible</text>
</a>
</g>
</g>
<!-- zcash/halo2#449&#45;&gt;zcash/halo2#426 -->
<g id="edge28" class="edge">
<title>zcash/halo2#449&#45;&gt;zcash/halo2#426</title>
<path fill="none" stroke="#000000" d="M447.21,-189.87C466.78,-189.39 487.68,-188.87 507.63,-188.38"/>
<polygon fill="#000000" stroke="#000000" points="507.7466,-191.8783 517.66,-188.14 507.5791,-184.8803 507.7466,-191.8783"/>
</g>
<!-- zcash/halo2#398 -->
<g id="node35" class="node committed">
<title>zcash/halo2#398</title>
<g id="a_node35"><a xlink:href="https://github.com/zcash/halo2/issues/398" xlink:title="zcash/halo2#398&#10;[MockProver] Testing is&#10;slower after #389" target="_blank">
<polygon fill="#a6cfff" stroke="#000000" stroke-width="2" points="455,-139.5 266,-139.5 266,-86.5 455,-86.5 455,-139.5"/>
<text text-anchor="middle" x="360.5" y="-124.3" font-family="Times,serif" font-size="14.00" fill="#000000">zcash/halo2#398</text>
<text text-anchor="middle" x="360.5" y="-109.3" font-family="Times,serif" font-size="14.00" fill="#000000">[MockProver] Testing is</text>
<text text-anchor="middle" x="360.5" y="-94.3" font-family="Times,serif" font-size="14.00" fill="#000000">slower after #389</text>
</a>
</g>
</g>
<!-- zcash/halo2#398&#45;&gt;zcash/halo2#426 -->
<g id="edge29" class="edge">
<title>zcash/halo2#398&#45;&gt;zcash/halo2#426</title>
<path fill="none" stroke="#000000" d="M449.28,-139.56C468.4,-145.28 488.69,-151.35 508.08,-157.15"/>
<polygon fill="#000000" stroke="#000000" points="507.2462,-160.5538 517.83,-160.07 509.2545,-153.8481 507.2462,-160.5538"/>
</g>
<!-- zcash/halo2#480 -->
<g id="node36" class="node open">
<title>zcash/halo2#480</title>
<g id="a_node36"><a xlink:href="https://github.com/zcash/halo2/pull/480" xlink:title="zcash/halo2#480&#10;Add `MockProver::assert_s&#10;atisfied` with pretty&#45;&#10;printed failures" target="_blank">
<polygon fill="#c2e0c6" stroke="#000000" stroke-width="2" points="467,-68 254,-68 254,-64 250,-64 250,-60 254,-60 254,-8 250,-8 250,-4 254,-4 254,0 467,0 467,-68"/>
<polyline fill="none" stroke="#000000" stroke-width="2" points="254,-64 258,-64 258,-60 254,-60 "/>
<polyline fill="none" stroke="#000000" stroke-width="2" points="254,-8 258,-8 258,-4 254,-4 "/>
<text text-anchor="middle" x="360.5" y="-52.8" font-family="Times,serif" font-size="14.00" fill="#000000">zcash/halo2#480</text>
<text text-anchor="middle" x="360.5" y="-37.8" font-family="Times,serif" font-size="14.00" fill="#000000">Add `MockProver::assert_s</text>
<text text-anchor="middle" x="360.5" y="-22.8" font-family="Times,serif" font-size="14.00" fill="#000000">atisfied` with pretty&#45;</text>
<text text-anchor="middle" x="360.5" y="-7.8" font-family="Times,serif" font-size="14.00" fill="#000000">printed failures</text>
</a>
</g>
</g>
<!-- zcash/halo2#480&#45;&gt;zcash/halo2#426 -->
<g id="edge30" class="edge">
<title>zcash/halo2#480&#45;&gt;zcash/halo2#426</title>
<path fill="none" stroke="#000000" d="M453.18,-68.014C458.96,-70.864 464.62,-73.864 470,-77 506.48,-98.257 543.42,-129 569.33,-152.43"/>
<polygon fill="#000000" stroke="#000000" points="567.2645,-155.2835 577.01,-159.44 571.9836,-150.1133 567.2645,-155.2835"/>
</g>
<!-- zcash/halo2#248 -->
<g id="node37" class="node open">
<title>zcash/halo2#248</title>
<g id="a_node37"><a xlink:href="https://github.com/zcash/halo2/issues/248" xlink:title="zcash/halo2#248&#10;Implement endoscaling in&#10;the circuit" target="_blank">
<polygon fill="#c2e0c6" stroke="#000000" stroke-width="2" points="943.5,-726.5 740.5,-726.5 740.5,-673.5 943.5,-673.5 943.5,-726.5"/>
<text text-anchor="middle" x="842" y="-711.3" font-family="Times,serif" font-size="14.00" fill="#000000">zcash/halo2#248</text>
<text text-anchor="middle" x="842" y="-696.3" font-family="Times,serif" font-size="14.00" fill="#000000">Implement endoscaling in</text>
<text text-anchor="middle" x="842" y="-681.3" font-family="Times,serif" font-size="14.00" fill="#000000">the circuit</text>
</a>
</g>
</g>
<!-- zcash/halo2#248&#45;&gt;zcash/halo2#250 -->
<g id="edge31" class="edge">
<title>zcash/halo2#248&#45;&gt;zcash/halo2#250</title>
<path fill="none" stroke="#000000" d="M943.71,-683.33C956.51,-681.23 969.61,-679.08 982.43,-676.98"/>
<polygon fill="#000000" stroke="#000000" points="983.341,-680.3773 992.64,-675.3 982.2044,-673.4701 983.341,-680.3773"/>
</g>
<!-- zcash/halo2#245 -->
<g id="node38" class="node open">
<title>zcash/halo2#245</title>
<g id="a_node38"><a xlink:href="https://github.com/zcash/halo2/issues/245" xlink:title="zcash/halo2#245&#10;Remove the need to&#10;multiply by powers of x^n&#10;in verifier" target="_blank">
<polygon fill="#c2e0c6" stroke="#000000" stroke-width="2" points="945,-655 739,-655 739,-587 945,-587 945,-655"/>
<text text-anchor="middle" x="842" y="-639.8" font-family="Times,serif" font-size="14.00" fill="#000000">zcash/halo2#245</text>
<text text-anchor="middle" x="842" y="-624.8" font-family="Times,serif" font-size="14.00" fill="#000000">Remove the need to</text>
<text text-anchor="middle" x="842" y="-609.8" font-family="Times,serif" font-size="14.00" fill="#000000">multiply by powers of x^n</text>
<text text-anchor="middle" x="842" y="-594.8" font-family="Times,serif" font-size="14.00" fill="#000000">in verifier</text>
</a>
</g>
</g>
<!-- zcash/halo2#245&#45;&gt;zcash/halo2#250 -->
<g id="edge32" class="edge">
<title>zcash/halo2#245&#45;&gt;zcash/halo2#250</title>
<path fill="none" stroke="#000000" d="M945.12,-637.48C957.65,-639.48 970.44,-641.53 982.96,-643.53"/>
<polygon fill="#000000" stroke="#000000" points="982.5036,-647.0014 992.93,-645.12 983.606,-640.0887 982.5036,-647.0014"/>
</g>
<!-- zcash/halo2#312 -->
<g id="node39" class="node open">
<title>zcash/halo2#312</title>
<g id="a_node39"><a xlink:href="https://github.com/zcash/halo2/issues/312" xlink:title="zcash/halo2#312&#10;[Book] Document gadget&#10;API" target="_blank">
<polygon fill="#c2e0c6" stroke="#000000" stroke-width="2" points="205,-1105.5 10,-1105.5 10,-1052.5 205,-1052.5 205,-1105.5"/>
<text text-anchor="middle" x="107.5" y="-1090.3" font-family="Times,serif" font-size="14.00" fill="#000000">zcash/halo2#312</text>
<text text-anchor="middle" x="107.5" y="-1075.3" font-family="Times,serif" font-size="14.00" fill="#000000">[Book] Document gadget</text>
<text text-anchor="middle" x="107.5" y="-1060.3" font-family="Times,serif" font-size="14.00" fill="#000000">API</text>
</a>
</g>
</g>
</g>
</svg>
