<?xml version="1.0" encoding="UTF-8" standalone="no"?>
<?xml-stylesheet href="zcash-dag.css" type="text/css"?>
<!DOCTYPE svg PUBLIC "-//W3C//DTD SVG 1.1//EN"
 "http://www.w3.org/Graphics/SVG/1.1/DTD/svg11.dtd">
<!-- Generated by graphviz version 2.40.1 (20161225.0304)
 -->
<!-- Pages: 1 -->
<svg width="1685pt" height="1165pt"
 viewBox="0.00 0.00 1685.00 1164.50" xmlns="http://www.w3.org/2000/svg" xmlns:xlink="http://www.w3.org/1999/xlink">
<g id="graph0" class="graph" transform="scale(1 1) rotate(0) translate(4 1160.5)">
<polygon fill="#ffffff" stroke="transparent" points="-4,4 -4,-1160.5 1681,-1160.5 1681,4 -4,4"/>
<!-- zcash/pasta_curves#35 -->
<g id="node1" class="node open">
<title>zcash/pasta_curves#35</title>
<g id="a_node1"><a xlink:href="https://github.com/zcash/pasta_curves/issues/35" xlink:title="zcash/pasta_curves#35&#10;Enable `ec&#45;gpu` to&#10;generate MSM and FFT code&#10;for `pasta_curves`" target="_blank">
<polygon fill="#c2e0c6" stroke="#000000" points="481,-84 255,-84 255,-16 481,-16 481,-84"/>
<text text-anchor="middle" x="368" y="-68.8" font-family="Times,serif" font-size="14.00" fill="#000000">zcash/pasta_curves#35</text>
<text text-anchor="middle" x="368" y="-53.8" font-family="Times,serif" font-size="14.00" fill="#000000">Enable `ec&#45;gpu` to</text>
<text text-anchor="middle" x="368" y="-38.8" font-family="Times,serif" font-size="14.00" fill="#000000">generate MSM and FFT code</text>
<text text-anchor="middle" x="368" y="-23.8" font-family="Times,serif" font-size="14.00" fill="#000000">for `pasta_curves`</text>
</a>
</g>
</g>
<!-- zcash/halo2#379 -->
<g id="node2" class="node open">
<title>zcash/halo2#379</title>
<g id="a_node2"><a xlink:href="https://github.com/zcash/halo2/issues/379" xlink:title="zcash/halo2#379&#10;Add `ec&#45;gpu` support" target="_blank">
<polygon fill="#c2e0c6" stroke="#000000" points="702,-38 529,-38 529,0 702,0 702,-38"/>
<text text-anchor="middle" x="615.5" y="-22.8" font-family="Times,serif" font-size="14.00" fill="#000000">zcash/halo2#379</text>
<text text-anchor="middle" x="615.5" y="-7.8" font-family="Times,serif" font-size="14.00" fill="#000000">Add `ec&#45;gpu` support</text>
</a>
</g>
</g>
<!-- zcash/pasta_curves#35&#45;&gt;zcash/halo2#379 -->
<g id="edge1" class="edge">
<title>zcash/pasta_curves#35&#45;&gt;zcash/halo2#379</title>
<path fill="none" stroke="#000000" d="M481.25,-35.815C493.78,-34.246 506.45,-32.659 518.75,-31.118"/>
<polygon fill="#000000" stroke="#000000" points="519.4928,-34.5524 528.98,-29.836 518.6224,-27.6067 519.4928,-34.5524"/>
</g>
<!-- zcash/halo2#426 -->
<g id="node3" class="node open">
<title>zcash/halo2#426</title>
<g id="a_node3"><a xlink:href="https://github.com/zcash/halo2/issues/426" xlink:title="zcash/halo2#426&#10;Publish `halo2_proofs&#10;0.1.0`" target="_blank">
<polygon fill="#c2e0c6" stroke="#000000" points="454.5,-221.5 281.5,-221.5 281.5,-168.5 454.5,-168.5 454.5,-221.5"/>
<text text-anchor="middle" x="368" y="-206.3" font-family="Times,serif" font-size="14.00" fill="#000000">zcash/halo2#426</text>
<text text-anchor="middle" x="368" y="-191.3" font-family="Times,serif" font-size="14.00" fill="#000000">Publish `halo2_proofs</text>
<text text-anchor="middle" x="368" y="-176.3" font-family="Times,serif" font-size="14.00" fill="#000000">0.1.0`</text>
</a>
</g>
</g>
<!-- zcash/halo2#460 -->
<g id="node4" class="node open">
<title>zcash/halo2#460</title>
<g id="a_node4"><a xlink:href="https://github.com/zcash/halo2/issues/460" xlink:title="zcash/halo2#460&#10;Publish `halo2_gadgets&#10;v0.1.0`" target="_blank">
<polygon fill="#c2e0c6" stroke="#000000" points="708,-299.5 523,-299.5 523,-246.5 708,-246.5 708,-299.5"/>
<text text-anchor="middle" x="615.5" y="-284.3" font-family="Times,serif" font-size="14.00" fill="#000000">zcash/halo2#460</text>
<text text-anchor="middle" x="615.5" y="-269.3" font-family="Times,serif" font-size="14.00" fill="#000000">Publish `halo2_gadgets</text>
<text text-anchor="middle" x="615.5" y="-254.3" font-family="Times,serif" font-size="14.00" fill="#000000">v0.1.0`</text>
</a>
</g>
</g>
<!-- zcash/halo2#426&#45;&gt;zcash/halo2#460 -->
<g id="edge2" class="edge">
<title>zcash/halo2#426&#45;&gt;zcash/halo2#460</title>
<path fill="none" stroke="#000000" d="M454.09,-221.58C463.18,-224.41 472.28,-227.26 481,-230 494.58,-234.28 508.93,-238.82 522.99,-243.3"/>
<polygon fill="#000000" stroke="#000000" points="522.0792,-246.6832 532.67,-246.39 524.2079,-240.0147 522.0792,-246.6832"/>
</g>
<!-- zcash/halo2#380 -->
<g id="node5" class="node open">
<title>zcash/halo2#380</title>
<g id="a_node5"><a xlink:href="https://github.com/zcash/halo2/pull/380" xlink:title="zcash/halo2#380&#10;[book] Fix errors and&#10;typos" target="_blank">
<polygon fill="#c2e0c6" stroke="#000000" points="699.5,-221.5 531.5,-221.5 531.5,-217.5 527.5,-217.5 527.5,-213.5 531.5,-213.5 531.5,-176.5 527.5,-176.5 527.5,-172.5 531.5,-172.5 531.5,-168.5 699.5,-168.5 699.5,-221.5"/>
<polyline fill="none" stroke="#000000" points="531.5,-217.5 535.5,-217.5 535.5,-213.5 531.5,-213.5 "/>
<polyline fill="none" stroke="#000000" points="531.5,-176.5 535.5,-176.5 535.5,-172.5 531.5,-172.5 "/>
<text text-anchor="middle" x="615.5" y="-206.3" font-family="Times,serif" font-size="14.00" fill="#000000">zcash/halo2#380</text>
<text text-anchor="middle" x="615.5" y="-191.3" font-family="Times,serif" font-size="14.00" fill="#000000">[book] Fix errors and</text>
<text text-anchor="middle" x="615.5" y="-176.3" font-family="Times,serif" font-size="14.00" fill="#000000">typos</text>
</a>
</g>
</g>
<!-- zcash/halo2#426&#45;&gt;zcash/halo2#380 -->
<g id="edge3" class="edge">
<title>zcash/halo2#426&#45;&gt;zcash/halo2#380</title>
<path fill="none" stroke="#000000" d="M454.56,-195C476.1,-195 499.3,-195 521.2,-195"/>
<polygon fill="#000000" stroke="#000000" points="521.49,-198.5001 531.49,-195 521.49,-191.5001 521.49,-198.5001"/>
</g>
<!-- zcash/pasta_curves#22 -->
<g id="node6" class="node open">
<title>zcash/pasta_curves#22</title>
<g id="a_node6"><a xlink:href="https://github.com/zcash/pasta_curves/issues/22" xlink:title="zcash/pasta_curves#22&#10;Add `ec&#45;gpu` support" target="_blank">
<polygon fill="#c2e0c6" stroke="#000000" stroke-width="2" points="202.5,-38 16.5,-38 16.5,0 202.5,0 202.5,-38"/>
<text text-anchor="middle" x="109.5" y="-22.8" font-family="Times,serif" font-size="14.00" fill="#000000">zcash/pasta_curves#22</text>
<text text-anchor="middle" x="109.5" y="-7.8" font-family="Times,serif" font-size="14.00" fill="#000000">Add `ec&#45;gpu` support</text>
</a>
</g>
</g>
<!-- zcash/pasta_curves#22&#45;&gt;zcash/pasta_curves#35 -->
<g id="edge4" class="edge">
<title>zcash/pasta_curves#22&#45;&gt;zcash/pasta_curves#35</title>
<path fill="none" stroke="#000000" d="M202.82,-30.192C216.44,-31.825 230.63,-33.527 244.73,-35.217"/>
<polygon fill="#000000" stroke="#000000" points="244.6244,-38.7293 254.97,-36.445 245.4579,-31.7791 244.6244,-38.7293"/>
</g>
<!-- zcash/pasta_curves#22&#45;&gt;zcash/halo2#379 -->
<g id="edge5" class="edge">
<title>zcash/pasta_curves#22&#45;&gt;zcash/halo2#379</title>
<path fill="none" stroke="#000000" d="M202.57,-10.178C219.98,-8.8534 238.03,-7.6985 255,-7 355.36,-2.8685 380.65,-2.5325 481,-7 493.2,-7.543 506,-8.3617 518.65,-9.3214"/>
<polygon fill="#000000" stroke="#000000" points="518.5055,-12.8208 528.75,-10.119 519.0566,-5.8425 518.5055,-12.8208"/>
</g>
<!-- zcash/halo2#520 -->
<g id="node7" class="node committed">
<title>zcash/halo2#520</title>
<g id="a_node7"><a xlink:href="https://github.com/zcash/halo2/issues/520" xlink:title="zcash/halo2#520&#10;Release `halo2_proofs&#10;0.1.0&#45;beta.3`" target="_blank">
<polygon fill="#a6cfff" stroke="#000000" stroke-width="2" points="197.5,-337.5 21.5,-337.5 21.5,-284.5 197.5,-284.5 197.5,-337.5"/>
<text text-anchor="middle" x="109.5" y="-322.3" font-family="Times,serif" font-size="14.00" fill="#000000">zcash/halo2#520</text>
<text text-anchor="middle" x="109.5" y="-307.3" font-family="Times,serif" font-size="14.00" fill="#000000">Release `halo2_proofs</text>
<text text-anchor="middle" x="109.5" y="-292.3" font-family="Times,serif" font-size="14.00" fill="#000000">0.1.0&#45;beta.3`</text>
</a>
</g>
</g>
<!-- zcash/halo2#520&#45;&gt;zcash/halo2#426 -->
<g id="edge6" class="edge">
<title>zcash/halo2#520&#45;&gt;zcash/halo2#426</title>
<path fill="none" stroke="#000000" d="M197.77,-287.11C205.23,-283.58 212.42,-279.56 219,-275 240.04,-260.39 233.84,-244.42 255,-230 260.29,-226.39 265.97,-223.15 271.86,-220.23"/>
<polygon fill="#000000" stroke="#000000" points="273.6487,-223.2598 281.27,-215.9 270.7225,-216.9007 273.6487,-223.2598"/>
</g>
<!-- zcash/halo2#75 -->
<g id="node8" class="node open">
<title>zcash/halo2#75</title>
<g id="a_node8"><a xlink:href="https://github.com/zcash/halo2/issues/75" xlink:title="zcash/halo2#75&#10;Implement support for&#10;recursion" target="_blank">
<polygon fill="#c2e0c6" stroke="#000000" points="1434.5,-590.5 1255.5,-590.5 1255.5,-537.5 1434.5,-537.5 1434.5,-590.5"/>
<text text-anchor="middle" x="1345" y="-575.3" font-family="Times,serif" font-size="14.00" fill="#000000">zcash/halo2#75</text>
<text text-anchor="middle" x="1345" y="-560.3" font-family="Times,serif" font-size="14.00" fill="#000000">Implement support for</text>
<text text-anchor="middle" x="1345" y="-545.3" font-family="Times,serif" font-size="14.00" fill="#000000">recursion</text>
</a>
</g>
</g>
<!-- zcash/halo2#494 -->
<g id="node9" class="node open">
<title>zcash/halo2#494</title>
<g id="a_node9"><a xlink:href="https://github.com/zcash/halo2/issues/494" xlink:title="zcash/halo2#494&#10;Consider adding an API&#10;that enables application&#10;circuits to be built&#10;across both fields" target="_blank">
<polygon fill="#c2e0c6" stroke="#000000" points="1677,-605.5 1488,-605.5 1488,-522.5 1677,-522.5 1677,-605.5"/>
<text text-anchor="middle" x="1582.5" y="-590.3" font-family="Times,serif" font-size="14.00" fill="#000000">zcash/halo2#494</text>
<text text-anchor="middle" x="1582.5" y="-575.3" font-family="Times,serif" font-size="14.00" fill="#000000">Consider adding an API</text>
<text text-anchor="middle" x="1582.5" y="-560.3" font-family="Times,serif" font-size="14.00" fill="#000000">that enables application</text>
<text text-anchor="middle" x="1582.5" y="-545.3" font-family="Times,serif" font-size="14.00" fill="#000000">circuits to be built</text>
<text text-anchor="middle" x="1582.5" y="-530.3" font-family="Times,serif" font-size="14.00" fill="#000000">across both fields</text>
</a>
</g>
</g>
<!-- zcash/halo2#75&#45;&gt;zcash/halo2#494 -->
<g id="edge7" class="edge">
<title>zcash/halo2#75&#45;&gt;zcash/halo2#494</title>
<path fill="none" stroke="#000000" d="M1434.8,-564C1448.7,-564 1463.3,-564 1477.5,-564"/>
<polygon fill="#000000" stroke="#000000" points="1477.8,-567.5001 1487.8,-564 1477.8,-560.5001 1477.8,-567.5001"/>
</g>
<!-- zcash/halo2#79 -->
<g id="node10" class="node open">
<title>zcash/halo2#79</title>
<g id="a_node10"><a xlink:href="https://github.com/zcash/halo2/issues/79" xlink:title="zcash/halo2#79&#10;Migrate Rescue and&#10;Poseidon gadgets to&#10;algebraic hash&#10;abstraction" target="_blank">
<polygon fill="#c2e0c6" stroke="#000000" points="1177.5,-872.5 1016.5,-872.5 1016.5,-789.5 1177.5,-789.5 1177.5,-872.5"/>
<text text-anchor="middle" x="1097" y="-857.3" font-family="Times,serif" font-size="14.00" fill="#000000">zcash/halo2#79</text>
<text text-anchor="middle" x="1097" y="-842.3" font-family="Times,serif" font-size="14.00" fill="#000000">Migrate Rescue and</text>
<text text-anchor="middle" x="1097" y="-827.3" font-family="Times,serif" font-size="14.00" fill="#000000">Poseidon gadgets to</text>
<text text-anchor="middle" x="1097" y="-812.3" font-family="Times,serif" font-size="14.00" fill="#000000">algebraic hash</text>
<text text-anchor="middle" x="1097" y="-797.3" font-family="Times,serif" font-size="14.00" fill="#000000">abstraction</text>
</a>
</g>
</g>
<!-- zcash/halo2#78 -->
<g id="node11" class="node open">
<title>zcash/halo2#78</title>
<g id="a_node11"><a xlink:href="https://github.com/zcash/halo2/issues/78" xlink:title="zcash/halo2#78&#10;Implement algebraic hash&#10;/ random oracle&#10;abstraction gadget" target="_blank">
<polygon fill="#c2e0c6" stroke="#000000" stroke-width="2" points="955,-865 751,-865 751,-797 955,-797 955,-865"/>
<text text-anchor="middle" x="853" y="-849.8" font-family="Times,serif" font-size="14.00" fill="#000000">zcash/halo2#78</text>
<text text-anchor="middle" x="853" y="-834.8" font-family="Times,serif" font-size="14.00" fill="#000000">Implement algebraic hash</text>
<text text-anchor="middle" x="853" y="-819.8" font-family="Times,serif" font-size="14.00" fill="#000000">/ random oracle</text>
<text text-anchor="middle" x="853" y="-804.8" font-family="Times,serif" font-size="14.00" fill="#000000">abstraction gadget</text>
</a>
</g>
</g>
<!-- zcash/halo2#78&#45;&gt;zcash/halo2#79 -->
<g id="edge8" class="edge">
<title>zcash/halo2#78&#45;&gt;zcash/halo2#79</title>
<path fill="none" stroke="#000000" d="M955.06,-831C972.04,-831 989.55,-831 1006.2,-831"/>
<polygon fill="#000000" stroke="#000000" points="1006.5,-834.5001 1016.5,-831 1006.5,-827.5001 1006.5,-834.5001"/>
</g>
<!-- zcash/halo2#250 -->
<g id="node12" class="node open">
<title>zcash/halo2#250</title>
<g id="a_node12"><a xlink:href="https://github.com/zcash/halo2/issues/250" xlink:title="zcash/halo2#250&#10;Implement the logic for&#10;the IVC verifier circuit" target="_blank">
<polygon fill="#c2e0c6" stroke="#000000" points="1190,-652.5 1004,-652.5 1004,-599.5 1190,-599.5 1190,-652.5"/>
<text text-anchor="middle" x="1097" y="-637.3" font-family="Times,serif" font-size="14.00" fill="#000000">zcash/halo2#250</text>
<text text-anchor="middle" x="1097" y="-622.3" font-family="Times,serif" font-size="14.00" fill="#000000">Implement the logic for</text>
<text text-anchor="middle" x="1097" y="-607.3" font-family="Times,serif" font-size="14.00" fill="#000000">the IVC verifier circuit</text>
</a>
</g>
</g>
<!-- zcash/halo2#78&#45;&gt;zcash/halo2#250 -->
<g id="edge9" class="edge">
<title>zcash/halo2#78&#45;&gt;zcash/halo2#250</title>
<path fill="none" stroke="#000000" d="M942.1,-796.99C946.93,-794.17 951.6,-791.17 956,-788 1005.1,-752.55 1048.7,-696.85 1074,-660.87"/>
<polygon fill="#000000" stroke="#000000" points="1076.8952,-662.8368 1079.7,-652.62 1071.1361,-658.8578 1076.8952,-662.8368"/>
</g>
<!-- zcash/halo2#250&#45;&gt;zcash/halo2#75 -->
<g id="edge10" class="edge">
<title>zcash/halo2#250&#45;&gt;zcash/halo2#75</title>
<path fill="none" stroke="#000000" d="M1190.1,-602.74C1208.1,-598.22 1227.1,-593.47 1245.4,-588.91"/>
<polygon fill="#000000" stroke="#000000" points="1246.256,-592.3038 1255.1,-586.47 1244.5483,-585.5153 1246.256,-592.3038"/>
</g>
<!-- zcash/halo2#57 -->
<g id="node13" class="node open">
<title>zcash/halo2#57</title>
<g id="a_node13"><a xlink:href="https://github.com/zcash/halo2/issues/57" xlink:title="zcash/halo2#57&#10;Remove unused&#10;fixed_values from&#10;ProvingKey" target="_blank">
<polygon fill="#c2e0c6" stroke="#000000" stroke-width="2" points="181,-542 38,-542 38,-474 181,-474 181,-542"/>
<text text-anchor="middle" x="109.5" y="-526.8" font-family="Times,serif" font-size="14.00" fill="#000000">zcash/halo2#57</text>
<text text-anchor="middle" x="109.5" y="-511.8" font-family="Times,serif" font-size="14.00" fill="#000000">Remove unused</text>
<text text-anchor="middle" x="109.5" y="-496.8" font-family="Times,serif" font-size="14.00" fill="#000000">fixed_values from</text>
<text text-anchor="middle" x="109.5" y="-481.8" font-family="Times,serif" font-size="14.00" fill="#000000">ProvingKey</text>
</a>
</g>
</g>
<!-- zcash/halo2#443 -->
<g id="node14" class="node open">
<title>zcash/halo2#443</title>
<g id="a_node14"><a xlink:href="https://github.com/zcash/halo2/issues/443" xlink:title="zcash/halo2#443&#10;implement `read` &amp;&#10;`write` for `halo2::plonk&#10;::ProvingKey`" target="_blank">
<polygon fill="#c2e0c6" stroke="#000000" points="465,-542 271,-542 271,-474 465,-474 465,-542"/>
<text text-anchor="middle" x="368" y="-526.8" font-family="Times,serif" font-size="14.00" fill="#000000">zcash/halo2#443</text>
<text text-anchor="middle" x="368" y="-511.8" font-family="Times,serif" font-size="14.00" fill="#000000">implement `read` &amp;</text>
<text text-anchor="middle" x="368" y="-496.8" font-family="Times,serif" font-size="14.00" fill="#000000">`write` for `halo2::plonk</text>
<text text-anchor="middle" x="368" y="-481.8" font-family="Times,serif" font-size="14.00" fill="#000000">::ProvingKey`</text>
</a>
</g>
</g>
<!-- zcash/halo2#57&#45;&gt;zcash/halo2#443 -->
<g id="edge11" class="edge">
<title>zcash/halo2#57&#45;&gt;zcash/halo2#443</title>
<path fill="none" stroke="#000000" d="M181.16,-508C205.67,-508 233.66,-508 260.37,-508"/>
<polygon fill="#000000" stroke="#000000" points="260.54,-511.5001 270.54,-508 260.54,-504.5001 260.54,-511.5001"/>
</g>
<!-- zcash/halo2#449 -->
<g id="node15" class="node committed">
<title>zcash/halo2#449</title>
<g id="a_node15"><a xlink:href="https://github.com/zcash/halo2/issues/449" xlink:title="zcash/halo2#449&#10;Define a stable&#10;serialization format for&#10;`VerifyingKey`" target="_blank">
<polygon fill="#a6cfff" stroke="#000000" stroke-width="2" points="200.5,-628 18.5,-628 18.5,-560 200.5,-560 200.5,-628"/>
<text text-anchor="middle" x="109.5" y="-612.8" font-family="Times,serif" font-size="14.00" fill="#000000">zcash/halo2#449</text>
<text text-anchor="middle" x="109.5" y="-597.8" font-family="Times,serif" font-size="14.00" fill="#000000">Define a stable</text>
<text text-anchor="middle" x="109.5" y="-582.8" font-family="Times,serif" font-size="14.00" fill="#000000">serialization format for</text>
<text text-anchor="middle" x="109.5" y="-567.8" font-family="Times,serif" font-size="14.00" fill="#000000">`VerifyingKey`</text>
</a>
</g>
</g>
<!-- zcash/halo2#482 -->
<g id="node16" class="node open">
<title>zcash/halo2#482</title>
<g id="a_node16"><a xlink:href="https://github.com/zcash/halo2/issues/482" xlink:title="zcash/halo2#482&#10;Raise MSRV to 1.56.1" target="_blank">
<polygon fill="#c2e0c6" stroke="#000000" stroke-width="2" points="196,-684 23,-684 23,-646 196,-646 196,-684"/>
<text text-anchor="middle" x="109.5" y="-668.8" font-family="Times,serif" font-size="14.00" fill="#000000">zcash/halo2#482</text>
<text text-anchor="middle" x="109.5" y="-653.8" font-family="Times,serif" font-size="14.00" fill="#000000">Raise MSRV to 1.56.1</text>
</a>
</g>
</g>
<!-- zcash/halo2#483 -->
<g id="node17" class="node open">
<title>zcash/halo2#483</title>
<g id="a_node17"><a xlink:href="https://github.com/zcash/halo2/issues/483" xlink:title="zcash/halo2#483&#10;Refactor variable&#45;base&#10;scalar mul to distinguish&#10;the &quot;base field element&quot;&#10;case" target="_blank">
<polygon fill="#c2e0c6" stroke="#000000" stroke-width="2" points="465,-322.5 271,-322.5 271,-239.5 465,-239.5 465,-322.5"/>
<text text-anchor="middle" x="368" y="-307.3" font-family="Times,serif" font-size="14.00" fill="#000000">zcash/halo2#483</text>
<text text-anchor="middle" x="368" y="-292.3" font-family="Times,serif" font-size="14.00" fill="#000000">Refactor variable&#45;base</text>
<text text-anchor="middle" x="368" y="-277.3" font-family="Times,serif" font-size="14.00" fill="#000000">scalar mul to distinguish</text>
<text text-anchor="middle" x="368" y="-262.3" font-family="Times,serif" font-size="14.00" fill="#000000">the &quot;base field element&quot;</text>
<text text-anchor="middle" x="368" y="-247.3" font-family="Times,serif" font-size="14.00" fill="#000000">case</text>
</a>
</g>
</g>
<!-- zcash/halo2#483&#45;&gt;zcash/halo2#460 -->
<g id="edge12" class="edge">
<title>zcash/halo2#483&#45;&gt;zcash/halo2#460</title>
<path fill="none" stroke="#000000" d="M465.11,-277.86C480.66,-277.36 496.8,-276.84 512.49,-276.33"/>
<polygon fill="#000000" stroke="#000000" points="512.8381,-279.8207 522.72,-276 512.6123,-272.8243 512.8381,-279.8207"/>
</g>
<!-- zcash/halo2#420 -->
<g id="node18" class="node open">
<title>zcash/halo2#420</title>
<g id="a_node18"><a xlink:href="https://github.com/zcash/halo2/issues/420" xlink:title="zcash/halo2#420&#10;CI: Measure memory&#45;usage&#10;benchmarks" target="_blank">
<polygon fill="#c2e0c6" stroke="#000000" stroke-width="2" points="217,-755.5 2,-755.5 2,-702.5 217,-702.5 217,-755.5"/>
<text text-anchor="middle" x="109.5" y="-740.3" font-family="Times,serif" font-size="14.00" fill="#000000">zcash/halo2#420</text>
<text text-anchor="middle" x="109.5" y="-725.3" font-family="Times,serif" font-size="14.00" fill="#000000">CI: Measure memory&#45;usage</text>
<text text-anchor="middle" x="109.5" y="-710.3" font-family="Times,serif" font-size="14.00" fill="#000000">benchmarks</text>
</a>
</g>
</g>
<!-- zcash/halo2#418 -->
<g id="node19" class="node open">
<title>zcash/halo2#418</title>
<g id="a_node19"><a xlink:href="https://github.com/zcash/halo2/issues/418" xlink:title="zcash/halo2#418&#10;[memory optimization]&#10;lookup prover memory&#10;analysis" target="_blank">
<polygon fill="#c2e0c6" stroke="#000000" points="457.5,-763 278.5,-763 278.5,-695 457.5,-695 457.5,-763"/>
<text text-anchor="middle" x="368" y="-747.8" font-family="Times,serif" font-size="14.00" fill="#000000">zcash/halo2#418</text>
<text text-anchor="middle" x="368" y="-732.8" font-family="Times,serif" font-size="14.00" fill="#000000">[memory optimization]</text>
<text text-anchor="middle" x="368" y="-717.8" font-family="Times,serif" font-size="14.00" fill="#000000">lookup prover memory</text>
<text text-anchor="middle" x="368" y="-702.8" font-family="Times,serif" font-size="14.00" fill="#000000">analysis</text>
</a>
</g>
</g>
<!-- zcash/halo2#420&#45;&gt;zcash/halo2#418 -->
<g id="edge13" class="edge">
<title>zcash/halo2#420&#45;&gt;zcash/halo2#418</title>
<path fill="none" stroke="#000000" d="M217.26,-729C234.12,-729 251.49,-729 268.16,-729"/>
<polygon fill="#000000" stroke="#000000" points="268.45,-732.5001 278.45,-729 268.45,-725.5001 268.45,-732.5001"/>
</g>
<!-- zcash/halo2#425 -->
<g id="node20" class="node open">
<title>zcash/halo2#425</title>
<g id="a_node20"><a xlink:href="https://github.com/zcash/halo2/issues/425" xlink:title="zcash/halo2#425&#10;Make `Assigned&lt;F: Field&gt;`&#10;easier to use" target="_blank">
<polygon fill="#c2e0c6" stroke="#000000" stroke-width="2" points="219,-266.5 0,-266.5 0,-213.5 219,-213.5 219,-266.5"/>
<text text-anchor="middle" x="109.5" y="-251.3" font-family="Times,serif" font-size="14.00" fill="#000000">zcash/halo2#425</text>
<text text-anchor="middle" x="109.5" y="-236.3" font-family="Times,serif" font-size="14.00" fill="#000000">Make `Assigned&lt;F: Field&gt;`</text>
<text text-anchor="middle" x="109.5" y="-221.3" font-family="Times,serif" font-size="14.00" fill="#000000">easier to use</text>
</a>
</g>
</g>
<!-- zcash/halo2#425&#45;&gt;zcash/halo2#426 -->
<g id="edge14" class="edge">
<title>zcash/halo2#425&#45;&gt;zcash/halo2#426</title>
<path fill="none" stroke="#000000" d="M219.13,-220.92C236.5,-217.89 254.35,-214.78 271.39,-211.82"/>
<polygon fill="#000000" stroke="#000000" points="272.0783,-215.2529 281.33,-210.09 270.8779,-208.3566 272.0783,-215.2529"/>
</g>
<!-- zcash/halo2#427 -->
<g id="node21" class="node open">
<title>zcash/halo2#427</title>
<g id="a_node21"><a xlink:href="https://github.com/zcash/halo2/issues/427" xlink:title="zcash/halo2#427&#10;Use smaller extended&#10;domains where possible&#10;during proving" target="_blank">
<polygon fill="#c2e0c6" stroke="#000000" stroke-width="2" points="203.5,-842 15.5,-842 15.5,-774 203.5,-774 203.5,-842"/>
<text text-anchor="middle" x="109.5" y="-826.8" font-family="Times,serif" font-size="14.00" fill="#000000">zcash/halo2#427</text>
<text text-anchor="middle" x="109.5" y="-811.8" font-family="Times,serif" font-size="14.00" fill="#000000">Use smaller extended</text>
<text text-anchor="middle" x="109.5" y="-796.8" font-family="Times,serif" font-size="14.00" fill="#000000">domains where possible</text>
<text text-anchor="middle" x="109.5" y="-781.8" font-family="Times,serif" font-size="14.00" fill="#000000">during proving</text>
</a>
</g>
</g>
<!-- zcash/halo2#456 -->
<g id="node22" class="node open">
<title>zcash/halo2#456</title>
<g id="a_node22"><a xlink:href="https://github.com/zcash/halo2/issues/456" xlink:title="zcash/halo2#456&#10;Benchmark `sha256`&#10;gadget." target="_blank">
<polygon fill="#c2e0c6" stroke="#000000" stroke-width="2" points="194.5,-913.5 24.5,-913.5 24.5,-860.5 194.5,-860.5 194.5,-913.5"/>
<text text-anchor="middle" x="109.5" y="-898.3" font-family="Times,serif" font-size="14.00" fill="#000000">zcash/halo2#456</text>
<text text-anchor="middle" x="109.5" y="-883.3" font-family="Times,serif" font-size="14.00" fill="#000000">Benchmark `sha256`</text>
<text text-anchor="middle" x="109.5" y="-868.3" font-family="Times,serif" font-size="14.00" fill="#000000">gadget.</text>
</a>
</g>
</g>
<!-- zcash/halo2#455 -->
<g id="node23" class="node open">
<title>zcash/halo2#455</title>
<g id="a_node23"><a xlink:href="https://github.com/zcash/halo2/issues/455" xlink:title="zcash/halo2#455&#10;[Book] add description of&#10;Poseidon gadget and chip" target="_blank">
<polygon fill="#c2e0c6" stroke="#000000" stroke-width="2" points="209.5,-984.5 9.5,-984.5 9.5,-931.5 209.5,-931.5 209.5,-984.5"/>
<text text-anchor="middle" x="109.5" y="-969.3" font-family="Times,serif" font-size="14.00" fill="#000000">zcash/halo2#455</text>
<text text-anchor="middle" x="109.5" y="-954.3" font-family="Times,serif" font-size="14.00" fill="#000000">[Book] add description of</text>
<text text-anchor="middle" x="109.5" y="-939.3" font-family="Times,serif" font-size="14.00" fill="#000000">Poseidon gadget and chip</text>
</a>
</g>
</g>
<!-- zcash/halo2#251 -->
<g id="node24" class="node open">
<title>zcash/halo2#251</title>
<g id="a_node24"><a xlink:href="https://github.com/zcash/halo2/issues/251" xlink:title="zcash/halo2#251&#10;Implement user&#45;facing API&#10;for recursive proving of&#10;IVC" target="_blank">
<polygon fill="#c2e0c6" stroke="#000000" points="1202,-535 992,-535 992,-467 1202,-467 1202,-535"/>
<text text-anchor="middle" x="1097" y="-519.8" font-family="Times,serif" font-size="14.00" fill="#000000">zcash/halo2#251</text>
<text text-anchor="middle" x="1097" y="-504.8" font-family="Times,serif" font-size="14.00" fill="#000000">Implement user&#45;facing API</text>
<text text-anchor="middle" x="1097" y="-489.8" font-family="Times,serif" font-size="14.00" fill="#000000">for recursive proving of</text>
<text text-anchor="middle" x="1097" y="-474.8" font-family="Times,serif" font-size="14.00" fill="#000000">IVC</text>
</a>
</g>
</g>
<!-- zcash/halo2#251&#45;&gt;zcash/halo2#75 -->
<g id="edge15" class="edge">
<title>zcash/halo2#251&#45;&gt;zcash/halo2#75</title>
<path fill="none" stroke="#000000" d="M1202.2,-527.72C1216.5,-531.37 1231.3,-535.11 1245.5,-538.73"/>
<polygon fill="#000000" stroke="#000000" points="1244.746,-542.1496 1255.3,-541.22 1246.4699,-535.3651 1244.746,-542.1496"/>
</g>
<!-- zcash/halo2#437 -->
<g id="node25" class="node open">
<title>zcash/halo2#437</title>
<g id="a_node25"><a xlink:href="https://github.com/zcash/halo2/issues/437" xlink:title="zcash/halo2#437&#10;Amend user&#45;facing API to&#10;work for both IVC and PCD" target="_blank">
<polygon fill="#c2e0c6" stroke="#000000" points="1452,-496.5 1238,-496.5 1238,-443.5 1452,-443.5 1452,-496.5"/>
<text text-anchor="middle" x="1345" y="-481.3" font-family="Times,serif" font-size="14.00" fill="#000000">zcash/halo2#437</text>
<text text-anchor="middle" x="1345" y="-466.3" font-family="Times,serif" font-size="14.00" fill="#000000">Amend user&#45;facing API to</text>
<text text-anchor="middle" x="1345" y="-451.3" font-family="Times,serif" font-size="14.00" fill="#000000">work for both IVC and PCD</text>
</a>
</g>
</g>
<!-- zcash/halo2#251&#45;&gt;zcash/halo2#437 -->
<g id="edge16" class="edge">
<title>zcash/halo2#251&#45;&gt;zcash/halo2#437</title>
<path fill="none" stroke="#000000" d="M1202.2,-487.85C1210.6,-486.8 1219.2,-485.73 1227.7,-484.66"/>
<polygon fill="#000000" stroke="#000000" points="1228.2114,-488.1234 1237.7,-483.41 1227.3431,-481.1775 1228.2114,-488.1234"/>
</g>
<!-- zcash/halo2#436 -->
<g id="node26" class="node open">
<title>zcash/halo2#436</title>
<g id="a_node26"><a xlink:href="https://github.com/zcash/halo2/issues/436" xlink:title="zcash/halo2#436&#10;Implement mock&#10;verification circuit for&#10;PCD" target="_blank">
<polygon fill="#c2e0c6" stroke="#000000" points="703,-437 528,-437 528,-369 703,-369 703,-437"/>
<text text-anchor="middle" x="615.5" y="-421.8" font-family="Times,serif" font-size="14.00" fill="#000000">zcash/halo2#436</text>
<text text-anchor="middle" x="615.5" y="-406.8" font-family="Times,serif" font-size="14.00" fill="#000000">Implement mock</text>
<text text-anchor="middle" x="615.5" y="-391.8" font-family="Times,serif" font-size="14.00" fill="#000000">verification circuit for</text>
<text text-anchor="middle" x="615.5" y="-376.8" font-family="Times,serif" font-size="14.00" fill="#000000">PCD</text>
</a>
</g>
</g>
<!-- zcash/halo2#436&#45;&gt;zcash/halo2#437 -->
<g id="edge17" class="edge">
<title>zcash/halo2#436&#45;&gt;zcash/halo2#437</title>
<path fill="none" stroke="#000000" d="M703.36,-413.87C718.89,-415.67 734.91,-417.46 750,-419 796.08,-423.71 1067.8,-446.7 1227.6,-460.15"/>
<polygon fill="#000000" stroke="#000000" points="1227.743,-463.6741 1238,-461.02 1228.3266,-456.6985 1227.743,-463.6741"/>
</g>
<!-- zcash/halo2#438 -->
<g id="node27" class="node open">
<title>zcash/halo2#438</title>
<g id="a_node27"><a xlink:href="https://github.com/zcash/halo2/issues/438" xlink:title="zcash/halo2#438&#10;Implement the logic for&#10;the PCD verifier circuit" target="_blank">
<polygon fill="#c2e0c6" stroke="#000000" points="946,-410.5 760,-410.5 760,-357.5 946,-357.5 946,-410.5"/>
<text text-anchor="middle" x="853" y="-395.3" font-family="Times,serif" font-size="14.00" fill="#000000">zcash/halo2#438</text>
<text text-anchor="middle" x="853" y="-380.3" font-family="Times,serif" font-size="14.00" fill="#000000">Implement the logic for</text>
<text text-anchor="middle" x="853" y="-365.3" font-family="Times,serif" font-size="14.00" fill="#000000">the PCD verifier circuit</text>
</a>
</g>
</g>
<!-- zcash/halo2#436&#45;&gt;zcash/halo2#438 -->
<g id="edge18" class="edge">
<title>zcash/halo2#436&#45;&gt;zcash/halo2#438</title>
<path fill="none" stroke="#000000" d="M703.26,-395.98C718.33,-394.77 734.11,-393.51 749.54,-392.28"/>
<polygon fill="#000000" stroke="#000000" points="749.9325,-395.7598 759.62,-391.47 749.3718,-388.7823 749.9325,-395.7598"/>
</g>
<!-- zcash/halo2#435 -->
<g id="node28" class="node open">
<title>zcash/halo2#435</title>
<g id="a_node28"><a xlink:href="https://github.com/zcash/halo2/issues/435" xlink:title="zcash/halo2#435&#10;Implement mock&#10;verification circuit for&#10;IVC" target="_blank">
<polygon fill="#c2e0c6" stroke="#000000" points="703,-595 528,-595 528,-527 703,-527 703,-595"/>
<text text-anchor="middle" x="615.5" y="-579.8" font-family="Times,serif" font-size="14.00" fill="#000000">zcash/halo2#435</text>
<text text-anchor="middle" x="615.5" y="-564.8" font-family="Times,serif" font-size="14.00" fill="#000000">Implement mock</text>
<text text-anchor="middle" x="615.5" y="-549.8" font-family="Times,serif" font-size="14.00" fill="#000000">verification circuit for</text>
<text text-anchor="middle" x="615.5" y="-534.8" font-family="Times,serif" font-size="14.00" fill="#000000">IVC</text>
</a>
</g>
</g>
<!-- zcash/halo2#247 -->
<g id="node29" class="node open">
<title>zcash/halo2#247</title>
<g id="a_node29"><a xlink:href="https://github.com/zcash/halo2/issues/247" xlink:title="zcash/halo2#247&#10;Implement underlying&#10;scaffolding for creating&#10;the IVC proof cycle" target="_blank">
<polygon fill="#c2e0c6" stroke="#000000" points="945.5,-535 760.5,-535 760.5,-467 945.5,-467 945.5,-535"/>
<text text-anchor="middle" x="853" y="-519.8" font-family="Times,serif" font-size="14.00" fill="#000000">zcash/halo2#247</text>
<text text-anchor="middle" x="853" y="-504.8" font-family="Times,serif" font-size="14.00" fill="#000000">Implement underlying</text>
<text text-anchor="middle" x="853" y="-489.8" font-family="Times,serif" font-size="14.00" fill="#000000">scaffolding for creating</text>
<text text-anchor="middle" x="853" y="-474.8" font-family="Times,serif" font-size="14.00" fill="#000000">the IVC proof cycle</text>
</a>
</g>
</g>
<!-- zcash/halo2#435&#45;&gt;zcash/halo2#247 -->
<g id="edge19" class="edge">
<title>zcash/halo2#435&#45;&gt;zcash/halo2#247</title>
<path fill="none" stroke="#000000" d="M703.26,-538.83C718.69,-534.93 734.87,-530.84 750.66,-526.86"/>
<polygon fill="#000000" stroke="#000000" points="751.5843,-530.2365 760.42,-524.39 749.8669,-523.4504 751.5843,-530.2365"/>
</g>
<!-- zcash/halo2#247&#45;&gt;zcash/halo2#250 -->
<g id="edge20" class="edge">
<title>zcash/halo2#247&#45;&gt;zcash/halo2#250</title>
<path fill="none" stroke="#000000" d="M937.17,-535.06C943.59,-537.99 949.93,-540.98 956,-544 986.53,-559.17 1019.5,-578.21 1045.9,-594.12"/>
<polygon fill="#000000" stroke="#000000" points="1044.2316,-597.2012 1054.6,-599.38 1047.8533,-591.211 1044.2316,-597.2012"/>
</g>
<!-- zcash/halo2#247&#45;&gt;zcash/halo2#251 -->
<g id="edge21" class="edge">
<title>zcash/halo2#247&#45;&gt;zcash/halo2#251</title>
<path fill="none" stroke="#000000" d="M945.59,-501C957.39,-501 969.58,-501 981.68,-501"/>
<polygon fill="#000000" stroke="#000000" points="981.81,-504.5001 991.81,-501 981.81,-497.5001 981.81,-504.5001"/>
</g>
<!-- zcash/halo2#246 -->
<g id="node30" class="node open">
<title>zcash/halo2#246</title>
<g id="a_node30"><a xlink:href="https://github.com/zcash/halo2/issues/246" xlink:title="zcash/halo2#246&#10;Create recursive proof&#10;structures" target="_blank">
<polygon fill="#c2e0c6" stroke="#000000" points="457.5,-455.5 278.5,-455.5 278.5,-402.5 457.5,-402.5 457.5,-455.5"/>
<text text-anchor="middle" x="368" y="-440.3" font-family="Times,serif" font-size="14.00" fill="#000000">zcash/halo2#246</text>
<text text-anchor="middle" x="368" y="-425.3" font-family="Times,serif" font-size="14.00" fill="#000000">Create recursive proof</text>
<text text-anchor="middle" x="368" y="-410.3" font-family="Times,serif" font-size="14.00" fill="#000000">structures</text>
</a>
</g>
</g>
<!-- zcash/halo2#246&#45;&gt;zcash/halo2#436 -->
<g id="edge22" class="edge">
<title>zcash/halo2#246&#45;&gt;zcash/halo2#436</title>
<path fill="none" stroke="#000000" d="M457.7,-419.58C477.23,-417.53 497.98,-415.35 517.8,-413.26"/>
<polygon fill="#000000" stroke="#000000" points="518.1776,-416.7397 527.76,-412.22 517.4506,-409.7775 518.1776,-416.7397"/>
</g>
<!-- zcash/halo2#246&#45;&gt;zcash/halo2#435 -->
<g id="edge23" class="edge">
<title>zcash/halo2#246&#45;&gt;zcash/halo2#435</title>
<path fill="none" stroke="#000000" d="M457.72,-451.36C465.97,-455.22 473.88,-459.74 481,-465 503.6,-481.72 495.37,-499.05 517,-517 518.57,-518.3 520.18,-519.57 521.83,-520.81"/>
<polygon fill="#000000" stroke="#000000" points="520.1536,-523.9076 530.36,-526.75 524.1538,-518.1632 520.1536,-523.9076"/>
</g>
<!-- zcash/halo2#439 -->
<g id="node31" class="node open">
<title>zcash/halo2#439</title>
<g id="a_node31"><a xlink:href="https://github.com/zcash/halo2/issues/439" xlink:title="zcash/halo2#439&#10;Support split&#10;accumulation in Halo 2" target="_blank">
<polygon fill="#c2e0c6" stroke="#000000" stroke-width="2" points="201,-455.5 18,-455.5 18,-402.5 201,-402.5 201,-455.5"/>
<text text-anchor="middle" x="109.5" y="-440.3" font-family="Times,serif" font-size="14.00" fill="#000000">zcash/halo2#439</text>
<text text-anchor="middle" x="109.5" y="-425.3" font-family="Times,serif" font-size="14.00" fill="#000000">Support split</text>
<text text-anchor="middle" x="109.5" y="-410.3" font-family="Times,serif" font-size="14.00" fill="#000000">accumulation in Halo 2</text>
</a>
</g>
</g>
<!-- zcash/halo2#439&#45;&gt;zcash/halo2#246 -->
<g id="edge24" class="edge">
<title>zcash/halo2#439&#45;&gt;zcash/halo2#246</title>
<path fill="none" stroke="#000000" d="M201,-429C222.79,-429 246.15,-429 268.29,-429"/>
<polygon fill="#000000" stroke="#000000" points="268.36,-432.5001 278.36,-429 268.36,-425.5001 268.36,-432.5001"/>
</g>
<!-- zcash/halo2#359 -->
<g id="node32" class="node open">
<title>zcash/halo2#359</title>
<g id="a_node32"><a xlink:href="https://github.com/zcash/halo2/issues/359" xlink:title="zcash/halo2#359&#10;Set up `BaseTranscript`,&#10;`ScalarTranscript`" target="_blank">
<polygon fill="#c2e0c6" stroke="#000000" stroke-width="2" points="714,-508.5 517,-508.5 517,-455.5 714,-455.5 714,-508.5"/>
<text text-anchor="middle" x="615.5" y="-493.3" font-family="Times,serif" font-size="14.00" fill="#000000">zcash/halo2#359</text>
<text text-anchor="middle" x="615.5" y="-478.3" font-family="Times,serif" font-size="14.00" fill="#000000">Set up `BaseTranscript`,</text>
<text text-anchor="middle" x="615.5" y="-463.3" font-family="Times,serif" font-size="14.00" fill="#000000">`ScalarTranscript`</text>
</a>
</g>
</g>
<!-- zcash/halo2#359&#45;&gt;zcash/halo2#247 -->
<g id="edge25" class="edge">
<title>zcash/halo2#359&#45;&gt;zcash/halo2#247</title>
<path fill="none" stroke="#000000" d="M714.16,-489.89C726.11,-490.85 738.33,-491.83 750.34,-492.79"/>
<polygon fill="#000000" stroke="#000000" points="750.1131,-496.2829 760.36,-493.59 750.6703,-489.3051 750.1131,-496.2829"/>
</g>
<!-- zcash/halo2#249 -->
<g id="node33" class="node open">
<title>zcash/halo2#249</title>
<g id="a_node33"><a xlink:href="https://github.com/zcash/halo2/issues/249" xlink:title="zcash/halo2#249&#10;Implement recursion&#10;circuit logic for&#10;handling public inputs" target="_blank">
<polygon fill="#c2e0c6" stroke="#000000" stroke-width="2" points="941.5,-779 764.5,-779 764.5,-711 941.5,-711 941.5,-779"/>
<text text-anchor="middle" x="853" y="-763.8" font-family="Times,serif" font-size="14.00" fill="#000000">zcash/halo2#249</text>
<text text-anchor="middle" x="853" y="-748.8" font-family="Times,serif" font-size="14.00" fill="#000000">Implement recursion</text>
<text text-anchor="middle" x="853" y="-733.8" font-family="Times,serif" font-size="14.00" fill="#000000">circuit logic for</text>
<text text-anchor="middle" x="853" y="-718.8" font-family="Times,serif" font-size="14.00" fill="#000000">handling public inputs</text>
</a>
</g>
</g>
<!-- zcash/halo2#249&#45;&gt;zcash/halo2#250 -->
<g id="edge26" class="edge">
<title>zcash/halo2#249&#45;&gt;zcash/halo2#250</title>
<path fill="none" stroke="#000000" d="M936.51,-710.96C943.14,-708.01 949.7,-705 956,-702 984.74,-688.3 1016,-671.65 1041.7,-657.43"/>
<polygon fill="#000000" stroke="#000000" points="1043.5416,-660.4112 1050.6,-652.51 1040.1549,-654.285 1043.5416,-660.4112"/>
</g>
<!-- zcash/halo2#398 -->
<g id="node34" class="node open">
<title>zcash/halo2#398</title>
<g id="a_node34"><a xlink:href="https://github.com/zcash/halo2/issues/398" xlink:title="zcash/halo2#398&#10;[MockProver] Testing is&#10;slower after #389" target="_blank">
<polygon fill="#c2e0c6" stroke="#000000" stroke-width="2" points="204,-195.5 15,-195.5 15,-142.5 204,-142.5 204,-195.5"/>
<text text-anchor="middle" x="109.5" y="-180.3" font-family="Times,serif" font-size="14.00" fill="#000000">zcash/halo2#398</text>
<text text-anchor="middle" x="109.5" y="-165.3" font-family="Times,serif" font-size="14.00" fill="#000000">[MockProver] Testing is</text>
<text text-anchor="middle" x="109.5" y="-150.3" font-family="Times,serif" font-size="14.00" fill="#000000">slower after #389</text>
</a>
</g>
</g>
<!-- zcash/halo2#398&#45;&gt;zcash/halo2#426 -->
<g id="edge27" class="edge">
<title>zcash/halo2#398&#45;&gt;zcash/halo2#426</title>
<path fill="none" stroke="#000000" d="M204.29,-178.53C226.16,-180.73 249.44,-183.08 271.39,-185.28"/>
<polygon fill="#000000" stroke="#000000" points="271.0581,-188.7642 281.36,-186.29 271.7637,-181.7999 271.0581,-188.7642"/>
</g>
<!-- zcash/halo2#480 -->
<g id="node35" class="node open">
<title>zcash/halo2#480</title>
<g id="a_node35"><a xlink:href="https://github.com/zcash/halo2/pull/480" xlink:title="zcash/halo2#480&#10;Add `MockProver::assert_s&#10;atisfied` with pretty&#45;&#10;printed failures" target="_blank">
<polygon fill="#c2e0c6" stroke="#000000" stroke-width="2" points="216,-124 3,-124 3,-120 -1,-120 -1,-116 3,-116 3,-64 -1,-64 -1,-60 3,-60 3,-56 216,-56 216,-124"/>
<polyline fill="none" stroke="#000000" stroke-width="2" points="3,-120 7,-120 7,-116 3,-116 "/>
<polyline fill="none" stroke="#000000" stroke-width="2" points="3,-64 7,-64 7,-60 3,-60 "/>
<text text-anchor="middle" x="109.5" y="-108.8" font-family="Times,serif" font-size="14.00" fill="#000000">zcash/halo2#480</text>
<text text-anchor="middle" x="109.5" y="-93.8" font-family="Times,serif" font-size="14.00" fill="#000000">Add `MockProver::assert_s</text>
<text text-anchor="middle" x="109.5" y="-78.8" font-family="Times,serif" font-size="14.00" fill="#000000">atisfied` with pretty&#45;</text>
<text text-anchor="middle" x="109.5" y="-63.8" font-family="Times,serif" font-size="14.00" fill="#000000">printed failures</text>
</a>
</g>
</g>
<!-- zcash/halo2#480&#45;&gt;zcash/halo2#426 -->
<g id="edge28" class="edge">
<title>zcash/halo2#480&#45;&gt;zcash/halo2#426</title>
<path fill="none" stroke="#000000" d="M196.83,-124.11C204.33,-127.1 211.8,-130.09 219,-133 243.99,-143.11 271.25,-154.38 295.54,-164.5"/>
<polygon fill="#000000" stroke="#000000" points="294.4637,-167.8435 305.04,-168.47 297.1628,-161.3848 294.4637,-167.8435"/>
</g>
<!-- zcash/halo2#248 -->
<g id="node36" class="node open">
<title>zcash/halo2#248</title>
<g id="a_node36"><a xlink:href="https://github.com/zcash/halo2/issues/248" xlink:title="zcash/halo2#248&#10;Implement endoscaling in&#10;the circuit" target="_blank">
<polygon fill="#c2e0c6" stroke="#000000" stroke-width="2" points="954.5,-692.5 751.5,-692.5 751.5,-639.5 954.5,-639.5 954.5,-692.5"/>
<text text-anchor="middle" x="853" y="-677.3" font-family="Times,serif" font-size="14.00" fill="#000000">zcash/halo2#248</text>
<text text-anchor="middle" x="853" y="-662.3" font-family="Times,serif" font-size="14.00" fill="#000000">Implement endoscaling in</text>
<text text-anchor="middle" x="853" y="-647.3" font-family="Times,serif" font-size="14.00" fill="#000000">the circuit</text>
</a>
</g>
</g>
<!-- zcash/halo2#248&#45;&gt;zcash/halo2#250 -->
<g id="edge29" class="edge">
<title>zcash/halo2#248&#45;&gt;zcash/halo2#250</title>
<path fill="none" stroke="#000000" d="M954.71,-649.33C967.51,-647.23 980.61,-645.08 993.43,-642.98"/>
<polygon fill="#000000" stroke="#000000" points="994.3042,-646.3831 1003.6,-641.3 993.1632,-639.4767 994.3042,-646.3831"/>
</g>
<!-- zcash/halo2#245 -->
<g id="node37" class="node open">
<title>zcash/halo2#245</title>
<g id="a_node37"><a xlink:href="https://github.com/zcash/halo2/issues/245" xlink:title="zcash/halo2#245&#10;Remove the need to&#10;multiply by powers of x^n&#10;in verifier" target="_blank">
<polygon fill="#c2e0c6" stroke="#000000" stroke-width="2" points="956,-621 750,-621 750,-553 956,-553 956,-621"/>
<text text-anchor="middle" x="853" y="-605.8" font-family="Times,serif" font-size="14.00" fill="#000000">zcash/halo2#245</text>
<text text-anchor="middle" x="853" y="-590.8" font-family="Times,serif" font-size="14.00" fill="#000000">Remove the need to</text>
<text text-anchor="middle" x="853" y="-575.8" font-family="Times,serif" font-size="14.00" fill="#000000">multiply by powers of x^n</text>
<text text-anchor="middle" x="853" y="-560.8" font-family="Times,serif" font-size="14.00" fill="#000000">in verifier</text>
</a>
</g>
</g>
<!-- zcash/halo2#245&#45;&gt;zcash/halo2#250 -->
<g id="edge30" class="edge">
<title>zcash/halo2#245&#45;&gt;zcash/halo2#250</title>
<path fill="none" stroke="#000000" d="M956.12,-603.48C968.65,-605.48 981.44,-607.53 993.96,-609.53"/>
<polygon fill="#000000" stroke="#000000" points="993.4727,-612.9965 1003.9,-611.12 994.5784,-606.0843 993.4727,-612.9965"/>
</g>
<!-- zcash/halo2#312 -->
<g id="node38" class="node open">
<title>zcash/halo2#312</title>
<g id="a_node38"><a xlink:href="https://github.com/zcash/halo2/issues/312" xlink:title="zcash/halo2#312&#10;[Book] Document gadget&#10;API" target="_blank">
<polygon fill="#c2e0c6" stroke="#000000" stroke-width="2" points="207,-1055.5 12,-1055.5 12,-1002.5 207,-1002.5 207,-1055.5"/>
<text text-anchor="middle" x="109.5" y="-1040.3" font-family="Times,serif" font-size="14.00" fill="#000000">zcash/halo2#312</text>
<text text-anchor="middle" x="109.5" y="-1025.3" font-family="Times,serif" font-size="14.00" fill="#000000">[Book] Document gadget</text>
<text text-anchor="middle" x="109.5" y="-1010.3" font-family="Times,serif" font-size="14.00" fill="#000000">API</text>
</a>
</g>
</g>
<!-- zcash/pasta_curves#23 -->
<g id="node39" class="node open">
<title>zcash/pasta_curves#23</title>
<g id="a_node39"><a xlink:href="https://github.com/zcash/pasta_curves/pull/23" xlink:title="zcash/pasta_curves#23&#10;Ensure that GitHub&#39;s&#10;&quot;View license&quot; link&#10;points to complete&#10;license information" target="_blank">
<polygon fill="#c2e0c6" stroke="#000000" stroke-width="2" points="202.5,-1156.5 16.5,-1156.5 16.5,-1152.5 12.5,-1152.5 12.5,-1148.5 16.5,-1148.5 16.5,-1081.5 12.5,-1081.5 12.5,-1077.5 16.5,-1077.5 16.5,-1073.5 202.5,-1073.5 202.5,-1156.5"/>
<polyline fill="none" stroke="#000000" stroke-width="2" points="16.5,-1152.5 20.5,-1152.5 20.5,-1148.5 16.5,-1148.5 "/>
<polyline fill="none" stroke="#000000" stroke-width="2" points="16.5,-1081.5 20.5,-1081.5 20.5,-1077.5 16.5,-1077.5 "/>
<text text-anchor="middle" x="109.5" y="-1141.3" font-family="Times,serif" font-size="14.00" fill="#000000">zcash/pasta_curves#23</text>
<text text-anchor="middle" x="109.5" y="-1126.3" font-family="Times,serif" font-size="14.00" fill="#000000">Ensure that GitHub&#39;s</text>
<text text-anchor="middle" x="109.5" y="-1111.3" font-family="Times,serif" font-size="14.00" fill="#000000">&quot;View license&quot; link</text>
<text text-anchor="middle" x="109.5" y="-1096.3" font-family="Times,serif" font-size="14.00" fill="#000000">points to complete</text>
<text text-anchor="middle" x="109.5" y="-1081.3" font-family="Times,serif" font-size="14.00" fill="#000000">license information</text>
</a>
</g>
</g>
</g>
</svg>
