<?xml version="1.0" encoding="UTF-8" standalone="no"?>
<?xml-stylesheet href="zcash-dag.css" type="text/css"?>
<!DOCTYPE svg PUBLIC "-//W3C//DTD SVG 1.1//EN"
 "http://www.w3.org/Graphics/SVG/1.1/DTD/svg11.dtd">
<!-- Generated by graphviz version 2.40.1 (20161225.0304)
 -->
<!-- Pages: 1 -->
<svg width="1681pt" height="1261pt"
 viewBox="0.00 0.00 1681.00 1260.50" xmlns="http://www.w3.org/2000/svg" xmlns:xlink="http://www.w3.org/1999/xlink">
<g id="graph0" class="graph" transform="scale(1 1) rotate(0) translate(4 1256.5)">
<polygon fill="#ffffff" stroke="transparent" points="-4,4 -4,-1256.5 1677,-1256.5 1677,4 -4,4"/>
<!-- zcash/pasta_curves#35 -->
<g id="node1" class="node open">
<title>zcash/pasta_curves#35</title>
<g id="a_node1"><a xlink:href="https://github.com/zcash/pasta_curves/issues/35" xlink:title="zcash/pasta_curves#35&#10;Enable `ec&#45;gpu` to&#10;generate MSM and FFT code&#10;for `pasta_curves`" target="_blank">
<polygon fill="#c2e0c6" stroke="#000000" points="477,-84 251,-84 251,-16 477,-16 477,-84"/>
<text text-anchor="middle" x="364" y="-68.8" font-family="Times,serif" font-size="14.00" fill="#000000">zcash/pasta_curves#35</text>
<text text-anchor="middle" x="364" y="-53.8" font-family="Times,serif" font-size="14.00" fill="#000000">Enable `ec&#45;gpu` to</text>
<text text-anchor="middle" x="364" y="-38.8" font-family="Times,serif" font-size="14.00" fill="#000000">generate MSM and FFT code</text>
<text text-anchor="middle" x="364" y="-23.8" font-family="Times,serif" font-size="14.00" fill="#000000">for `pasta_curves`</text>
</a>
</g>
</g>
<!-- zcash/halo2#379 -->
<g id="node2" class="node open">
<title>zcash/halo2#379</title>
<g id="a_node2"><a xlink:href="https://github.com/zcash/halo2/issues/379" xlink:title="zcash/halo2#379&#10;Add `ec&#45;gpu` support" target="_blank">
<polygon fill="#c2e0c6" stroke="#000000" points="698,-38 525,-38 525,0 698,0 698,-38"/>
<text text-anchor="middle" x="611.5" y="-22.8" font-family="Times,serif" font-size="14.00" fill="#000000">zcash/halo2#379</text>
<text text-anchor="middle" x="611.5" y="-7.8" font-family="Times,serif" font-size="14.00" fill="#000000">Add `ec&#45;gpu` support</text>
</a>
</g>
</g>
<!-- zcash/pasta_curves#35&#45;&gt;zcash/halo2#379 -->
<g id="edge1" class="edge">
<title>zcash/pasta_curves#35&#45;&gt;zcash/halo2#379</title>
<path fill="none" stroke="#000000" d="M477.25,-35.815C489.78,-34.246 502.45,-32.659 514.75,-31.118"/>
<polygon fill="#000000" stroke="#000000" points="515.4928,-34.5524 524.98,-29.836 514.6224,-27.6067 515.4928,-34.5524"/>
</g>
<!-- zcash/halo2#426 -->
<g id="node3" class="node open">
<title>zcash/halo2#426</title>
<g id="a_node3"><a xlink:href="https://github.com/zcash/halo2/issues/426" xlink:title="zcash/halo2#426&#10;Publish `halo2_proofs&#10;0.1.0`" target="_blank">
<polygon fill="#c2e0c6" stroke="#000000" points="698,-312.5 525,-312.5 525,-259.5 698,-259.5 698,-312.5"/>
<text text-anchor="middle" x="611.5" y="-297.3" font-family="Times,serif" font-size="14.00" fill="#000000">zcash/halo2#426</text>
<text text-anchor="middle" x="611.5" y="-282.3" font-family="Times,serif" font-size="14.00" fill="#000000">Publish `halo2_proofs</text>
<text text-anchor="middle" x="611.5" y="-267.3" font-family="Times,serif" font-size="14.00" fill="#000000">0.1.0`</text>
</a>
</g>
</g>
<!-- zcash/halo2#460 -->
<g id="node4" class="node open">
<title>zcash/halo2#460</title>
<g id="a_node4"><a xlink:href="https://github.com/zcash/halo2/issues/460" xlink:title="zcash/halo2#460&#10;Publish `halo2_gadgets&#10;v0.1.0`" target="_blank">
<polygon fill="#c2e0c6" stroke="#000000" points="941.5,-390.5 756.5,-390.5 756.5,-337.5 941.5,-337.5 941.5,-390.5"/>
<text text-anchor="middle" x="849" y="-375.3" font-family="Times,serif" font-size="14.00" fill="#000000">zcash/halo2#460</text>
<text text-anchor="middle" x="849" y="-360.3" font-family="Times,serif" font-size="14.00" fill="#000000">Publish `halo2_gadgets</text>
<text text-anchor="middle" x="849" y="-345.3" font-family="Times,serif" font-size="14.00" fill="#000000">v0.1.0`</text>
</a>
</g>
</g>
<!-- zcash/halo2#426&#45;&gt;zcash/halo2#460 -->
<g id="edge2" class="edge">
<title>zcash/halo2#426&#45;&gt;zcash/halo2#460</title>
<path fill="none" stroke="#000000" d="M692.24,-312.52C713.56,-319.52 736.7,-327.12 758.5,-334.28"/>
<polygon fill="#000000" stroke="#000000" points="757.4873,-337.6312 768.08,-337.42 759.6676,-330.9794 757.4873,-337.6312"/>
</g>
<!-- zcash/halo2#380 -->
<g id="node5" class="node open">
<title>zcash/halo2#380</title>
<g id="a_node5"><a xlink:href="https://github.com/zcash/halo2/pull/380" xlink:title="zcash/halo2#380&#10;[book] Fix errors and&#10;typos" target="_blank">
<polygon fill="#c2e0c6" stroke="#000000" points="933,-312.5 765,-312.5 765,-308.5 761,-308.5 761,-304.5 765,-304.5 765,-267.5 761,-267.5 761,-263.5 765,-263.5 765,-259.5 933,-259.5 933,-312.5"/>
<polyline fill="none" stroke="#000000" points="765,-308.5 769,-308.5 769,-304.5 765,-304.5 "/>
<polyline fill="none" stroke="#000000" points="765,-267.5 769,-267.5 769,-263.5 765,-263.5 "/>
<text text-anchor="middle" x="849" y="-297.3" font-family="Times,serif" font-size="14.00" fill="#000000">zcash/halo2#380</text>
<text text-anchor="middle" x="849" y="-282.3" font-family="Times,serif" font-size="14.00" fill="#000000">[book] Fix errors and</text>
<text text-anchor="middle" x="849" y="-267.3" font-family="Times,serif" font-size="14.00" fill="#000000">typos</text>
</a>
</g>
</g>
<!-- zcash/halo2#426&#45;&gt;zcash/halo2#380 -->
<g id="edge3" class="edge">
<title>zcash/halo2#426&#45;&gt;zcash/halo2#380</title>
<path fill="none" stroke="#000000" d="M698.25,-286C716.59,-286 736.02,-286 754.63,-286"/>
<polygon fill="#000000" stroke="#000000" points="754.86,-289.5001 764.86,-286 754.86,-282.5001 754.86,-289.5001"/>
</g>
<!-- zcash/pasta_curves#22 -->
<g id="node6" class="node open">
<title>zcash/pasta_curves#22</title>
<g id="a_node6"><a xlink:href="https://github.com/zcash/pasta_curves/issues/22" xlink:title="zcash/pasta_curves#22&#10;Add `ec&#45;gpu` support" target="_blank">
<polygon fill="#c2e0c6" stroke="#000000" stroke-width="2" points="200.5,-38 14.5,-38 14.5,0 200.5,0 200.5,-38"/>
<text text-anchor="middle" x="107.5" y="-22.8" font-family="Times,serif" font-size="14.00" fill="#000000">zcash/pasta_curves#22</text>
<text text-anchor="middle" x="107.5" y="-7.8" font-family="Times,serif" font-size="14.00" fill="#000000">Add `ec&#45;gpu` support</text>
</a>
</g>
</g>
<!-- zcash/pasta_curves#22&#45;&gt;zcash/pasta_curves#35 -->
<g id="edge4" class="edge">
<title>zcash/pasta_curves#22&#45;&gt;zcash/pasta_curves#35</title>
<path fill="none" stroke="#000000" d="M200.83,-30.279C213.73,-31.838 227.14,-33.459 240.48,-35.071"/>
<polygon fill="#000000" stroke="#000000" points="240.3021,-38.5749 250.65,-36.301 241.1426,-31.6255 240.3021,-38.5749"/>
</g>
<!-- zcash/pasta_curves#22&#45;&gt;zcash/halo2#379 -->
<g id="edge5" class="edge">
<title>zcash/pasta_curves#22&#45;&gt;zcash/halo2#379</title>
<path fill="none" stroke="#000000" d="M200.83,-10.06C217.52,-8.7848 234.76,-7.6777 251,-7 351.36,-2.8112 376.65,-2.5325 477,-7 489.2,-7.543 502,-8.3617 514.65,-9.3214"/>
<polygon fill="#000000" stroke="#000000" points="514.5055,-12.8208 524.75,-10.119 515.0566,-5.8425 514.5055,-12.8208"/>
</g>
<!-- zcash/halo2#520 -->
<g id="node7" class="node committed">
<title>zcash/halo2#520</title>
<g id="a_node7"><a xlink:href="https://github.com/zcash/halo2/issues/520" xlink:title="zcash/halo2#520&#10;Release `halo2_proofs&#10;0.1.0&#45;beta.3`" target="_blank">
<polygon fill="#a6cfff" stroke="#000000" points="452,-541.5 276,-541.5 276,-488.5 452,-488.5 452,-541.5"/>
<text text-anchor="middle" x="364" y="-526.3" font-family="Times,serif" font-size="14.00" fill="#000000">zcash/halo2#520</text>
<text text-anchor="middle" x="364" y="-511.3" font-family="Times,serif" font-size="14.00" fill="#000000">Release `halo2_proofs</text>
<text text-anchor="middle" x="364" y="-496.3" font-family="Times,serif" font-size="14.00" fill="#000000">0.1.0&#45;beta.3`</text>
</a>
</g>
</g>
<!-- zcash/halo2#520&#45;&gt;zcash/halo2#426 -->
<g id="edge6" class="edge">
<title>zcash/halo2#520&#45;&gt;zcash/halo2#426</title>
<path fill="none" stroke="#000000" d="M452.22,-497.31C461.48,-492.57 470.03,-486.58 477,-479 525.73,-425.97 465.15,-374.83 513,-321 514.2,-319.65 515.46,-318.35 516.77,-317.1"/>
<polygon fill="#000000" stroke="#000000" points="519.2882,-319.5585 524.75,-310.48 514.8189,-314.171 519.2882,-319.5585"/>
</g>
<!-- zcash/halo2#75 -->
<g id="node8" class="node open">
<title>zcash/halo2#75</title>
<g id="a_node8"><a xlink:href="https://github.com/zcash/halo2/issues/75" xlink:title="zcash/halo2#75&#10;Implement support for&#10;recursion" target="_blank">
<polygon fill="#c2e0c6" stroke="#000000" points="1430.5,-656.5 1251.5,-656.5 1251.5,-603.5 1430.5,-603.5 1430.5,-656.5"/>
<text text-anchor="middle" x="1341" y="-641.3" font-family="Times,serif" font-size="14.00" fill="#000000">zcash/halo2#75</text>
<text text-anchor="middle" x="1341" y="-626.3" font-family="Times,serif" font-size="14.00" fill="#000000">Implement support for</text>
<text text-anchor="middle" x="1341" y="-611.3" font-family="Times,serif" font-size="14.00" fill="#000000">recursion</text>
</a>
</g>
</g>
<!-- zcash/halo2#494 -->
<g id="node9" class="node open">
<title>zcash/halo2#494</title>
<g id="a_node9"><a xlink:href="https://github.com/zcash/halo2/issues/494" xlink:title="zcash/halo2#494&#10;Consider adding an API&#10;that enables application&#10;circuits to be built&#10;across both fields" target="_blank">
<polygon fill="#c2e0c6" stroke="#000000" points="1673,-671.5 1484,-671.5 1484,-588.5 1673,-588.5 1673,-671.5"/>
<text text-anchor="middle" x="1578.5" y="-656.3" font-family="Times,serif" font-size="14.00" fill="#000000">zcash/halo2#494</text>
<text text-anchor="middle" x="1578.5" y="-641.3" font-family="Times,serif" font-size="14.00" fill="#000000">Consider adding an API</text>
<text text-anchor="middle" x="1578.5" y="-626.3" font-family="Times,serif" font-size="14.00" fill="#000000">that enables application</text>
<text text-anchor="middle" x="1578.5" y="-611.3" font-family="Times,serif" font-size="14.00" fill="#000000">circuits to be built</text>
<text text-anchor="middle" x="1578.5" y="-596.3" font-family="Times,serif" font-size="14.00" fill="#000000">across both fields</text>
</a>
</g>
</g>
<!-- zcash/halo2#75&#45;&gt;zcash/halo2#494 -->
<g id="edge7" class="edge">
<title>zcash/halo2#75&#45;&gt;zcash/halo2#494</title>
<path fill="none" stroke="#000000" d="M1430.8,-630C1444.7,-630 1459.3,-630 1473.5,-630"/>
<polygon fill="#000000" stroke="#000000" points="1473.8,-633.5001 1483.8,-630 1473.8,-626.5001 1473.8,-633.5001"/>
</g>
<!-- zcash/halo2#79 -->
<g id="node10" class="node open">
<title>zcash/halo2#79</title>
<g id="a_node10"><a xlink:href="https://github.com/zcash/halo2/issues/79" xlink:title="zcash/halo2#79&#10;Migrate Rescue and&#10;Poseidon gadgets to&#10;algebraic hash&#10;abstraction" target="_blank">
<polygon fill="#c2e0c6" stroke="#000000" points="1173.5,-938.5 1012.5,-938.5 1012.5,-855.5 1173.5,-855.5 1173.5,-938.5"/>
<text text-anchor="middle" x="1093" y="-923.3" font-family="Times,serif" font-size="14.00" fill="#000000">zcash/halo2#79</text>
<text text-anchor="middle" x="1093" y="-908.3" font-family="Times,serif" font-size="14.00" fill="#000000">Migrate Rescue and</text>
<text text-anchor="middle" x="1093" y="-893.3" font-family="Times,serif" font-size="14.00" fill="#000000">Poseidon gadgets to</text>
<text text-anchor="middle" x="1093" y="-878.3" font-family="Times,serif" font-size="14.00" fill="#000000">algebraic hash</text>
<text text-anchor="middle" x="1093" y="-863.3" font-family="Times,serif" font-size="14.00" fill="#000000">abstraction</text>
</a>
</g>
</g>
<!-- zcash/halo2#78 -->
<g id="node11" class="node open">
<title>zcash/halo2#78</title>
<g id="a_node11"><a xlink:href="https://github.com/zcash/halo2/issues/78" xlink:title="zcash/halo2#78&#10;Implement algebraic hash&#10;/ random oracle&#10;abstraction gadget" target="_blank">
<polygon fill="#c2e0c6" stroke="#000000" stroke-width="2" points="951,-931 747,-931 747,-863 951,-863 951,-931"/>
<text text-anchor="middle" x="849" y="-915.8" font-family="Times,serif" font-size="14.00" fill="#000000">zcash/halo2#78</text>
<text text-anchor="middle" x="849" y="-900.8" font-family="Times,serif" font-size="14.00" fill="#000000">Implement algebraic hash</text>
<text text-anchor="middle" x="849" y="-885.8" font-family="Times,serif" font-size="14.00" fill="#000000">/ random oracle</text>
<text text-anchor="middle" x="849" y="-870.8" font-family="Times,serif" font-size="14.00" fill="#000000">abstraction gadget</text>
</a>
</g>
</g>
<!-- zcash/halo2#78&#45;&gt;zcash/halo2#79 -->
<g id="edge8" class="edge">
<title>zcash/halo2#78&#45;&gt;zcash/halo2#79</title>
<path fill="none" stroke="#000000" d="M951.06,-897C968.04,-897 985.55,-897 1002.2,-897"/>
<polygon fill="#000000" stroke="#000000" points="1002.5,-900.5001 1012.5,-897 1002.5,-893.5001 1002.5,-900.5001"/>
</g>
<!-- zcash/halo2#250 -->
<g id="node12" class="node open">
<title>zcash/halo2#250</title>
<g id="a_node12"><a xlink:href="https://github.com/zcash/halo2/issues/250" xlink:title="zcash/halo2#250&#10;Implement the logic for&#10;the IVC verifier circuit" target="_blank">
<polygon fill="#c2e0c6" stroke="#000000" points="1186,-718.5 1000,-718.5 1000,-665.5 1186,-665.5 1186,-718.5"/>
<text text-anchor="middle" x="1093" y="-703.3" font-family="Times,serif" font-size="14.00" fill="#000000">zcash/halo2#250</text>
<text text-anchor="middle" x="1093" y="-688.3" font-family="Times,serif" font-size="14.00" fill="#000000">Implement the logic for</text>
<text text-anchor="middle" x="1093" y="-673.3" font-family="Times,serif" font-size="14.00" fill="#000000">the IVC verifier circuit</text>
</a>
</g>
</g>
<!-- zcash/halo2#78&#45;&gt;zcash/halo2#250 -->
<g id="edge9" class="edge">
<title>zcash/halo2#78&#45;&gt;zcash/halo2#250</title>
<path fill="none" stroke="#000000" d="M938.1,-862.99C942.93,-860.17 947.6,-857.17 952,-854 1001.1,-818.55 1044.7,-762.85 1070,-726.87"/>
<polygon fill="#000000" stroke="#000000" points="1072.8952,-728.8368 1075.7,-718.62 1067.1361,-724.8578 1072.8952,-728.8368"/>
</g>
<!-- zcash/halo2#250&#45;&gt;zcash/halo2#75 -->
<g id="edge10" class="edge">
<title>zcash/halo2#250&#45;&gt;zcash/halo2#75</title>
<path fill="none" stroke="#000000" d="M1186.1,-668.74C1204.1,-664.22 1223.1,-659.47 1241.4,-654.91"/>
<polygon fill="#000000" stroke="#000000" points="1242.256,-658.3038 1251.1,-652.47 1240.5483,-651.5153 1242.256,-658.3038"/>
</g>
<!-- zcash/halo2#57 -->
<g id="node13" class="node open">
<title>zcash/halo2#57</title>
<g id="a_node13"><a xlink:href="https://github.com/zcash/halo2/issues/57" xlink:title="zcash/halo2#57&#10;Remove unused&#10;fixed_values from&#10;ProvingKey" target="_blank">
<polygon fill="#c2e0c6" stroke="#000000" stroke-width="2" points="179,-724 36,-724 36,-656 179,-656 179,-724"/>
<text text-anchor="middle" x="107.5" y="-708.8" font-family="Times,serif" font-size="14.00" fill="#000000">zcash/halo2#57</text>
<text text-anchor="middle" x="107.5" y="-693.8" font-family="Times,serif" font-size="14.00" fill="#000000">Remove unused</text>
<text text-anchor="middle" x="107.5" y="-678.8" font-family="Times,serif" font-size="14.00" fill="#000000">fixed_values from</text>
<text text-anchor="middle" x="107.5" y="-663.8" font-family="Times,serif" font-size="14.00" fill="#000000">ProvingKey</text>
</a>
</g>
</g>
<!-- zcash/halo2#443 -->
<g id="node14" class="node open">
<title>zcash/halo2#443</title>
<g id="a_node14"><a xlink:href="https://github.com/zcash/halo2/issues/443" xlink:title="zcash/halo2#443&#10;implement `read` &amp;&#10;`write` for `halo2::plonk&#10;::ProvingKey`" target="_blank">
<polygon fill="#c2e0c6" stroke="#000000" points="461,-724 267,-724 267,-656 461,-656 461,-724"/>
<text text-anchor="middle" x="364" y="-708.8" font-family="Times,serif" font-size="14.00" fill="#000000">zcash/halo2#443</text>
<text text-anchor="middle" x="364" y="-693.8" font-family="Times,serif" font-size="14.00" fill="#000000">implement `read` &amp;</text>
<text text-anchor="middle" x="364" y="-678.8" font-family="Times,serif" font-size="14.00" fill="#000000">`write` for `halo2::plonk</text>
<text text-anchor="middle" x="364" y="-663.8" font-family="Times,serif" font-size="14.00" fill="#000000">::ProvingKey`</text>
</a>
</g>
</g>
<!-- zcash/halo2#57&#45;&gt;zcash/halo2#443 -->
<g id="edge11" class="edge">
<title>zcash/halo2#57&#45;&gt;zcash/halo2#443</title>
<path fill="none" stroke="#000000" d="M179.29,-690C203.23,-690 230.46,-690 256.51,-690"/>
<polygon fill="#000000" stroke="#000000" points="256.81,-693.5001 266.81,-690 256.81,-686.5001 256.81,-693.5001"/>
</g>
<!-- zcash/halo2#521 -->
<g id="node15" class="node open">
<title>zcash/halo2#521</title>
<g id="a_node15"><a xlink:href="https://github.com/zcash/halo2/pull/521" xlink:title="zcash/halo2#521&#10;Remove selector_map from&#10;pinned verification key&#10;and remove&#10;VerificationKey&#10;serialization" target="_blank">
<polygon fill="#c2e0c6" stroke="#000000" stroke-width="2" points="213.5,-524 1.5,-524 1.5,-520 -2.5,-520 -2.5,-516 1.5,-516 1.5,-434 -2.5,-434 -2.5,-430 1.5,-430 1.5,-426 213.5,-426 213.5,-524"/>
<polyline fill="none" stroke="#000000" stroke-width="2" points="1.5,-520 5.5,-520 5.5,-516 1.5,-516 "/>
<polyline fill="none" stroke="#000000" stroke-width="2" points="1.5,-434 5.5,-434 5.5,-430 1.5,-430 "/>
<text text-anchor="middle" x="107.5" y="-508.8" font-family="Times,serif" font-size="14.00" fill="#000000">zcash/halo2#521</text>
<text text-anchor="middle" x="107.5" y="-493.8" font-family="Times,serif" font-size="14.00" fill="#000000">Remove selector_map from</text>
<text text-anchor="middle" x="107.5" y="-478.8" font-family="Times,serif" font-size="14.00" fill="#000000">pinned verification key</text>
<text text-anchor="middle" x="107.5" y="-463.8" font-family="Times,serif" font-size="14.00" fill="#000000">and remove</text>
<text text-anchor="middle" x="107.5" y="-448.8" font-family="Times,serif" font-size="14.00" fill="#000000">VerificationKey</text>
<text text-anchor="middle" x="107.5" y="-433.8" font-family="Times,serif" font-size="14.00" fill="#000000">serialization</text>
</a>
</g>
</g>
<!-- zcash/halo2#521&#45;&gt;zcash/halo2#520 -->
<g id="edge12" class="edge">
<title>zcash/halo2#521&#45;&gt;zcash/halo2#520</title>
<path fill="none" stroke="#000000" d="M213.68,-491.56C230.96,-494.25 248.79,-497.03 265.87,-499.7"/>
<polygon fill="#000000" stroke="#000000" points="265.4107,-503.1706 275.83,-501.25 266.4872,-496.2538 265.4107,-503.1706"/>
</g>
<!-- zcash/halo2#449 -->
<g id="node16" class="node committed">
<title>zcash/halo2#449</title>
<g id="a_node16"><a xlink:href="https://github.com/zcash/halo2/issues/449" xlink:title="zcash/halo2#449&#10;Define a stable&#10;serialization format for&#10;`VerifyingKey`" target="_blank">
<polygon fill="#a6cfff" stroke="#000000" points="455,-470 273,-470 273,-402 455,-402 455,-470"/>
<text text-anchor="middle" x="364" y="-454.8" font-family="Times,serif" font-size="14.00" fill="#000000">zcash/halo2#449</text>
<text text-anchor="middle" x="364" y="-439.8" font-family="Times,serif" font-size="14.00" fill="#000000">Define a stable</text>
<text text-anchor="middle" x="364" y="-424.8" font-family="Times,serif" font-size="14.00" fill="#000000">serialization format for</text>
<text text-anchor="middle" x="364" y="-409.8" font-family="Times,serif" font-size="14.00" fill="#000000">`VerifyingKey`</text>
</a>
</g>
</g>
<!-- zcash/halo2#521&#45;&gt;zcash/halo2#449 -->
<g id="edge13" class="edge">
<title>zcash/halo2#521&#45;&gt;zcash/halo2#449</title>
<path fill="none" stroke="#000000" d="M213.68,-458.86C229.89,-456.39 246.58,-453.85 262.68,-451.41"/>
<polygon fill="#000000" stroke="#000000" points="263.264,-454.8615 272.62,-449.89 262.2058,-447.9419 263.264,-454.8615"/>
</g>
<!-- zcash/halo2#482 -->
<g id="node17" class="node open">
<title>zcash/halo2#482</title>
<g id="a_node17"><a xlink:href="https://github.com/zcash/halo2/issues/482" xlink:title="zcash/halo2#482&#10;Raise MSRV to 1.56.1" target="_blank">
<polygon fill="#c2e0c6" stroke="#000000" stroke-width="2" points="194,-780 21,-780 21,-742 194,-742 194,-780"/>
<text text-anchor="middle" x="107.5" y="-764.8" font-family="Times,serif" font-size="14.00" fill="#000000">zcash/halo2#482</text>
<text text-anchor="middle" x="107.5" y="-749.8" font-family="Times,serif" font-size="14.00" fill="#000000">Raise MSRV to 1.56.1</text>
</a>
</g>
</g>
<!-- zcash/halo2#483 -->
<g id="node18" class="node open">
<title>zcash/halo2#483</title>
<g id="a_node18"><a xlink:href="https://github.com/zcash/halo2/issues/483" xlink:title="zcash/halo2#483&#10;Refactor variable&#45;base&#10;scalar mul to distinguish&#10;the &quot;base field element&quot;&#10;case" target="_blank">
<polygon fill="#c2e0c6" stroke="#000000" stroke-width="2" points="708.5,-413.5 514.5,-413.5 514.5,-330.5 708.5,-330.5 708.5,-413.5"/>
<text text-anchor="middle" x="611.5" y="-398.3" font-family="Times,serif" font-size="14.00" fill="#000000">zcash/halo2#483</text>
<text text-anchor="middle" x="611.5" y="-383.3" font-family="Times,serif" font-size="14.00" fill="#000000">Refactor variable&#45;base</text>
<text text-anchor="middle" x="611.5" y="-368.3" font-family="Times,serif" font-size="14.00" fill="#000000">scalar mul to distinguish</text>
<text text-anchor="middle" x="611.5" y="-353.3" font-family="Times,serif" font-size="14.00" fill="#000000">the &quot;base field element&quot;</text>
<text text-anchor="middle" x="611.5" y="-338.3" font-family="Times,serif" font-size="14.00" fill="#000000">case</text>
</a>
</g>
</g>
<!-- zcash/halo2#483&#45;&gt;zcash/halo2#460 -->
<g id="edge14" class="edge">
<title>zcash/halo2#483&#45;&gt;zcash/halo2#460</title>
<path fill="none" stroke="#000000" d="M708.79,-368.72C721.1,-368.31 733.72,-367.88 746.12,-367.47"/>
<polygon fill="#000000" stroke="#000000" points="746.5842,-370.9564 756.46,-367.12 746.3473,-363.9604 746.5842,-370.9564"/>
</g>
<!-- zcash/halo2#420 -->
<g id="node19" class="node open">
<title>zcash/halo2#420</title>
<g id="a_node19"><a xlink:href="https://github.com/zcash/halo2/issues/420" xlink:title="zcash/halo2#420&#10;CI: Measure memory&#45;usage&#10;benchmarks" target="_blank">
<polygon fill="#c2e0c6" stroke="#000000" stroke-width="2" points="215,-851.5 0,-851.5 0,-798.5 215,-798.5 215,-851.5"/>
<text text-anchor="middle" x="107.5" y="-836.3" font-family="Times,serif" font-size="14.00" fill="#000000">zcash/halo2#420</text>
<text text-anchor="middle" x="107.5" y="-821.3" font-family="Times,serif" font-size="14.00" fill="#000000">CI: Measure memory&#45;usage</text>
<text text-anchor="middle" x="107.5" y="-806.3" font-family="Times,serif" font-size="14.00" fill="#000000">benchmarks</text>
</a>
</g>
</g>
<!-- zcash/halo2#418 -->
<g id="node20" class="node open">
<title>zcash/halo2#418</title>
<g id="a_node20"><a xlink:href="https://github.com/zcash/halo2/issues/418" xlink:title="zcash/halo2#418&#10;[memory optimization]&#10;lookup prover memory&#10;analysis" target="_blank">
<polygon fill="#c2e0c6" stroke="#000000" points="453.5,-859 274.5,-859 274.5,-791 453.5,-791 453.5,-859"/>
<text text-anchor="middle" x="364" y="-843.8" font-family="Times,serif" font-size="14.00" fill="#000000">zcash/halo2#418</text>
<text text-anchor="middle" x="364" y="-828.8" font-family="Times,serif" font-size="14.00" fill="#000000">[memory optimization]</text>
<text text-anchor="middle" x="364" y="-813.8" font-family="Times,serif" font-size="14.00" fill="#000000">lookup prover memory</text>
<text text-anchor="middle" x="364" y="-798.8" font-family="Times,serif" font-size="14.00" fill="#000000">analysis</text>
</a>
</g>
</g>
<!-- zcash/halo2#420&#45;&gt;zcash/halo2#418 -->
<g id="edge15" class="edge">
<title>zcash/halo2#420&#45;&gt;zcash/halo2#418</title>
<path fill="none" stroke="#000000" d="M215.16,-825C231.36,-825 248,-825 264.03,-825"/>
<polygon fill="#000000" stroke="#000000" points="264.46,-828.5001 274.46,-825 264.46,-821.5001 264.46,-828.5001"/>
</g>
<!-- zcash/halo2#425 -->
<g id="node21" class="node open">
<title>zcash/halo2#425</title>
<g id="a_node21"><a xlink:href="https://github.com/zcash/halo2/issues/425" xlink:title="zcash/halo2#425&#10;Make `Assigned&lt;F: Field&gt;`&#10;easier to use" target="_blank">
<polygon fill="#c2e0c6" stroke="#000000" stroke-width="2" points="473.5,-383.5 254.5,-383.5 254.5,-330.5 473.5,-330.5 473.5,-383.5"/>
<text text-anchor="middle" x="364" y="-368.3" font-family="Times,serif" font-size="14.00" fill="#000000">zcash/halo2#425</text>
<text text-anchor="middle" x="364" y="-353.3" font-family="Times,serif" font-size="14.00" fill="#000000">Make `Assigned&lt;F: Field&gt;`</text>
<text text-anchor="middle" x="364" y="-338.3" font-family="Times,serif" font-size="14.00" fill="#000000">easier to use</text>
</a>
</g>
</g>
<!-- zcash/halo2#425&#45;&gt;zcash/halo2#426 -->
<g id="edge16" class="edge">
<title>zcash/halo2#425&#45;&gt;zcash/halo2#426</title>
<path fill="none" stroke="#000000" d="M456.51,-330.46C475.66,-324.97 495.87,-319.17 515.15,-313.64"/>
<polygon fill="#000000" stroke="#000000" points="516.1847,-316.9844 524.83,-310.86 514.2524,-310.2564 516.1847,-316.9844"/>
</g>
<!-- zcash/halo2#427 -->
<g id="node22" class="node open">
<title>zcash/halo2#427</title>
<g id="a_node22"><a xlink:href="https://github.com/zcash/halo2/issues/427" xlink:title="zcash/halo2#427&#10;Use smaller extended&#10;domains where possible&#10;during proving" target="_blank">
<polygon fill="#c2e0c6" stroke="#000000" stroke-width="2" points="201.5,-938 13.5,-938 13.5,-870 201.5,-870 201.5,-938"/>
<text text-anchor="middle" x="107.5" y="-922.8" font-family="Times,serif" font-size="14.00" fill="#000000">zcash/halo2#427</text>
<text text-anchor="middle" x="107.5" y="-907.8" font-family="Times,serif" font-size="14.00" fill="#000000">Use smaller extended</text>
<text text-anchor="middle" x="107.5" y="-892.8" font-family="Times,serif" font-size="14.00" fill="#000000">domains where possible</text>
<text text-anchor="middle" x="107.5" y="-877.8" font-family="Times,serif" font-size="14.00" fill="#000000">during proving</text>
</a>
</g>
</g>
<!-- zcash/halo2#456 -->
<g id="node23" class="node open">
<title>zcash/halo2#456</title>
<g id="a_node23"><a xlink:href="https://github.com/zcash/halo2/issues/456" xlink:title="zcash/halo2#456&#10;Benchmark `sha256`&#10;gadget." target="_blank">
<polygon fill="#c2e0c6" stroke="#000000" stroke-width="2" points="192.5,-1009.5 22.5,-1009.5 22.5,-956.5 192.5,-956.5 192.5,-1009.5"/>
<text text-anchor="middle" x="107.5" y="-994.3" font-family="Times,serif" font-size="14.00" fill="#000000">zcash/halo2#456</text>
<text text-anchor="middle" x="107.5" y="-979.3" font-family="Times,serif" font-size="14.00" fill="#000000">Benchmark `sha256`</text>
<text text-anchor="middle" x="107.5" y="-964.3" font-family="Times,serif" font-size="14.00" fill="#000000">gadget.</text>
</a>
</g>
</g>
<!-- zcash/halo2#455 -->
<g id="node24" class="node open">
<title>zcash/halo2#455</title>
<g id="a_node24"><a xlink:href="https://github.com/zcash/halo2/issues/455" xlink:title="zcash/halo2#455&#10;[Book] add description of&#10;Poseidon gadget and chip" target="_blank">
<polygon fill="#c2e0c6" stroke="#000000" stroke-width="2" points="207.5,-1080.5 7.5,-1080.5 7.5,-1027.5 207.5,-1027.5 207.5,-1080.5"/>
<text text-anchor="middle" x="107.5" y="-1065.3" font-family="Times,serif" font-size="14.00" fill="#000000">zcash/halo2#455</text>
<text text-anchor="middle" x="107.5" y="-1050.3" font-family="Times,serif" font-size="14.00" fill="#000000">[Book] add description of</text>
<text text-anchor="middle" x="107.5" y="-1035.3" font-family="Times,serif" font-size="14.00" fill="#000000">Poseidon gadget and chip</text>
</a>
</g>
</g>
<!-- zcash/halo2#251 -->
<g id="node25" class="node open">
<title>zcash/halo2#251</title>
<g id="a_node25"><a xlink:href="https://github.com/zcash/halo2/issues/251" xlink:title="zcash/halo2#251&#10;Implement user&#45;facing API&#10;for recursive proving of&#10;IVC" target="_blank">
<polygon fill="#c2e0c6" stroke="#000000" points="1198,-601 988,-601 988,-533 1198,-533 1198,-601"/>
<text text-anchor="middle" x="1093" y="-585.8" font-family="Times,serif" font-size="14.00" fill="#000000">zcash/halo2#251</text>
<text text-anchor="middle" x="1093" y="-570.8" font-family="Times,serif" font-size="14.00" fill="#000000">Implement user&#45;facing API</text>
<text text-anchor="middle" x="1093" y="-555.8" font-family="Times,serif" font-size="14.00" fill="#000000">for recursive proving of</text>
<text text-anchor="middle" x="1093" y="-540.8" font-family="Times,serif" font-size="14.00" fill="#000000">IVC</text>
</a>
</g>
</g>
<!-- zcash/halo2#251&#45;&gt;zcash/halo2#75 -->
<g id="edge17" class="edge">
<title>zcash/halo2#251&#45;&gt;zcash/halo2#75</title>
<path fill="none" stroke="#000000" d="M1198.2,-593.72C1212.5,-597.37 1227.3,-601.11 1241.5,-604.73"/>
<polygon fill="#000000" stroke="#000000" points="1240.746,-608.1496 1251.3,-607.22 1242.4699,-601.3651 1240.746,-608.1496"/>
</g>
<!-- zcash/halo2#437 -->
<g id="node26" class="node open">
<title>zcash/halo2#437</title>
<g id="a_node26"><a xlink:href="https://github.com/zcash/halo2/issues/437" xlink:title="zcash/halo2#437&#10;Amend user&#45;facing API to&#10;work for both IVC and PCD" target="_blank">
<polygon fill="#c2e0c6" stroke="#000000" points="1448,-562.5 1234,-562.5 1234,-509.5 1448,-509.5 1448,-562.5"/>
<text text-anchor="middle" x="1341" y="-547.3" font-family="Times,serif" font-size="14.00" fill="#000000">zcash/halo2#437</text>
<text text-anchor="middle" x="1341" y="-532.3" font-family="Times,serif" font-size="14.00" fill="#000000">Amend user&#45;facing API to</text>
<text text-anchor="middle" x="1341" y="-517.3" font-family="Times,serif" font-size="14.00" fill="#000000">work for both IVC and PCD</text>
</a>
</g>
</g>
<!-- zcash/halo2#251&#45;&gt;zcash/halo2#437 -->
<g id="edge18" class="edge">
<title>zcash/halo2#251&#45;&gt;zcash/halo2#437</title>
<path fill="none" stroke="#000000" d="M1198.2,-553.85C1206.6,-552.8 1215.2,-551.73 1223.7,-550.66"/>
<polygon fill="#000000" stroke="#000000" points="1224.2114,-554.1234 1233.7,-549.41 1223.3431,-547.1775 1224.2114,-554.1234"/>
</g>
<!-- zcash/halo2#436 -->
<g id="node27" class="node open">
<title>zcash/halo2#436</title>
<g id="a_node27"><a xlink:href="https://github.com/zcash/halo2/issues/436" xlink:title="zcash/halo2#436&#10;Implement mock&#10;verification circuit for&#10;PCD" target="_blank">
<polygon fill="#c2e0c6" stroke="#000000" points="699,-511 524,-511 524,-443 699,-443 699,-511"/>
<text text-anchor="middle" x="611.5" y="-495.8" font-family="Times,serif" font-size="14.00" fill="#000000">zcash/halo2#436</text>
<text text-anchor="middle" x="611.5" y="-480.8" font-family="Times,serif" font-size="14.00" fill="#000000">Implement mock</text>
<text text-anchor="middle" x="611.5" y="-465.8" font-family="Times,serif" font-size="14.00" fill="#000000">verification circuit for</text>
<text text-anchor="middle" x="611.5" y="-450.8" font-family="Times,serif" font-size="14.00" fill="#000000">PCD</text>
</a>
</g>
</g>
<!-- zcash/halo2#436&#45;&gt;zcash/halo2#437 -->
<g id="edge19" class="edge">
<title>zcash/halo2#436&#45;&gt;zcash/halo2#437</title>
<path fill="none" stroke="#000000" d="M699.44,-483.94C814.16,-493.03 1021.1,-509.49 1198,-524 1206.3,-524.68 1214.9,-525.39 1223.5,-526.1"/>
<polygon fill="#000000" stroke="#000000" points="1223.3417,-529.599 1233.6,-526.95 1223.9288,-522.6236 1223.3417,-529.599"/>
</g>
<!-- zcash/halo2#438 -->
<g id="node28" class="node open">
<title>zcash/halo2#438</title>
<g id="a_node28"><a xlink:href="https://github.com/zcash/halo2/issues/438" xlink:title="zcash/halo2#438&#10;Implement the logic for&#10;the PCD verifier circuit" target="_blank">
<polygon fill="#c2e0c6" stroke="#000000" points="942,-476.5 756,-476.5 756,-423.5 942,-423.5 942,-476.5"/>
<text text-anchor="middle" x="849" y="-461.3" font-family="Times,serif" font-size="14.00" fill="#000000">zcash/halo2#438</text>
<text text-anchor="middle" x="849" y="-446.3" font-family="Times,serif" font-size="14.00" fill="#000000">Implement the logic for</text>
<text text-anchor="middle" x="849" y="-431.3" font-family="Times,serif" font-size="14.00" fill="#000000">the PCD verifier circuit</text>
</a>
</g>
</g>
<!-- zcash/halo2#436&#45;&gt;zcash/halo2#438 -->
<g id="edge20" class="edge">
<title>zcash/halo2#436&#45;&gt;zcash/halo2#438</title>
<path fill="none" stroke="#000000" d="M699.26,-467.02C714.33,-465.31 730.11,-463.52 745.54,-461.76"/>
<polygon fill="#000000" stroke="#000000" points="746.0767,-465.2217 755.62,-460.62 745.29,-458.266 746.0767,-465.2217"/>
</g>
<!-- zcash/halo2#435 -->
<g id="node29" class="node open">
<title>zcash/halo2#435</title>
<g id="a_node29"><a xlink:href="https://github.com/zcash/halo2/issues/435" xlink:title="zcash/halo2#435&#10;Implement mock&#10;verification circuit for&#10;IVC" target="_blank">
<polygon fill="#c2e0c6" stroke="#000000" points="699,-669 524,-669 524,-601 699,-601 699,-669"/>
<text text-anchor="middle" x="611.5" y="-653.8" font-family="Times,serif" font-size="14.00" fill="#000000">zcash/halo2#435</text>
<text text-anchor="middle" x="611.5" y="-638.8" font-family="Times,serif" font-size="14.00" fill="#000000">Implement mock</text>
<text text-anchor="middle" x="611.5" y="-623.8" font-family="Times,serif" font-size="14.00" fill="#000000">verification circuit for</text>
<text text-anchor="middle" x="611.5" y="-608.8" font-family="Times,serif" font-size="14.00" fill="#000000">IVC</text>
</a>
</g>
</g>
<!-- zcash/halo2#247 -->
<g id="node30" class="node open">
<title>zcash/halo2#247</title>
<g id="a_node30"><a xlink:href="https://github.com/zcash/halo2/issues/247" xlink:title="zcash/halo2#247&#10;Implement underlying&#10;scaffolding for creating&#10;the IVC proof cycle" target="_blank">
<polygon fill="#c2e0c6" stroke="#000000" points="941.5,-601 756.5,-601 756.5,-533 941.5,-533 941.5,-601"/>
<text text-anchor="middle" x="849" y="-585.8" font-family="Times,serif" font-size="14.00" fill="#000000">zcash/halo2#247</text>
<text text-anchor="middle" x="849" y="-570.8" font-family="Times,serif" font-size="14.00" fill="#000000">Implement underlying</text>
<text text-anchor="middle" x="849" y="-555.8" font-family="Times,serif" font-size="14.00" fill="#000000">scaffolding for creating</text>
<text text-anchor="middle" x="849" y="-540.8" font-family="Times,serif" font-size="14.00" fill="#000000">the IVC proof cycle</text>
</a>
</g>
</g>
<!-- zcash/halo2#435&#45;&gt;zcash/halo2#247 -->
<g id="edge21" class="edge">
<title>zcash/halo2#435&#45;&gt;zcash/halo2#247</title>
<path fill="none" stroke="#000000" d="M699.26,-609.87C714.69,-605.45 730.87,-600.82 746.66,-596.3"/>
<polygon fill="#000000" stroke="#000000" points="747.7671,-599.6238 756.42,-593.51 745.8431,-592.8934 747.7671,-599.6238"/>
</g>
<!-- zcash/halo2#247&#45;&gt;zcash/halo2#250 -->
<g id="edge22" class="edge">
<title>zcash/halo2#247&#45;&gt;zcash/halo2#250</title>
<path fill="none" stroke="#000000" d="M933.17,-601.06C939.59,-603.99 945.93,-606.98 952,-610 982.53,-625.17 1015.5,-644.21 1041.9,-660.12"/>
<polygon fill="#000000" stroke="#000000" points="1040.2316,-663.2012 1050.6,-665.38 1043.8533,-657.211 1040.2316,-663.2012"/>
</g>
<!-- zcash/halo2#247&#45;&gt;zcash/halo2#251 -->
<g id="edge23" class="edge">
<title>zcash/halo2#247&#45;&gt;zcash/halo2#251</title>
<path fill="none" stroke="#000000" d="M941.59,-567C953.39,-567 965.58,-567 977.68,-567"/>
<polygon fill="#000000" stroke="#000000" points="977.81,-570.5001 987.81,-567 977.81,-563.5001 977.81,-570.5001"/>
</g>
<!-- zcash/halo2#246 -->
<g id="node31" class="node open">
<title>zcash/halo2#246</title>
<g id="a_node31"><a xlink:href="https://github.com/zcash/halo2/issues/246" xlink:title="zcash/halo2#246&#10;Create recursive proof&#10;structures" target="_blank">
<polygon fill="#c2e0c6" stroke="#000000" points="453.5,-637.5 274.5,-637.5 274.5,-584.5 453.5,-584.5 453.5,-637.5"/>
<text text-anchor="middle" x="364" y="-622.3" font-family="Times,serif" font-size="14.00" fill="#000000">zcash/halo2#246</text>
<text text-anchor="middle" x="364" y="-607.3" font-family="Times,serif" font-size="14.00" fill="#000000">Create recursive proof</text>
<text text-anchor="middle" x="364" y="-592.3" font-family="Times,serif" font-size="14.00" fill="#000000">structures</text>
</a>
</g>
</g>
<!-- zcash/halo2#246&#45;&gt;zcash/halo2#436 -->
<g id="edge24" class="edge">
<title>zcash/halo2#246&#45;&gt;zcash/halo2#436</title>
<path fill="none" stroke="#000000" d="M418.46,-584.42C437.47,-574.41 458.63,-562.43 477,-550 494.25,-538.33 495.28,-530.94 513,-520 515.19,-518.65 517.43,-517.32 519.7,-516.01"/>
<polygon fill="#000000" stroke="#000000" points="521.5796,-518.9705 528.65,-511.08 518.2022,-512.8392 521.5796,-518.9705"/>
</g>
<!-- zcash/halo2#246&#45;&gt;zcash/halo2#435 -->
<g id="edge25" class="edge">
<title>zcash/halo2#246&#45;&gt;zcash/halo2#435</title>
<path fill="none" stroke="#000000" d="M453.7,-619.7C473.23,-621.59 493.98,-623.6 513.8,-625.53"/>
<polygon fill="#000000" stroke="#000000" points="513.4703,-629.0144 523.76,-626.49 514.142,-622.0466 513.4703,-629.0144"/>
</g>
<!-- zcash/halo2#439 -->
<g id="node32" class="node open">
<title>zcash/halo2#439</title>
<g id="a_node32"><a xlink:href="https://github.com/zcash/halo2/issues/439" xlink:title="zcash/halo2#439&#10;Support split&#10;accumulation in Halo 2" target="_blank">
<polygon fill="#c2e0c6" stroke="#000000" stroke-width="2" points="199,-637.5 16,-637.5 16,-584.5 199,-584.5 199,-637.5"/>
<text text-anchor="middle" x="107.5" y="-622.3" font-family="Times,serif" font-size="14.00" fill="#000000">zcash/halo2#439</text>
<text text-anchor="middle" x="107.5" y="-607.3" font-family="Times,serif" font-size="14.00" fill="#000000">Support split</text>
<text text-anchor="middle" x="107.5" y="-592.3" font-family="Times,serif" font-size="14.00" fill="#000000">accumulation in Halo 2</text>
</a>
</g>
</g>
<!-- zcash/halo2#439&#45;&gt;zcash/halo2#246 -->
<g id="edge26" class="edge">
<title>zcash/halo2#439&#45;&gt;zcash/halo2#246</title>
<path fill="none" stroke="#000000" d="M199.02,-611C220.13,-611 242.7,-611 264.15,-611"/>
<polygon fill="#000000" stroke="#000000" points="264.24,-614.5001 274.24,-611 264.24,-607.5001 264.24,-614.5001"/>
</g>
<!-- zcash/halo2#359 -->
<g id="node33" class="node open">
<title>zcash/halo2#359</title>
<g id="a_node33"><a xlink:href="https://github.com/zcash/halo2/issues/359" xlink:title="zcash/halo2#359&#10;Set up `BaseTranscript`,&#10;`ScalarTranscript`" target="_blank">
<polygon fill="#c2e0c6" stroke="#000000" stroke-width="2" points="710,-582.5 513,-582.5 513,-529.5 710,-529.5 710,-582.5"/>
<text text-anchor="middle" x="611.5" y="-567.3" font-family="Times,serif" font-size="14.00" fill="#000000">zcash/halo2#359</text>
<text text-anchor="middle" x="611.5" y="-552.3" font-family="Times,serif" font-size="14.00" fill="#000000">Set up `BaseTranscript`,</text>
<text text-anchor="middle" x="611.5" y="-537.3" font-family="Times,serif" font-size="14.00" fill="#000000">`ScalarTranscript`</text>
</a>
</g>
</g>
<!-- zcash/halo2#359&#45;&gt;zcash/halo2#247 -->
<g id="edge27" class="edge">
<title>zcash/halo2#359&#45;&gt;zcash/halo2#247</title>
<path fill="none" stroke="#000000" d="M710.16,-560.57C722.11,-561.12 734.33,-561.69 746.34,-562.25"/>
<polygon fill="#000000" stroke="#000000" points="746.21,-565.7476 756.36,-562.71 746.5311,-558.755 746.21,-565.7476"/>
</g>
<!-- zcash/halo2#249 -->
<g id="node34" class="node open">
<title>zcash/halo2#249</title>
<g id="a_node34"><a xlink:href="https://github.com/zcash/halo2/issues/249" xlink:title="zcash/halo2#249&#10;Implement recursion&#10;circuit logic for&#10;handling public inputs" target="_blank">
<polygon fill="#c2e0c6" stroke="#000000" stroke-width="2" points="937.5,-845 760.5,-845 760.5,-777 937.5,-777 937.5,-845"/>
<text text-anchor="middle" x="849" y="-829.8" font-family="Times,serif" font-size="14.00" fill="#000000">zcash/halo2#249</text>
<text text-anchor="middle" x="849" y="-814.8" font-family="Times,serif" font-size="14.00" fill="#000000">Implement recursion</text>
<text text-anchor="middle" x="849" y="-799.8" font-family="Times,serif" font-size="14.00" fill="#000000">circuit logic for</text>
<text text-anchor="middle" x="849" y="-784.8" font-family="Times,serif" font-size="14.00" fill="#000000">handling public inputs</text>
</a>
</g>
</g>
<!-- zcash/halo2#249&#45;&gt;zcash/halo2#250 -->
<g id="edge28" class="edge">
<title>zcash/halo2#249&#45;&gt;zcash/halo2#250</title>
<path fill="none" stroke="#000000" d="M932.51,-776.96C939.14,-774.01 945.7,-771 952,-768 980.74,-754.3 1012,-737.65 1037.7,-723.43"/>
<polygon fill="#000000" stroke="#000000" points="1039.5416,-726.4112 1046.6,-718.51 1036.1549,-720.285 1039.5416,-726.4112"/>
</g>
<!-- zcash/halo2#398 -->
<g id="node35" class="node open">
<title>zcash/halo2#398</title>
<g id="a_node35"><a xlink:href="https://github.com/zcash/halo2/issues/398" xlink:title="zcash/halo2#398&#10;[MockProver] Testing is&#10;slower after #389" target="_blank">
<polygon fill="#c2e0c6" stroke="#000000" stroke-width="2" points="458.5,-312.5 269.5,-312.5 269.5,-259.5 458.5,-259.5 458.5,-312.5"/>
<text text-anchor="middle" x="364" y="-297.3" font-family="Times,serif" font-size="14.00" fill="#000000">zcash/halo2#398</text>
<text text-anchor="middle" x="364" y="-282.3" font-family="Times,serif" font-size="14.00" fill="#000000">[MockProver] Testing is</text>
<text text-anchor="middle" x="364" y="-267.3" font-family="Times,serif" font-size="14.00" fill="#000000">slower after #389</text>
</a>
</g>
</g>
<!-- zcash/halo2#398&#45;&gt;zcash/halo2#426 -->
<g id="edge29" class="edge">
<title>zcash/halo2#398&#45;&gt;zcash/halo2#426</title>
<path fill="none" stroke="#000000" d="M458.63,-286C476.94,-286 496.15,-286 514.53,-286"/>
<polygon fill="#000000" stroke="#000000" points="514.64,-289.5001 524.64,-286 514.64,-282.5001 514.64,-289.5001"/>
</g>
<!-- zcash/halo2#506 -->
<g id="node36" class="node open">
<title>zcash/halo2#506</title>
<g id="a_node36"><a xlink:href="https://github.com/zcash/halo2/issues/506" xlink:title="zcash/halo2#506&#10;Docs not rendering on&#10;docs.rs" target="_blank">
<polygon fill="#c2e0c6" stroke="#000000" stroke-width="2" points="452,-241.5 276,-241.5 276,-188.5 452,-188.5 452,-241.5"/>
<text text-anchor="middle" x="364" y="-226.3" font-family="Times,serif" font-size="14.00" fill="#000000">zcash/halo2#506</text>
<text text-anchor="middle" x="364" y="-211.3" font-family="Times,serif" font-size="14.00" fill="#000000">Docs not rendering on</text>
<text text-anchor="middle" x="364" y="-196.3" font-family="Times,serif" font-size="14.00" fill="#000000">docs.rs</text>
</a>
</g>
</g>
<!-- zcash/halo2#506&#45;&gt;zcash/halo2#426 -->
<g id="edge30" class="edge">
<title>zcash/halo2#506&#45;&gt;zcash/halo2#426</title>
<path fill="none" stroke="#000000" d="M452.3,-240.33C472.68,-246.18 494.45,-252.42 515.15,-258.36"/>
<polygon fill="#000000" stroke="#000000" points="514.3128,-261.7609 524.89,-261.15 516.2405,-255.0315 514.3128,-261.7609"/>
</g>
<!-- zcash/halo2#480 -->
<g id="node37" class="node open">
<title>zcash/halo2#480</title>
<g id="a_node37"><a xlink:href="https://github.com/zcash/halo2/pull/480" xlink:title="zcash/halo2#480&#10;Add `MockProver::assert_s&#10;atisfied` with pretty&#45;&#10;printed failures" target="_blank">
<polygon fill="#c2e0c6" stroke="#000000" stroke-width="2" points="470.5,-170 257.5,-170 257.5,-166 253.5,-166 253.5,-162 257.5,-162 257.5,-110 253.5,-110 253.5,-106 257.5,-106 257.5,-102 470.5,-102 470.5,-170"/>
<polyline fill="none" stroke="#000000" stroke-width="2" points="257.5,-166 261.5,-166 261.5,-162 257.5,-162 "/>
<polyline fill="none" stroke="#000000" stroke-width="2" points="257.5,-110 261.5,-110 261.5,-106 257.5,-106 "/>
<text text-anchor="middle" x="364" y="-154.8" font-family="Times,serif" font-size="14.00" fill="#000000">zcash/halo2#480</text>
<text text-anchor="middle" x="364" y="-139.8" font-family="Times,serif" font-size="14.00" fill="#000000">Add `MockProver::assert_s</text>
<text text-anchor="middle" x="364" y="-124.8" font-family="Times,serif" font-size="14.00" fill="#000000">atisfied` with pretty&#45;</text>
<text text-anchor="middle" x="364" y="-109.8" font-family="Times,serif" font-size="14.00" fill="#000000">printed failures</text>
</a>
</g>
</g>
<!-- zcash/halo2#480&#45;&gt;zcash/halo2#426 -->
<g id="edge31" class="edge">
<title>zcash/halo2#480&#45;&gt;zcash/halo2#426</title>
<path fill="none" stroke="#000000" d="M459.92,-170.08C465.79,-172.91 471.53,-175.88 477,-179 513.18,-199.61 549.89,-229.55 575.79,-252.52"/>
<polygon fill="#000000" stroke="#000000" points="573.6892,-255.3374 583.47,-259.41 578.3637,-250.1269 573.6892,-255.3374"/>
</g>
<!-- zcash/halo2#248 -->
<g id="node38" class="node open">
<title>zcash/halo2#248</title>
<g id="a_node38"><a xlink:href="https://github.com/zcash/halo2/issues/248" xlink:title="zcash/halo2#248&#10;Implement endoscaling in&#10;the circuit" target="_blank">
<polygon fill="#c2e0c6" stroke="#000000" stroke-width="2" points="950.5,-758.5 747.5,-758.5 747.5,-705.5 950.5,-705.5 950.5,-758.5"/>
<text text-anchor="middle" x="849" y="-743.3" font-family="Times,serif" font-size="14.00" fill="#000000">zcash/halo2#248</text>
<text text-anchor="middle" x="849" y="-728.3" font-family="Times,serif" font-size="14.00" fill="#000000">Implement endoscaling in</text>
<text text-anchor="middle" x="849" y="-713.3" font-family="Times,serif" font-size="14.00" fill="#000000">the circuit</text>
</a>
</g>
</g>
<!-- zcash/halo2#248&#45;&gt;zcash/halo2#250 -->
<g id="edge32" class="edge">
<title>zcash/halo2#248&#45;&gt;zcash/halo2#250</title>
<path fill="none" stroke="#000000" d="M950.71,-715.33C963.51,-713.23 976.61,-711.08 989.43,-708.98"/>
<polygon fill="#000000" stroke="#000000" points="990.341,-712.3773 999.64,-707.3 989.2044,-705.4701 990.341,-712.3773"/>
</g>
<!-- zcash/halo2#245 -->
<g id="node39" class="node open">
<title>zcash/halo2#245</title>
<g id="a_node39"><a xlink:href="https://github.com/zcash/halo2/issues/245" xlink:title="zcash/halo2#245&#10;Remove the need to&#10;multiply by powers of x^n&#10;in verifier" target="_blank">
<polygon fill="#c2e0c6" stroke="#000000" stroke-width="2" points="952,-687 746,-687 746,-619 952,-619 952,-687"/>
<text text-anchor="middle" x="849" y="-671.8" font-family="Times,serif" font-size="14.00" fill="#000000">zcash/halo2#245</text>
<text text-anchor="middle" x="849" y="-656.8" font-family="Times,serif" font-size="14.00" fill="#000000">Remove the need to</text>
<text text-anchor="middle" x="849" y="-641.8" font-family="Times,serif" font-size="14.00" fill="#000000">multiply by powers of x^n</text>
<text text-anchor="middle" x="849" y="-626.8" font-family="Times,serif" font-size="14.00" fill="#000000">in verifier</text>
</a>
</g>
</g>
<!-- zcash/halo2#245&#45;&gt;zcash/halo2#250 -->
<g id="edge33" class="edge">
<title>zcash/halo2#245&#45;&gt;zcash/halo2#250</title>
<path fill="none" stroke="#000000" d="M952.12,-669.48C964.65,-671.48 977.44,-673.53 989.96,-675.53"/>
<polygon fill="#000000" stroke="#000000" points="989.5036,-679.0014 999.93,-677.12 990.606,-672.0887 989.5036,-679.0014"/>
</g>
<!-- zcash/halo2#312 -->
<g id="node40" class="node open">
<title>zcash/halo2#312</title>
<g id="a_node40"><a xlink:href="https://github.com/zcash/halo2/issues/312" xlink:title="zcash/halo2#312&#10;[Book] Document gadget&#10;API" target="_blank">
<polygon fill="#c2e0c6" stroke="#000000" stroke-width="2" points="205,-1151.5 10,-1151.5 10,-1098.5 205,-1098.5 205,-1151.5"/>
<text text-anchor="middle" x="107.5" y="-1136.3" font-family="Times,serif" font-size="14.00" fill="#000000">zcash/halo2#312</text>
<text text-anchor="middle" x="107.5" y="-1121.3" font-family="Times,serif" font-size="14.00" fill="#000000">[Book] Document gadget</text>
<text text-anchor="middle" x="107.5" y="-1106.3" font-family="Times,serif" font-size="14.00" fill="#000000">API</text>
</a>
</g>
</g>
<!-- zcash/pasta_curves#23 -->
<g id="node41" class="node open">
<title>zcash/pasta_curves#23</title>
<g id="a_node41"><a xlink:href="https://github.com/zcash/pasta_curves/pull/23" xlink:title="zcash/pasta_curves#23&#10;Ensure that GitHub&#39;s&#10;&quot;View license&quot; link&#10;points to complete&#10;license information" target="_blank">
<polygon fill="#c2e0c6" stroke="#000000" stroke-width="2" points="200.5,-1252.5 14.5,-1252.5 14.5,-1248.5 10.5,-1248.5 10.5,-1244.5 14.5,-1244.5 14.5,-1177.5 10.5,-1177.5 10.5,-1173.5 14.5,-1173.5 14.5,-1169.5 200.5,-1169.5 200.5,-1252.5"/>
<polyline fill="none" stroke="#000000" stroke-width="2" points="14.5,-1248.5 18.5,-1248.5 18.5,-1244.5 14.5,-1244.5 "/>
<polyline fill="none" stroke="#000000" stroke-width="2" points="14.5,-1177.5 18.5,-1177.5 18.5,-1173.5 14.5,-1173.5 "/>
<text text-anchor="middle" x="107.5" y="-1237.3" font-family="Times,serif" font-size="14.00" fill="#000000">zcash/pasta_curves#23</text>
<text text-anchor="middle" x="107.5" y="-1222.3" font-family="Times,serif" font-size="14.00" fill="#000000">Ensure that GitHub&#39;s</text>
<text text-anchor="middle" x="107.5" y="-1207.3" font-family="Times,serif" font-size="14.00" fill="#000000">&quot;View license&quot; link</text>
<text text-anchor="middle" x="107.5" y="-1192.3" font-family="Times,serif" font-size="14.00" fill="#000000">points to complete</text>
<text text-anchor="middle" x="107.5" y="-1177.3" font-family="Times,serif" font-size="14.00" fill="#000000">license information</text>
</a>
</g>
</g>
</g>
</svg>
