<?xml version="1.0" encoding="UTF-8" standalone="no"?>
<?xml-stylesheet href="zcash-dag.css" type="text/css"?>
<!DOCTYPE svg PUBLIC "-//W3C//DTD SVG 1.1//EN"
 "http://www.w3.org/Graphics/SVG/1.1/DTD/svg11.dtd">
<!-- Generated by graphviz version 2.40.1 (20161225.0304)
 -->
<!-- Pages: 1 -->
<svg width="1685pt" height="1249pt"
 viewBox="0.00 0.00 1685.00 1248.50" xmlns="http://www.w3.org/2000/svg" xmlns:xlink="http://www.w3.org/1999/xlink">
<g id="graph0" class="graph" transform="scale(1 1) rotate(0) translate(4 1244.5)">
<polygon fill="#ffffff" stroke="transparent" points="-4,4 -4,-1244.5 1681,-1244.5 1681,4 -4,4"/>
<!-- zcash/pasta_curves#35 -->
<g id="node1" class="node open">
<title>zcash/pasta_curves#35</title>
<g id="a_node1"><a xlink:href="https://github.com/zcash/pasta_curves/issues/35" xlink:title="zcash/pasta_curves#35&#10;Enable `ec&#45;gpu` to&#10;generate MSM and FFT code&#10;for `pasta_curves`" target="_blank">
<polygon fill="#c2e0c6" stroke="#000000" points="481,-84 255,-84 255,-16 481,-16 481,-84"/>
<text text-anchor="middle" x="368" y="-68.8" font-family="Times,serif" font-size="14.00" fill="#000000">zcash/pasta_curves#35</text>
<text text-anchor="middle" x="368" y="-53.8" font-family="Times,serif" font-size="14.00" fill="#000000">Enable `ec&#45;gpu` to</text>
<text text-anchor="middle" x="368" y="-38.8" font-family="Times,serif" font-size="14.00" fill="#000000">generate MSM and FFT code</text>
<text text-anchor="middle" x="368" y="-23.8" font-family="Times,serif" font-size="14.00" fill="#000000">for `pasta_curves`</text>
</a>
</g>
</g>
<!-- zcash/halo2#379 -->
<g id="node2" class="node open">
<title>zcash/halo2#379</title>
<g id="a_node2"><a xlink:href="https://github.com/zcash/halo2/issues/379" xlink:title="zcash/halo2#379&#10;Add `ec&#45;gpu` support" target="_blank">
<polygon fill="#c2e0c6" stroke="#000000" points="702,-38 529,-38 529,0 702,0 702,-38"/>
<text text-anchor="middle" x="615.5" y="-22.8" font-family="Times,serif" font-size="14.00" fill="#000000">zcash/halo2#379</text>
<text text-anchor="middle" x="615.5" y="-7.8" font-family="Times,serif" font-size="14.00" fill="#000000">Add `ec&#45;gpu` support</text>
</a>
</g>
</g>
<!-- zcash/pasta_curves#35&#45;&gt;zcash/halo2#379 -->
<g id="edge1" class="edge">
<title>zcash/pasta_curves#35&#45;&gt;zcash/halo2#379</title>
<path fill="none" stroke="#000000" d="M481.25,-35.815C493.78,-34.246 506.45,-32.659 518.75,-31.118"/>
<polygon fill="#000000" stroke="#000000" points="519.4928,-34.5524 528.98,-29.836 518.6224,-27.6067 519.4928,-34.5524"/>
</g>
<!-- zcash/halo2#426 -->
<g id="node3" class="node open">
<title>zcash/halo2#426</title>
<g id="a_node3"><a xlink:href="https://github.com/zcash/halo2/issues/426" xlink:title="zcash/halo2#426&#10;Publish `halo2_proofs&#10;0.1.0`" target="_blank">
<polygon fill="#c2e0c6" stroke="#000000" points="454.5,-313.5 281.5,-313.5 281.5,-260.5 454.5,-260.5 454.5,-313.5"/>
<text text-anchor="middle" x="368" y="-298.3" font-family="Times,serif" font-size="14.00" fill="#000000">zcash/halo2#426</text>
<text text-anchor="middle" x="368" y="-283.3" font-family="Times,serif" font-size="14.00" fill="#000000">Publish `halo2_proofs</text>
<text text-anchor="middle" x="368" y="-268.3" font-family="Times,serif" font-size="14.00" fill="#000000">0.1.0`</text>
</a>
</g>
</g>
<!-- zcash/halo2#460 -->
<g id="node4" class="node open">
<title>zcash/halo2#460</title>
<g id="a_node4"><a xlink:href="https://github.com/zcash/halo2/issues/460" xlink:title="zcash/halo2#460&#10;Publish `halo2_gadgets&#10;v0.1.0`" target="_blank">
<polygon fill="#c2e0c6" stroke="#000000" points="708,-392.5 523,-392.5 523,-339.5 708,-339.5 708,-392.5"/>
<text text-anchor="middle" x="615.5" y="-377.3" font-family="Times,serif" font-size="14.00" fill="#000000">zcash/halo2#460</text>
<text text-anchor="middle" x="615.5" y="-362.3" font-family="Times,serif" font-size="14.00" fill="#000000">Publish `halo2_gadgets</text>
<text text-anchor="middle" x="615.5" y="-347.3" font-family="Times,serif" font-size="14.00" fill="#000000">v0.1.0`</text>
</a>
</g>
</g>
<!-- zcash/halo2#426&#45;&gt;zcash/halo2#460 -->
<g id="edge2" class="edge">
<title>zcash/halo2#426&#45;&gt;zcash/halo2#460</title>
<path fill="none" stroke="#000000" d="M454.11,-313.52C463.2,-316.36 472.29,-319.23 481,-322 495.31,-326.56 510.45,-331.44 525.21,-336.25"/>
<polygon fill="#000000" stroke="#000000" points="524.2478,-339.6174 534.84,-339.38 526.4116,-332.9603 524.2478,-339.6174"/>
</g>
<!-- zcash/halo2#380 -->
<g id="node5" class="node open">
<title>zcash/halo2#380</title>
<g id="a_node5"><a xlink:href="https://github.com/zcash/halo2/pull/380" xlink:title="zcash/halo2#380&#10;[book] Fix errors and&#10;typos" target="_blank">
<polygon fill="#c2e0c6" stroke="#000000" points="699.5,-313.5 531.5,-313.5 531.5,-309.5 527.5,-309.5 527.5,-305.5 531.5,-305.5 531.5,-268.5 527.5,-268.5 527.5,-264.5 531.5,-264.5 531.5,-260.5 699.5,-260.5 699.5,-313.5"/>
<polyline fill="none" stroke="#000000" points="531.5,-309.5 535.5,-309.5 535.5,-305.5 531.5,-305.5 "/>
<polyline fill="none" stroke="#000000" points="531.5,-268.5 535.5,-268.5 535.5,-264.5 531.5,-264.5 "/>
<text text-anchor="middle" x="615.5" y="-298.3" font-family="Times,serif" font-size="14.00" fill="#000000">zcash/halo2#380</text>
<text text-anchor="middle" x="615.5" y="-283.3" font-family="Times,serif" font-size="14.00" fill="#000000">[book] Fix errors and</text>
<text text-anchor="middle" x="615.5" y="-268.3" font-family="Times,serif" font-size="14.00" fill="#000000">typos</text>
</a>
</g>
</g>
<!-- zcash/halo2#426&#45;&gt;zcash/halo2#380 -->
<g id="edge3" class="edge">
<title>zcash/halo2#426&#45;&gt;zcash/halo2#380</title>
<path fill="none" stroke="#000000" d="M454.56,-287C476.1,-287 499.3,-287 521.2,-287"/>
<polygon fill="#000000" stroke="#000000" points="521.49,-290.5001 531.49,-287 521.49,-283.5001 521.49,-290.5001"/>
</g>
<!-- zcash/pasta_curves#22 -->
<g id="node6" class="node open">
<title>zcash/pasta_curves#22</title>
<g id="a_node6"><a xlink:href="https://github.com/zcash/pasta_curves/issues/22" xlink:title="zcash/pasta_curves#22&#10;Add `ec&#45;gpu` support" target="_blank">
<polygon fill="#c2e0c6" stroke="#000000" stroke-width="2" points="202.5,-38 16.5,-38 16.5,0 202.5,0 202.5,-38"/>
<text text-anchor="middle" x="109.5" y="-22.8" font-family="Times,serif" font-size="14.00" fill="#000000">zcash/pasta_curves#22</text>
<text text-anchor="middle" x="109.5" y="-7.8" font-family="Times,serif" font-size="14.00" fill="#000000">Add `ec&#45;gpu` support</text>
</a>
</g>
</g>
<!-- zcash/pasta_curves#22&#45;&gt;zcash/pasta_curves#35 -->
<g id="edge4" class="edge">
<title>zcash/pasta_curves#22&#45;&gt;zcash/pasta_curves#35</title>
<path fill="none" stroke="#000000" d="M202.82,-30.192C216.44,-31.825 230.63,-33.527 244.73,-35.217"/>
<polygon fill="#000000" stroke="#000000" points="244.6244,-38.7293 254.97,-36.445 245.4579,-31.7791 244.6244,-38.7293"/>
</g>
<!-- zcash/pasta_curves#22&#45;&gt;zcash/halo2#379 -->
<g id="edge5" class="edge">
<title>zcash/pasta_curves#22&#45;&gt;zcash/halo2#379</title>
<path fill="none" stroke="#000000" d="M202.57,-10.178C219.98,-8.8534 238.03,-7.6985 255,-7 355.36,-2.8685 380.65,-2.5325 481,-7 493.2,-7.543 506,-8.3617 518.65,-9.3214"/>
<polygon fill="#000000" stroke="#000000" points="518.5055,-12.8208 528.75,-10.119 519.0566,-5.8425 518.5055,-12.8208"/>
</g>
<!-- zcash/halo2#75 -->
<g id="node7" class="node open">
<title>zcash/halo2#75</title>
<g id="a_node7"><a xlink:href="https://github.com/zcash/halo2/issues/75" xlink:title="zcash/halo2#75&#10;Implement support for&#10;recursion" target="_blank">
<polygon fill="#c2e0c6" stroke="#000000" points="1434.5,-632.5 1255.5,-632.5 1255.5,-579.5 1434.5,-579.5 1434.5,-632.5"/>
<text text-anchor="middle" x="1345" y="-617.3" font-family="Times,serif" font-size="14.00" fill="#000000">zcash/halo2#75</text>
<text text-anchor="middle" x="1345" y="-602.3" font-family="Times,serif" font-size="14.00" fill="#000000">Implement support for</text>
<text text-anchor="middle" x="1345" y="-587.3" font-family="Times,serif" font-size="14.00" fill="#000000">recursion</text>
</a>
</g>
</g>
<!-- zcash/halo2#494 -->
<g id="node8" class="node open">
<title>zcash/halo2#494</title>
<g id="a_node8"><a xlink:href="https://github.com/zcash/halo2/issues/494" xlink:title="zcash/halo2#494&#10;Consider adding an API&#10;that enables application&#10;circuits to be built&#10;across both fields" target="_blank">
<polygon fill="#c2e0c6" stroke="#000000" points="1677,-647.5 1488,-647.5 1488,-564.5 1677,-564.5 1677,-647.5"/>
<text text-anchor="middle" x="1582.5" y="-632.3" font-family="Times,serif" font-size="14.00" fill="#000000">zcash/halo2#494</text>
<text text-anchor="middle" x="1582.5" y="-617.3" font-family="Times,serif" font-size="14.00" fill="#000000">Consider adding an API</text>
<text text-anchor="middle" x="1582.5" y="-602.3" font-family="Times,serif" font-size="14.00" fill="#000000">that enables application</text>
<text text-anchor="middle" x="1582.5" y="-587.3" font-family="Times,serif" font-size="14.00" fill="#000000">circuits to be built</text>
<text text-anchor="middle" x="1582.5" y="-572.3" font-family="Times,serif" font-size="14.00" fill="#000000">across both fields</text>
</a>
</g>
</g>
<!-- zcash/halo2#75&#45;&gt;zcash/halo2#494 -->
<g id="edge6" class="edge">
<title>zcash/halo2#75&#45;&gt;zcash/halo2#494</title>
<path fill="none" stroke="#000000" d="M1434.8,-606C1448.7,-606 1463.3,-606 1477.5,-606"/>
<polygon fill="#000000" stroke="#000000" points="1477.8,-609.5001 1487.8,-606 1477.8,-602.5001 1477.8,-609.5001"/>
</g>
<!-- zcash/halo2#79 -->
<g id="node9" class="node open">
<title>zcash/halo2#79</title>
<g id="a_node9"><a xlink:href="https://github.com/zcash/halo2/issues/79" xlink:title="zcash/halo2#79&#10;Migrate Rescue and&#10;Poseidon gadgets to&#10;algebraic hash&#10;abstraction" target="_blank">
<polygon fill="#c2e0c6" stroke="#000000" points="1177.5,-914.5 1016.5,-914.5 1016.5,-831.5 1177.5,-831.5 1177.5,-914.5"/>
<text text-anchor="middle" x="1097" y="-899.3" font-family="Times,serif" font-size="14.00" fill="#000000">zcash/halo2#79</text>
<text text-anchor="middle" x="1097" y="-884.3" font-family="Times,serif" font-size="14.00" fill="#000000">Migrate Rescue and</text>
<text text-anchor="middle" x="1097" y="-869.3" font-family="Times,serif" font-size="14.00" fill="#000000">Poseidon gadgets to</text>
<text text-anchor="middle" x="1097" y="-854.3" font-family="Times,serif" font-size="14.00" fill="#000000">algebraic hash</text>
<text text-anchor="middle" x="1097" y="-839.3" font-family="Times,serif" font-size="14.00" fill="#000000">abstraction</text>
</a>
</g>
</g>
<!-- zcash/halo2#78 -->
<g id="node10" class="node open">
<title>zcash/halo2#78</title>
<g id="a_node10"><a xlink:href="https://github.com/zcash/halo2/issues/78" xlink:title="zcash/halo2#78&#10;Implement algebraic hash&#10;/ random oracle&#10;abstraction gadget" target="_blank">
<polygon fill="#c2e0c6" stroke="#000000" stroke-width="2" points="955,-907 751,-907 751,-839 955,-839 955,-907"/>
<text text-anchor="middle" x="853" y="-891.8" font-family="Times,serif" font-size="14.00" fill="#000000">zcash/halo2#78</text>
<text text-anchor="middle" x="853" y="-876.8" font-family="Times,serif" font-size="14.00" fill="#000000">Implement algebraic hash</text>
<text text-anchor="middle" x="853" y="-861.8" font-family="Times,serif" font-size="14.00" fill="#000000">/ random oracle</text>
<text text-anchor="middle" x="853" y="-846.8" font-family="Times,serif" font-size="14.00" fill="#000000">abstraction gadget</text>
</a>
</g>
</g>
<!-- zcash/halo2#78&#45;&gt;zcash/halo2#79 -->
<g id="edge7" class="edge">
<title>zcash/halo2#78&#45;&gt;zcash/halo2#79</title>
<path fill="none" stroke="#000000" d="M955.06,-873C972.04,-873 989.55,-873 1006.2,-873"/>
<polygon fill="#000000" stroke="#000000" points="1006.5,-876.5001 1016.5,-873 1006.5,-869.5001 1006.5,-876.5001"/>
</g>
<!-- zcash/halo2#250 -->
<g id="node11" class="node open">
<title>zcash/halo2#250</title>
<g id="a_node11"><a xlink:href="https://github.com/zcash/halo2/issues/250" xlink:title="zcash/halo2#250&#10;Implement the logic for&#10;the IVC verifier circuit" target="_blank">
<polygon fill="#c2e0c6" stroke="#000000" points="1190,-694.5 1004,-694.5 1004,-641.5 1190,-641.5 1190,-694.5"/>
<text text-anchor="middle" x="1097" y="-679.3" font-family="Times,serif" font-size="14.00" fill="#000000">zcash/halo2#250</text>
<text text-anchor="middle" x="1097" y="-664.3" font-family="Times,serif" font-size="14.00" fill="#000000">Implement the logic for</text>
<text text-anchor="middle" x="1097" y="-649.3" font-family="Times,serif" font-size="14.00" fill="#000000">the IVC verifier circuit</text>
</a>
</g>
</g>
<!-- zcash/halo2#78&#45;&gt;zcash/halo2#250 -->
<g id="edge8" class="edge">
<title>zcash/halo2#78&#45;&gt;zcash/halo2#250</title>
<path fill="none" stroke="#000000" d="M942.1,-838.99C946.93,-836.17 951.6,-833.17 956,-830 1005.1,-794.55 1048.7,-738.85 1074,-702.87"/>
<polygon fill="#000000" stroke="#000000" points="1076.8952,-704.8368 1079.7,-694.62 1071.1361,-700.8578 1076.8952,-704.8368"/>
</g>
<!-- zcash/halo2#250&#45;&gt;zcash/halo2#75 -->
<g id="edge9" class="edge">
<title>zcash/halo2#250&#45;&gt;zcash/halo2#75</title>
<path fill="none" stroke="#000000" d="M1190.1,-644.74C1208.1,-640.22 1227.1,-635.47 1245.4,-630.91"/>
<polygon fill="#000000" stroke="#000000" points="1246.256,-634.3038 1255.1,-628.47 1244.5483,-627.5153 1246.256,-634.3038"/>
</g>
<!-- zcash/halo2#57 -->
<g id="node12" class="node open">
<title>zcash/halo2#57</title>
<g id="a_node12"><a xlink:href="https://github.com/zcash/halo2/issues/57" xlink:title="zcash/halo2#57&#10;Remove unused&#10;fixed_values from&#10;ProvingKey" target="_blank">
<polygon fill="#c2e0c6" stroke="#000000" stroke-width="2" points="181,-712 38,-712 38,-644 181,-644 181,-712"/>
<text text-anchor="middle" x="109.5" y="-696.8" font-family="Times,serif" font-size="14.00" fill="#000000">zcash/halo2#57</text>
<text text-anchor="middle" x="109.5" y="-681.8" font-family="Times,serif" font-size="14.00" fill="#000000">Remove unused</text>
<text text-anchor="middle" x="109.5" y="-666.8" font-family="Times,serif" font-size="14.00" fill="#000000">fixed_values from</text>
<text text-anchor="middle" x="109.5" y="-651.8" font-family="Times,serif" font-size="14.00" fill="#000000">ProvingKey</text>
</a>
</g>
</g>
<!-- zcash/halo2#443 -->
<g id="node13" class="node open">
<title>zcash/halo2#443</title>
<g id="a_node13"><a xlink:href="https://github.com/zcash/halo2/issues/443" xlink:title="zcash/halo2#443&#10;implement `read` &amp;&#10;`write` for `halo2::plonk&#10;::ProvingKey`" target="_blank">
<polygon fill="#c2e0c6" stroke="#000000" points="465,-712 271,-712 271,-644 465,-644 465,-712"/>
<text text-anchor="middle" x="368" y="-696.8" font-family="Times,serif" font-size="14.00" fill="#000000">zcash/halo2#443</text>
<text text-anchor="middle" x="368" y="-681.8" font-family="Times,serif" font-size="14.00" fill="#000000">implement `read` &amp;</text>
<text text-anchor="middle" x="368" y="-666.8" font-family="Times,serif" font-size="14.00" fill="#000000">`write` for `halo2::plonk</text>
<text text-anchor="middle" x="368" y="-651.8" font-family="Times,serif" font-size="14.00" fill="#000000">::ProvingKey`</text>
</a>
</g>
</g>
<!-- zcash/halo2#57&#45;&gt;zcash/halo2#443 -->
<g id="edge10" class="edge">
<title>zcash/halo2#57&#45;&gt;zcash/halo2#443</title>
<path fill="none" stroke="#000000" d="M181.16,-678C205.67,-678 233.66,-678 260.37,-678"/>
<polygon fill="#000000" stroke="#000000" points="260.54,-681.5001 270.54,-678 260.54,-674.5001 260.54,-681.5001"/>
</g>
<!-- zcash/halo2#482 -->
<g id="node14" class="node open">
<title>zcash/halo2#482</title>
<g id="a_node14"><a xlink:href="https://github.com/zcash/halo2/issues/482" xlink:title="zcash/halo2#482&#10;Raise MSRV to 1.56.1" target="_blank">
<polygon fill="#c2e0c6" stroke="#000000" stroke-width="2" points="196,-768 23,-768 23,-730 196,-730 196,-768"/>
<text text-anchor="middle" x="109.5" y="-752.8" font-family="Times,serif" font-size="14.00" fill="#000000">zcash/halo2#482</text>
<text text-anchor="middle" x="109.5" y="-737.8" font-family="Times,serif" font-size="14.00" fill="#000000">Raise MSRV to 1.56.1</text>
</a>
</g>
</g>
<!-- zcash/halo2#483 -->
<g id="node15" class="node open">
<title>zcash/halo2#483</title>
<g id="a_node15"><a xlink:href="https://github.com/zcash/halo2/issues/483" xlink:title="zcash/halo2#483&#10;Refactor variable&#45;base&#10;scalar mul to distinguish&#10;the &quot;base field element&quot;&#10;case" target="_blank">
<polygon fill="#c2e0c6" stroke="#000000" stroke-width="2" points="465,-414.5 271,-414.5 271,-331.5 465,-331.5 465,-414.5"/>
<text text-anchor="middle" x="368" y="-399.3" font-family="Times,serif" font-size="14.00" fill="#000000">zcash/halo2#483</text>
<text text-anchor="middle" x="368" y="-384.3" font-family="Times,serif" font-size="14.00" fill="#000000">Refactor variable&#45;base</text>
<text text-anchor="middle" x="368" y="-369.3" font-family="Times,serif" font-size="14.00" fill="#000000">scalar mul to distinguish</text>
<text text-anchor="middle" x="368" y="-354.3" font-family="Times,serif" font-size="14.00" fill="#000000">the &quot;base field element&quot;</text>
<text text-anchor="middle" x="368" y="-339.3" font-family="Times,serif" font-size="14.00" fill="#000000">case</text>
</a>
</g>
</g>
<!-- zcash/halo2#483&#45;&gt;zcash/halo2#460 -->
<g id="edge11" class="edge">
<title>zcash/halo2#483&#45;&gt;zcash/halo2#460</title>
<path fill="none" stroke="#000000" d="M465.11,-370.25C480.66,-369.81 496.8,-369.36 512.49,-368.91"/>
<polygon fill="#000000" stroke="#000000" points="512.8232,-372.4021 522.72,-368.62 512.6248,-365.4049 512.8232,-372.4021"/>
</g>
<!-- zcash/halo2#420 -->
<g id="node16" class="node open">
<title>zcash/halo2#420</title>
<g id="a_node16"><a xlink:href="https://github.com/zcash/halo2/issues/420" xlink:title="zcash/halo2#420&#10;CI: Measure memory&#45;usage&#10;benchmarks" target="_blank">
<polygon fill="#c2e0c6" stroke="#000000" stroke-width="2" points="217,-839.5 2,-839.5 2,-786.5 217,-786.5 217,-839.5"/>
<text text-anchor="middle" x="109.5" y="-824.3" font-family="Times,serif" font-size="14.00" fill="#000000">zcash/halo2#420</text>
<text text-anchor="middle" x="109.5" y="-809.3" font-family="Times,serif" font-size="14.00" fill="#000000">CI: Measure memory&#45;usage</text>
<text text-anchor="middle" x="109.5" y="-794.3" font-family="Times,serif" font-size="14.00" fill="#000000">benchmarks</text>
</a>
</g>
</g>
<!-- zcash/halo2#418 -->
<g id="node17" class="node open">
<title>zcash/halo2#418</title>
<g id="a_node17"><a xlink:href="https://github.com/zcash/halo2/issues/418" xlink:title="zcash/halo2#418&#10;[memory optimization]&#10;lookup prover memory&#10;analysis" target="_blank">
<polygon fill="#c2e0c6" stroke="#000000" points="457.5,-847 278.5,-847 278.5,-779 457.5,-779 457.5,-847"/>
<text text-anchor="middle" x="368" y="-831.8" font-family="Times,serif" font-size="14.00" fill="#000000">zcash/halo2#418</text>
<text text-anchor="middle" x="368" y="-816.8" font-family="Times,serif" font-size="14.00" fill="#000000">[memory optimization]</text>
<text text-anchor="middle" x="368" y="-801.8" font-family="Times,serif" font-size="14.00" fill="#000000">lookup prover memory</text>
<text text-anchor="middle" x="368" y="-786.8" font-family="Times,serif" font-size="14.00" fill="#000000">analysis</text>
</a>
</g>
</g>
<!-- zcash/halo2#420&#45;&gt;zcash/halo2#418 -->
<g id="edge12" class="edge">
<title>zcash/halo2#420&#45;&gt;zcash/halo2#418</title>
<path fill="none" stroke="#000000" d="M217.26,-813C234.12,-813 251.49,-813 268.16,-813"/>
<polygon fill="#000000" stroke="#000000" points="268.45,-816.5001 278.45,-813 268.45,-809.5001 268.45,-816.5001"/>
</g>
<!-- zcash/halo2#425 -->
<g id="node18" class="node open">
<title>zcash/halo2#425</title>
<g id="a_node18"><a xlink:href="https://github.com/zcash/halo2/issues/425" xlink:title="zcash/halo2#425&#10;Make `Assigned&lt;F: Field&gt;`&#10;easier to use" target="_blank">
<polygon fill="#c2e0c6" stroke="#000000" stroke-width="2" points="219,-511.5 0,-511.5 0,-458.5 219,-458.5 219,-511.5"/>
<text text-anchor="middle" x="109.5" y="-496.3" font-family="Times,serif" font-size="14.00" fill="#000000">zcash/halo2#425</text>
<text text-anchor="middle" x="109.5" y="-481.3" font-family="Times,serif" font-size="14.00" fill="#000000">Make `Assigned&lt;F: Field&gt;`</text>
<text text-anchor="middle" x="109.5" y="-466.3" font-family="Times,serif" font-size="14.00" fill="#000000">easier to use</text>
</a>
</g>
</g>
<!-- zcash/halo2#425&#45;&gt;zcash/halo2#426 -->
<g id="edge13" class="edge">
<title>zcash/halo2#425&#45;&gt;zcash/halo2#426</title>
<path fill="none" stroke="#000000" d="M208.1,-458.43C212.01,-455.6 215.67,-452.47 219,-449 259.62,-406.67 214.02,-363.98 255,-322 260.13,-316.75 266.03,-312.28 272.38,-308.48"/>
<polygon fill="#000000" stroke="#000000" points="274.139,-311.5083 281.3,-303.7 270.8326,-305.3384 274.139,-311.5083"/>
</g>
<!-- zcash/halo2#427 -->
<g id="node19" class="node open">
<title>zcash/halo2#427</title>
<g id="a_node19"><a xlink:href="https://github.com/zcash/halo2/issues/427" xlink:title="zcash/halo2#427&#10;Use smaller extended&#10;domains where possible&#10;during proving" target="_blank">
<polygon fill="#c2e0c6" stroke="#000000" stroke-width="2" points="203.5,-926 15.5,-926 15.5,-858 203.5,-858 203.5,-926"/>
<text text-anchor="middle" x="109.5" y="-910.8" font-family="Times,serif" font-size="14.00" fill="#000000">zcash/halo2#427</text>
<text text-anchor="middle" x="109.5" y="-895.8" font-family="Times,serif" font-size="14.00" fill="#000000">Use smaller extended</text>
<text text-anchor="middle" x="109.5" y="-880.8" font-family="Times,serif" font-size="14.00" fill="#000000">domains where possible</text>
<text text-anchor="middle" x="109.5" y="-865.8" font-family="Times,serif" font-size="14.00" fill="#000000">during proving</text>
</a>
</g>
</g>
<!-- zcash/halo2#456 -->
<g id="node20" class="node open">
<title>zcash/halo2#456</title>
<g id="a_node20"><a xlink:href="https://github.com/zcash/halo2/issues/456" xlink:title="zcash/halo2#456&#10;Benchmark `sha256`&#10;gadget." target="_blank">
<polygon fill="#c2e0c6" stroke="#000000" stroke-width="2" points="194.5,-997.5 24.5,-997.5 24.5,-944.5 194.5,-944.5 194.5,-997.5"/>
<text text-anchor="middle" x="109.5" y="-982.3" font-family="Times,serif" font-size="14.00" fill="#000000">zcash/halo2#456</text>
<text text-anchor="middle" x="109.5" y="-967.3" font-family="Times,serif" font-size="14.00" fill="#000000">Benchmark `sha256`</text>
<text text-anchor="middle" x="109.5" y="-952.3" font-family="Times,serif" font-size="14.00" fill="#000000">gadget.</text>
</a>
</g>
</g>
<!-- zcash/halo2#455 -->
<g id="node21" class="node open">
<title>zcash/halo2#455</title>
<g id="a_node21"><a xlink:href="https://github.com/zcash/halo2/issues/455" xlink:title="zcash/halo2#455&#10;[Book] add description of&#10;Poseidon gadget and chip" target="_blank">
<polygon fill="#c2e0c6" stroke="#000000" stroke-width="2" points="209.5,-1068.5 9.5,-1068.5 9.5,-1015.5 209.5,-1015.5 209.5,-1068.5"/>
<text text-anchor="middle" x="109.5" y="-1053.3" font-family="Times,serif" font-size="14.00" fill="#000000">zcash/halo2#455</text>
<text text-anchor="middle" x="109.5" y="-1038.3" font-family="Times,serif" font-size="14.00" fill="#000000">[Book] add description of</text>
<text text-anchor="middle" x="109.5" y="-1023.3" font-family="Times,serif" font-size="14.00" fill="#000000">Poseidon gadget and chip</text>
</a>
</g>
</g>
<!-- zcash/halo2#251 -->
<g id="node22" class="node open">
<title>zcash/halo2#251</title>
<g id="a_node22"><a xlink:href="https://github.com/zcash/halo2/issues/251" xlink:title="zcash/halo2#251&#10;Implement user&#45;facing API&#10;for recursive proving of&#10;IVC" target="_blank">
<polygon fill="#c2e0c6" stroke="#000000" points="1202,-577 992,-577 992,-509 1202,-509 1202,-577"/>
<text text-anchor="middle" x="1097" y="-561.8" font-family="Times,serif" font-size="14.00" fill="#000000">zcash/halo2#251</text>
<text text-anchor="middle" x="1097" y="-546.8" font-family="Times,serif" font-size="14.00" fill="#000000">Implement user&#45;facing API</text>
<text text-anchor="middle" x="1097" y="-531.8" font-family="Times,serif" font-size="14.00" fill="#000000">for recursive proving of</text>
<text text-anchor="middle" x="1097" y="-516.8" font-family="Times,serif" font-size="14.00" fill="#000000">IVC</text>
</a>
</g>
</g>
<!-- zcash/halo2#251&#45;&gt;zcash/halo2#75 -->
<g id="edge14" class="edge">
<title>zcash/halo2#251&#45;&gt;zcash/halo2#75</title>
<path fill="none" stroke="#000000" d="M1202.2,-569.72C1216.5,-573.37 1231.3,-577.11 1245.5,-580.73"/>
<polygon fill="#000000" stroke="#000000" points="1244.746,-584.1496 1255.3,-583.22 1246.4699,-577.3651 1244.746,-584.1496"/>
</g>
<!-- zcash/halo2#437 -->
<g id="node23" class="node open">
<title>zcash/halo2#437</title>
<g id="a_node23"><a xlink:href="https://github.com/zcash/halo2/issues/437" xlink:title="zcash/halo2#437&#10;Amend user&#45;facing API to&#10;work for both IVC and PCD" target="_blank">
<polygon fill="#c2e0c6" stroke="#000000" points="1452,-538.5 1238,-538.5 1238,-485.5 1452,-485.5 1452,-538.5"/>
<text text-anchor="middle" x="1345" y="-523.3" font-family="Times,serif" font-size="14.00" fill="#000000">zcash/halo2#437</text>
<text text-anchor="middle" x="1345" y="-508.3" font-family="Times,serif" font-size="14.00" fill="#000000">Amend user&#45;facing API to</text>
<text text-anchor="middle" x="1345" y="-493.3" font-family="Times,serif" font-size="14.00" fill="#000000">work for both IVC and PCD</text>
</a>
</g>
</g>
<!-- zcash/halo2#251&#45;&gt;zcash/halo2#437 -->
<g id="edge15" class="edge">
<title>zcash/halo2#251&#45;&gt;zcash/halo2#437</title>
<path fill="none" stroke="#000000" d="M1202.2,-529.85C1210.6,-528.8 1219.2,-527.73 1227.7,-526.66"/>
<polygon fill="#000000" stroke="#000000" points="1228.2114,-530.1234 1237.7,-525.41 1227.3431,-523.1775 1228.2114,-530.1234"/>
</g>
<!-- zcash/halo2#436 -->
<g id="node24" class="node open">
<title>zcash/halo2#436</title>
<g id="a_node24"><a xlink:href="https://github.com/zcash/halo2/issues/436" xlink:title="zcash/halo2#436&#10;Implement mock&#10;verification circuit for&#10;PCD" target="_blank">
<polygon fill="#c2e0c6" stroke="#000000" points="703,-479 528,-479 528,-411 703,-411 703,-479"/>
<text text-anchor="middle" x="615.5" y="-463.8" font-family="Times,serif" font-size="14.00" fill="#000000">zcash/halo2#436</text>
<text text-anchor="middle" x="615.5" y="-448.8" font-family="Times,serif" font-size="14.00" fill="#000000">Implement mock</text>
<text text-anchor="middle" x="615.5" y="-433.8" font-family="Times,serif" font-size="14.00" fill="#000000">verification circuit for</text>
<text text-anchor="middle" x="615.5" y="-418.8" font-family="Times,serif" font-size="14.00" fill="#000000">PCD</text>
</a>
</g>
</g>
<!-- zcash/halo2#436&#45;&gt;zcash/halo2#437 -->
<g id="edge16" class="edge">
<title>zcash/halo2#436&#45;&gt;zcash/halo2#437</title>
<path fill="none" stroke="#000000" d="M703.36,-455.87C718.89,-457.67 734.91,-459.46 750,-461 796.08,-465.71 1067.8,-488.7 1227.6,-502.15"/>
<polygon fill="#000000" stroke="#000000" points="1227.743,-505.6741 1238,-503.02 1228.3266,-498.6985 1227.743,-505.6741"/>
</g>
<!-- zcash/halo2#438 -->
<g id="node25" class="node open">
<title>zcash/halo2#438</title>
<g id="a_node25"><a xlink:href="https://github.com/zcash/halo2/issues/438" xlink:title="zcash/halo2#438&#10;Implement the logic for&#10;the PCD verifier circuit" target="_blank">
<polygon fill="#c2e0c6" stroke="#000000" points="946,-452.5 760,-452.5 760,-399.5 946,-399.5 946,-452.5"/>
<text text-anchor="middle" x="853" y="-437.3" font-family="Times,serif" font-size="14.00" fill="#000000">zcash/halo2#438</text>
<text text-anchor="middle" x="853" y="-422.3" font-family="Times,serif" font-size="14.00" fill="#000000">Implement the logic for</text>
<text text-anchor="middle" x="853" y="-407.3" font-family="Times,serif" font-size="14.00" fill="#000000">the PCD verifier circuit</text>
</a>
</g>
</g>
<!-- zcash/halo2#436&#45;&gt;zcash/halo2#438 -->
<g id="edge17" class="edge">
<title>zcash/halo2#436&#45;&gt;zcash/halo2#438</title>
<path fill="none" stroke="#000000" d="M703.26,-437.98C718.33,-436.77 734.11,-435.51 749.54,-434.28"/>
<polygon fill="#000000" stroke="#000000" points="749.9325,-437.7598 759.62,-433.47 749.3718,-430.7823 749.9325,-437.7598"/>
</g>
<!-- zcash/halo2#435 -->
<g id="node26" class="node open">
<title>zcash/halo2#435</title>
<g id="a_node26"><a xlink:href="https://github.com/zcash/halo2/issues/435" xlink:title="zcash/halo2#435&#10;Implement mock&#10;verification circuit for&#10;IVC" target="_blank">
<polygon fill="#c2e0c6" stroke="#000000" points="703,-637 528,-637 528,-569 703,-569 703,-637"/>
<text text-anchor="middle" x="615.5" y="-621.8" font-family="Times,serif" font-size="14.00" fill="#000000">zcash/halo2#435</text>
<text text-anchor="middle" x="615.5" y="-606.8" font-family="Times,serif" font-size="14.00" fill="#000000">Implement mock</text>
<text text-anchor="middle" x="615.5" y="-591.8" font-family="Times,serif" font-size="14.00" fill="#000000">verification circuit for</text>
<text text-anchor="middle" x="615.5" y="-576.8" font-family="Times,serif" font-size="14.00" fill="#000000">IVC</text>
</a>
</g>
</g>
<!-- zcash/halo2#247 -->
<g id="node27" class="node open">
<title>zcash/halo2#247</title>
<g id="a_node27"><a xlink:href="https://github.com/zcash/halo2/issues/247" xlink:title="zcash/halo2#247&#10;Implement underlying&#10;scaffolding for creating&#10;the IVC proof cycle" target="_blank">
<polygon fill="#c2e0c6" stroke="#000000" points="945.5,-577 760.5,-577 760.5,-509 945.5,-509 945.5,-577"/>
<text text-anchor="middle" x="853" y="-561.8" font-family="Times,serif" font-size="14.00" fill="#000000">zcash/halo2#247</text>
<text text-anchor="middle" x="853" y="-546.8" font-family="Times,serif" font-size="14.00" fill="#000000">Implement underlying</text>
<text text-anchor="middle" x="853" y="-531.8" font-family="Times,serif" font-size="14.00" fill="#000000">scaffolding for creating</text>
<text text-anchor="middle" x="853" y="-516.8" font-family="Times,serif" font-size="14.00" fill="#000000">the IVC proof cycle</text>
</a>
</g>
</g>
<!-- zcash/halo2#435&#45;&gt;zcash/halo2#247 -->
<g id="edge18" class="edge">
<title>zcash/halo2#435&#45;&gt;zcash/halo2#247</title>
<path fill="none" stroke="#000000" d="M703.26,-580.83C718.69,-576.93 734.87,-572.84 750.66,-568.86"/>
<polygon fill="#000000" stroke="#000000" points="751.5843,-572.2365 760.42,-566.39 749.8669,-565.4504 751.5843,-572.2365"/>
</g>
<!-- zcash/halo2#247&#45;&gt;zcash/halo2#250 -->
<g id="edge19" class="edge">
<title>zcash/halo2#247&#45;&gt;zcash/halo2#250</title>
<path fill="none" stroke="#000000" d="M937.17,-577.06C943.59,-579.99 949.93,-582.98 956,-586 986.53,-601.17 1019.5,-620.21 1045.9,-636.12"/>
<polygon fill="#000000" stroke="#000000" points="1044.2316,-639.2012 1054.6,-641.38 1047.8533,-633.211 1044.2316,-639.2012"/>
</g>
<!-- zcash/halo2#247&#45;&gt;zcash/halo2#251 -->
<g id="edge20" class="edge">
<title>zcash/halo2#247&#45;&gt;zcash/halo2#251</title>
<path fill="none" stroke="#000000" d="M945.59,-543C957.39,-543 969.58,-543 981.68,-543"/>
<polygon fill="#000000" stroke="#000000" points="981.81,-546.5001 991.81,-543 981.81,-539.5001 981.81,-546.5001"/>
</g>
<!-- zcash/halo2#246 -->
<g id="node28" class="node open">
<title>zcash/halo2#246</title>
<g id="a_node28"><a xlink:href="https://github.com/zcash/halo2/issues/246" xlink:title="zcash/halo2#246&#10;Create recursive proof&#10;structures" target="_blank">
<polygon fill="#c2e0c6" stroke="#000000" points="457.5,-625.5 278.5,-625.5 278.5,-572.5 457.5,-572.5 457.5,-625.5"/>
<text text-anchor="middle" x="368" y="-610.3" font-family="Times,serif" font-size="14.00" fill="#000000">zcash/halo2#246</text>
<text text-anchor="middle" x="368" y="-595.3" font-family="Times,serif" font-size="14.00" fill="#000000">Create recursive proof</text>
<text text-anchor="middle" x="368" y="-580.3" font-family="Times,serif" font-size="14.00" fill="#000000">structures</text>
</a>
</g>
</g>
<!-- zcash/halo2#246&#45;&gt;zcash/halo2#436 -->
<g id="edge21" class="edge">
<title>zcash/halo2#246&#45;&gt;zcash/halo2#436</title>
<path fill="none" stroke="#000000" d="M399.37,-572.29C428.55,-548.27 473.9,-513.02 517,-488 519.5,-486.55 522.05,-485.12 524.65,-483.71"/>
<polygon fill="#000000" stroke="#000000" points="526.387,-486.7511 533.61,-479 523.1299,-480.555 526.387,-486.7511"/>
</g>
<!-- zcash/halo2#246&#45;&gt;zcash/halo2#435 -->
<g id="edge22" class="edge">
<title>zcash/halo2#246&#45;&gt;zcash/halo2#435</title>
<path fill="none" stroke="#000000" d="M457.7,-600.45C477.14,-600.76 497.79,-601.1 517.53,-601.42"/>
<polygon fill="#000000" stroke="#000000" points="517.7065,-604.9231 527.76,-601.58 517.816,-597.9239 517.7065,-604.9231"/>
</g>
<!-- zcash/halo2#439 -->
<g id="node29" class="node open">
<title>zcash/halo2#439</title>
<g id="a_node29"><a xlink:href="https://github.com/zcash/halo2/issues/439" xlink:title="zcash/halo2#439&#10;Support split&#10;accumulation in Halo 2" target="_blank">
<polygon fill="#c2e0c6" stroke="#000000" stroke-width="2" points="201,-625.5 18,-625.5 18,-572.5 201,-572.5 201,-625.5"/>
<text text-anchor="middle" x="109.5" y="-610.3" font-family="Times,serif" font-size="14.00" fill="#000000">zcash/halo2#439</text>
<text text-anchor="middle" x="109.5" y="-595.3" font-family="Times,serif" font-size="14.00" fill="#000000">Support split</text>
<text text-anchor="middle" x="109.5" y="-580.3" font-family="Times,serif" font-size="14.00" fill="#000000">accumulation in Halo 2</text>
</a>
</g>
</g>
<!-- zcash/halo2#439&#45;&gt;zcash/halo2#246 -->
<g id="edge23" class="edge">
<title>zcash/halo2#439&#45;&gt;zcash/halo2#246</title>
<path fill="none" stroke="#000000" d="M201,-599C222.79,-599 246.15,-599 268.29,-599"/>
<polygon fill="#000000" stroke="#000000" points="268.36,-602.5001 278.36,-599 268.36,-595.5001 268.36,-602.5001"/>
</g>
<!-- zcash/halo2#359 -->
<g id="node30" class="node open">
<title>zcash/halo2#359</title>
<g id="a_node30"><a xlink:href="https://github.com/zcash/halo2/issues/359" xlink:title="zcash/halo2#359&#10;Set up `BaseTranscript`,&#10;`ScalarTranscript`" target="_blank">
<polygon fill="#c2e0c6" stroke="#000000" stroke-width="2" points="714,-550.5 517,-550.5 517,-497.5 714,-497.5 714,-550.5"/>
<text text-anchor="middle" x="615.5" y="-535.3" font-family="Times,serif" font-size="14.00" fill="#000000">zcash/halo2#359</text>
<text text-anchor="middle" x="615.5" y="-520.3" font-family="Times,serif" font-size="14.00" fill="#000000">Set up `BaseTranscript`,</text>
<text text-anchor="middle" x="615.5" y="-505.3" font-family="Times,serif" font-size="14.00" fill="#000000">`ScalarTranscript`</text>
</a>
</g>
</g>
<!-- zcash/halo2#359&#45;&gt;zcash/halo2#247 -->
<g id="edge24" class="edge">
<title>zcash/halo2#359&#45;&gt;zcash/halo2#247</title>
<path fill="none" stroke="#000000" d="M714.16,-531.89C726.11,-532.85 738.33,-533.83 750.34,-534.79"/>
<polygon fill="#000000" stroke="#000000" points="750.1131,-538.2829 760.36,-535.59 750.6703,-531.3051 750.1131,-538.2829"/>
</g>
<!-- zcash/halo2#249 -->
<g id="node31" class="node open">
<title>zcash/halo2#249</title>
<g id="a_node31"><a xlink:href="https://github.com/zcash/halo2/issues/249" xlink:title="zcash/halo2#249&#10;Implement recursion&#10;circuit logic for&#10;handling public inputs" target="_blank">
<polygon fill="#c2e0c6" stroke="#000000" stroke-width="2" points="941.5,-821 764.5,-821 764.5,-753 941.5,-753 941.5,-821"/>
<text text-anchor="middle" x="853" y="-805.8" font-family="Times,serif" font-size="14.00" fill="#000000">zcash/halo2#249</text>
<text text-anchor="middle" x="853" y="-790.8" font-family="Times,serif" font-size="14.00" fill="#000000">Implement recursion</text>
<text text-anchor="middle" x="853" y="-775.8" font-family="Times,serif" font-size="14.00" fill="#000000">circuit logic for</text>
<text text-anchor="middle" x="853" y="-760.8" font-family="Times,serif" font-size="14.00" fill="#000000">handling public inputs</text>
</a>
</g>
</g>
<!-- zcash/halo2#249&#45;&gt;zcash/halo2#250 -->
<g id="edge25" class="edge">
<title>zcash/halo2#249&#45;&gt;zcash/halo2#250</title>
<path fill="none" stroke="#000000" d="M934.53,-752.93C941.83,-749.65 949.07,-746.32 956,-743 984.3,-729.46 1015.1,-713.23 1040.7,-699.34"/>
<polygon fill="#000000" stroke="#000000" points="1042.397,-702.4012 1049.5,-694.54 1039.045,-696.2559 1042.397,-702.4012"/>
</g>
<!-- zcash/halo2#449 -->
<g id="node32" class="node open">
<title>zcash/halo2#449</title>
<g id="a_node32"><a xlink:href="https://github.com/zcash/halo2/issues/449" xlink:title="zcash/halo2#449&#10;`VerifyingKey`&#10;serialization is not&#10;round&#45;trip compatible" target="_blank">
<polygon fill="#c2e0c6" stroke="#000000" stroke-width="2" points="196,-440 23,-440 23,-372 196,-372 196,-440"/>
<text text-anchor="middle" x="109.5" y="-424.8" font-family="Times,serif" font-size="14.00" fill="#000000">zcash/halo2#449</text>
<text text-anchor="middle" x="109.5" y="-409.8" font-family="Times,serif" font-size="14.00" fill="#000000">`VerifyingKey`</text>
<text text-anchor="middle" x="109.5" y="-394.8" font-family="Times,serif" font-size="14.00" fill="#000000">serialization is not</text>
<text text-anchor="middle" x="109.5" y="-379.8" font-family="Times,serif" font-size="14.00" fill="#000000">round&#45;trip compatible</text>
</a>
</g>
</g>
<!-- zcash/halo2#449&#45;&gt;zcash/halo2#426 -->
<g id="edge26" class="edge">
<title>zcash/halo2#449&#45;&gt;zcash/halo2#426</title>
<path fill="none" stroke="#000000" d="M196.06,-375.64C204.08,-371.53 211.86,-366.99 219,-362 238.6,-348.3 234.85,-334.89 255,-322 260.34,-318.59 266.03,-315.49 271.91,-312.68"/>
<polygon fill="#000000" stroke="#000000" points="273.587,-315.7643 281.29,-308.49 270.732,-309.3729 273.587,-315.7643"/>
</g>
<!-- zcash/halo2#398 -->
<g id="node33" class="node open">
<title>zcash/halo2#398</title>
<g id="a_node33"><a xlink:href="https://github.com/zcash/halo2/issues/398" xlink:title="zcash/halo2#398&#10;[MockProver] Testing is&#10;slower after #389" target="_blank">
<polygon fill="#c2e0c6" stroke="#000000" stroke-width="2" points="204,-353.5 15,-353.5 15,-300.5 204,-300.5 204,-353.5"/>
<text text-anchor="middle" x="109.5" y="-338.3" font-family="Times,serif" font-size="14.00" fill="#000000">zcash/halo2#398</text>
<text text-anchor="middle" x="109.5" y="-323.3" font-family="Times,serif" font-size="14.00" fill="#000000">[MockProver] Testing is</text>
<text text-anchor="middle" x="109.5" y="-308.3" font-family="Times,serif" font-size="14.00" fill="#000000">slower after #389</text>
</a>
</g>
</g>
<!-- zcash/halo2#398&#45;&gt;zcash/halo2#426 -->
<g id="edge27" class="edge">
<title>zcash/halo2#398&#45;&gt;zcash/halo2#426</title>
<path fill="none" stroke="#000000" d="M204.29,-312.33C226.16,-308.95 249.44,-305.35 271.39,-301.95"/>
<polygon fill="#000000" stroke="#000000" points="272.0115,-305.3956 281.36,-300.41 270.9429,-298.4776 272.0115,-305.3956"/>
</g>
<!-- zcash/halo2#445 -->
<g id="node34" class="node open">
<title>zcash/halo2#445</title>
<g id="a_node34"><a xlink:href="https://github.com/zcash/halo2/pull/445" xlink:title="zcash/halo2#445&#10;Fix mock prover&#10;performance regression&#10;for lookup arguments" target="_blank">
<polygon fill="#c2e0c6" stroke="#000000" stroke-width="2" points="203.5,-282 15.5,-282 15.5,-278 11.5,-278 11.5,-274 15.5,-274 15.5,-222 11.5,-222 11.5,-218 15.5,-218 15.5,-214 203.5,-214 203.5,-282"/>
<polyline fill="none" stroke="#000000" stroke-width="2" points="15.5,-278 19.5,-278 19.5,-274 15.5,-274 "/>
<polyline fill="none" stroke="#000000" stroke-width="2" points="15.5,-222 19.5,-222 19.5,-218 15.5,-218 "/>
<text text-anchor="middle" x="109.5" y="-266.8" font-family="Times,serif" font-size="14.00" fill="#000000">zcash/halo2#445</text>
<text text-anchor="middle" x="109.5" y="-251.8" font-family="Times,serif" font-size="14.00" fill="#000000">Fix mock prover</text>
<text text-anchor="middle" x="109.5" y="-236.8" font-family="Times,serif" font-size="14.00" fill="#000000">performance regression</text>
<text text-anchor="middle" x="109.5" y="-221.8" font-family="Times,serif" font-size="14.00" fill="#000000">for lookup arguments</text>
</a>
</g>
</g>
<!-- zcash/halo2#445&#45;&gt;zcash/halo2#426 -->
<g id="edge28" class="edge">
<title>zcash/halo2#445&#45;&gt;zcash/halo2#426</title>
<path fill="none" stroke="#000000" d="M203.56,-262.19C225.59,-265.51 249.1,-269.06 271.25,-272.4"/>
<polygon fill="#000000" stroke="#000000" points="270.9096,-275.8882 281.32,-273.92 271.9544,-268.9666 270.9096,-275.8882"/>
</g>
<!-- zcash/halo2#506 -->
<g id="node35" class="node open">
<title>zcash/halo2#506</title>
<g id="a_node35"><a xlink:href="https://github.com/zcash/halo2/issues/506" xlink:title="zcash/halo2#506&#10;Docs not rendering on&#10;docs.rs" target="_blank">
<polygon fill="#c2e0c6" stroke="#000000" stroke-width="2" points="197.5,-195.5 21.5,-195.5 21.5,-142.5 197.5,-142.5 197.5,-195.5"/>
<text text-anchor="middle" x="109.5" y="-180.3" font-family="Times,serif" font-size="14.00" fill="#000000">zcash/halo2#506</text>
<text text-anchor="middle" x="109.5" y="-165.3" font-family="Times,serif" font-size="14.00" fill="#000000">Docs not rendering on</text>
<text text-anchor="middle" x="109.5" y="-150.3" font-family="Times,serif" font-size="14.00" fill="#000000">docs.rs</text>
</a>
</g>
</g>
<!-- zcash/halo2#506&#45;&gt;zcash/halo2#426 -->
<g id="edge29" class="edge">
<title>zcash/halo2#506&#45;&gt;zcash/halo2#426</title>
<path fill="none" stroke="#000000" d="M195.55,-195.6C203.55,-198.58 211.48,-201.73 219,-205 252.23,-219.46 287.84,-238.9 315.91,-255.22"/>
<polygon fill="#000000" stroke="#000000" points="314.3526,-258.364 324.75,-260.4 317.8916,-252.3245 314.3526,-258.364"/>
</g>
<!-- zcash/halo2#480 -->
<g id="node36" class="node open">
<title>zcash/halo2#480</title>
<g id="a_node36"><a xlink:href="https://github.com/zcash/halo2/pull/480" xlink:title="zcash/halo2#480&#10;Add `MockProver::assert_s&#10;atisfied` with pretty&#45;&#10;printed failures" target="_blank">
<polygon fill="#c2e0c6" stroke="#000000" stroke-width="2" points="216,-124 3,-124 3,-120 -1,-120 -1,-116 3,-116 3,-64 -1,-64 -1,-60 3,-60 3,-56 216,-56 216,-124"/>
<polyline fill="none" stroke="#000000" stroke-width="2" points="3,-120 7,-120 7,-116 3,-116 "/>
<polyline fill="none" stroke="#000000" stroke-width="2" points="3,-64 7,-64 7,-60 3,-60 "/>
<text text-anchor="middle" x="109.5" y="-108.8" font-family="Times,serif" font-size="14.00" fill="#000000">zcash/halo2#480</text>
<text text-anchor="middle" x="109.5" y="-93.8" font-family="Times,serif" font-size="14.00" fill="#000000">Add `MockProver::assert_s</text>
<text text-anchor="middle" x="109.5" y="-78.8" font-family="Times,serif" font-size="14.00" fill="#000000">atisfied` with pretty&#45;</text>
<text text-anchor="middle" x="109.5" y="-63.8" font-family="Times,serif" font-size="14.00" fill="#000000">printed failures</text>
</a>
</g>
</g>
<!-- zcash/halo2#480&#45;&gt;zcash/halo2#426 -->
<g id="edge30" class="edge">
<title>zcash/halo2#480&#45;&gt;zcash/halo2#426</title>
<path fill="none" stroke="#000000" d="M204.03,-124.02C209.21,-126.83 214.24,-129.83 219,-133 268.72,-166.15 314.7,-218.33 342.07,-252.6"/>
<polygon fill="#000000" stroke="#000000" points="339.3413,-254.7922 348.28,-260.48 344.8393,-250.4594 339.3413,-254.7922"/>
</g>
<!-- zcash/halo2#248 -->
<g id="node37" class="node open">
<title>zcash/halo2#248</title>
<g id="a_node37"><a xlink:href="https://github.com/zcash/halo2/issues/248" xlink:title="zcash/halo2#248&#10;Implement endoscaling in&#10;the circuit" target="_blank">
<polygon fill="#c2e0c6" stroke="#000000" stroke-width="2" points="954.5,-734.5 751.5,-734.5 751.5,-681.5 954.5,-681.5 954.5,-734.5"/>
<text text-anchor="middle" x="853" y="-719.3" font-family="Times,serif" font-size="14.00" fill="#000000">zcash/halo2#248</text>
<text text-anchor="middle" x="853" y="-704.3" font-family="Times,serif" font-size="14.00" fill="#000000">Implement endoscaling in</text>
<text text-anchor="middle" x="853" y="-689.3" font-family="Times,serif" font-size="14.00" fill="#000000">the circuit</text>
</a>
</g>
</g>
<!-- zcash/halo2#248&#45;&gt;zcash/halo2#250 -->
<g id="edge31" class="edge">
<title>zcash/halo2#248&#45;&gt;zcash/halo2#250</title>
<path fill="none" stroke="#000000" d="M954.71,-691.33C967.51,-689.23 980.61,-687.08 993.43,-684.98"/>
<polygon fill="#000000" stroke="#000000" points="994.3042,-688.3831 1003.6,-683.3 993.1632,-681.4767 994.3042,-688.3831"/>
</g>
<!-- zcash/halo2#245 -->
<g id="node38" class="node open">
<title>zcash/halo2#245</title>
<g id="a_node38"><a xlink:href="https://github.com/zcash/halo2/issues/245" xlink:title="zcash/halo2#245&#10;Remove the need to&#10;multiply by powers of x^n&#10;in verifier" target="_blank">
<polygon fill="#c2e0c6" stroke="#000000" stroke-width="2" points="956,-663 750,-663 750,-595 956,-595 956,-663"/>
<text text-anchor="middle" x="853" y="-647.8" font-family="Times,serif" font-size="14.00" fill="#000000">zcash/halo2#245</text>
<text text-anchor="middle" x="853" y="-632.8" font-family="Times,serif" font-size="14.00" fill="#000000">Remove the need to</text>
<text text-anchor="middle" x="853" y="-617.8" font-family="Times,serif" font-size="14.00" fill="#000000">multiply by powers of x^n</text>
<text text-anchor="middle" x="853" y="-602.8" font-family="Times,serif" font-size="14.00" fill="#000000">in verifier</text>
</a>
</g>
</g>
<!-- zcash/halo2#245&#45;&gt;zcash/halo2#250 -->
<g id="edge32" class="edge">
<title>zcash/halo2#245&#45;&gt;zcash/halo2#250</title>
<path fill="none" stroke="#000000" d="M956.12,-645.48C968.65,-647.48 981.44,-649.53 993.96,-651.53"/>
<polygon fill="#000000" stroke="#000000" points="993.4727,-654.9965 1003.9,-653.12 994.5784,-648.0843 993.4727,-654.9965"/>
</g>
<!-- zcash/halo2#312 -->
<g id="node39" class="node open">
<title>zcash/halo2#312</title>
<g id="a_node39"><a xlink:href="https://github.com/zcash/halo2/issues/312" xlink:title="zcash/halo2#312&#10;[Book] Document gadget&#10;API" target="_blank">
<polygon fill="#c2e0c6" stroke="#000000" stroke-width="2" points="207,-1139.5 12,-1139.5 12,-1086.5 207,-1086.5 207,-1139.5"/>
<text text-anchor="middle" x="109.5" y="-1124.3" font-family="Times,serif" font-size="14.00" fill="#000000">zcash/halo2#312</text>
<text text-anchor="middle" x="109.5" y="-1109.3" font-family="Times,serif" font-size="14.00" fill="#000000">[Book] Document gadget</text>
<text text-anchor="middle" x="109.5" y="-1094.3" font-family="Times,serif" font-size="14.00" fill="#000000">API</text>
</a>
</g>
</g>
<!-- zcash/pasta_curves#23 -->
<g id="node40" class="node open">
<title>zcash/pasta_curves#23</title>
<g id="a_node40"><a xlink:href="https://github.com/zcash/pasta_curves/pull/23" xlink:title="zcash/pasta_curves#23&#10;Ensure that GitHub&#39;s&#10;&quot;View license&quot; link&#10;points to complete&#10;license information" target="_blank">
<polygon fill="#c2e0c6" stroke="#000000" stroke-width="2" points="202.5,-1240.5 16.5,-1240.5 16.5,-1236.5 12.5,-1236.5 12.5,-1232.5 16.5,-1232.5 16.5,-1165.5 12.5,-1165.5 12.5,-1161.5 16.5,-1161.5 16.5,-1157.5 202.5,-1157.5 202.5,-1240.5"/>
<polyline fill="none" stroke="#000000" stroke-width="2" points="16.5,-1236.5 20.5,-1236.5 20.5,-1232.5 16.5,-1232.5 "/>
<polyline fill="none" stroke="#000000" stroke-width="2" points="16.5,-1165.5 20.5,-1165.5 20.5,-1161.5 16.5,-1161.5 "/>
<text text-anchor="middle" x="109.5" y="-1225.3" font-family="Times,serif" font-size="14.00" fill="#000000">zcash/pasta_curves#23</text>
<text text-anchor="middle" x="109.5" y="-1210.3" font-family="Times,serif" font-size="14.00" fill="#000000">Ensure that GitHub&#39;s</text>
<text text-anchor="middle" x="109.5" y="-1195.3" font-family="Times,serif" font-size="14.00" fill="#000000">&quot;View license&quot; link</text>
<text text-anchor="middle" x="109.5" y="-1180.3" font-family="Times,serif" font-size="14.00" fill="#000000">points to complete</text>
<text text-anchor="middle" x="109.5" y="-1165.3" font-family="Times,serif" font-size="14.00" fill="#000000">license information</text>
</a>
</g>
</g>
</g>
</svg>
