<?xml version="1.0" encoding="UTF-8" standalone="no"?>
<?xml-stylesheet href="zcash-dag.css" type="text/css"?>
<!DOCTYPE svg PUBLIC "-//W3C//DTD SVG 1.1//EN"
 "http://www.w3.org/Graphics/SVG/1.1/DTD/svg11.dtd">
<!-- Generated by graphviz version 2.40.1 (20161225.0304)
 -->
<!-- Pages: 1 -->
<svg width="1449pt" height="1030pt"
 viewBox="0.00 0.00 1449.00 1030.00" xmlns="http://www.w3.org/2000/svg" xmlns:xlink="http://www.w3.org/1999/xlink">
<g id="graph0" class="graph" transform="scale(1 1) rotate(0) translate(4 1026)">
<polygon fill="#ffffff" stroke="transparent" points="-4,4 -4,-1026 1445,-1026 1445,4 -4,4"/>
<!-- zcash/halo2#426 -->
<g id="node1" class="node open">
<title>zcash/halo2#426</title>
<g id="a_node1"><a xlink:href="https://github.com/zcash/halo2/issues/426" xlink:title="zcash/halo2#426&#10;Publish `halo2_proofs&#10;0.1.0`" target="_blank">
<polygon fill="#c2e0c6" stroke="#000000" points="691,-229 518,-229 518,-176 691,-176 691,-229"/>
<text text-anchor="middle" x="604.5" y="-213.8" font-family="Times,serif" font-size="14.00" fill="#000000">zcash/halo2#426</text>
<text text-anchor="middle" x="604.5" y="-198.8" font-family="Times,serif" font-size="14.00" fill="#000000">Publish `halo2_proofs</text>
<text text-anchor="middle" x="604.5" y="-183.8" font-family="Times,serif" font-size="14.00" fill="#000000">0.1.0`</text>
</a>
</g>
</g>
<!-- zcash/halo2#460 -->
<g id="node2" class="node open">
<title>zcash/halo2#460</title>
<g id="a_node2"><a xlink:href="https://github.com/zcash/halo2/issues/460" xlink:title="zcash/halo2#460&#10;Publish `halo2_gadgets&#10;v0.1.0`" target="_blank">
<polygon fill="#c2e0c6" stroke="#000000" points="934.5,-154 749.5,-154 749.5,-101 934.5,-101 934.5,-154"/>
<text text-anchor="middle" x="842" y="-138.8" font-family="Times,serif" font-size="14.00" fill="#000000">zcash/halo2#460</text>
<text text-anchor="middle" x="842" y="-123.8" font-family="Times,serif" font-size="14.00" fill="#000000">Publish `halo2_gadgets</text>
<text text-anchor="middle" x="842" y="-108.8" font-family="Times,serif" font-size="14.00" fill="#000000">v0.1.0`</text>
</a>
</g>
</g>
<!-- zcash/halo2#426&#45;&gt;zcash/halo2#460 -->
<g id="edge1" class="edge">
<title>zcash/halo2#426&#45;&gt;zcash/halo2#460</title>
<path fill="none" stroke="#000000" d="M688.57,-175.95C707.95,-169.83 728.68,-163.29 748.44,-157.05"/>
<polygon fill="#000000" stroke="#000000" points="749.5713,-160.3631 758.05,-154.01 747.46,-153.6891 749.5713,-160.3631"/>
</g>
<!-- zcash/halo2#404 -->
<g id="node3" class="node open">
<title>zcash/halo2#404</title>
<g id="a_node3"><a xlink:href="https://github.com/zcash/halo2/issues/404" xlink:title="zcash/halo2#404&#10;Publish `halo2_proofs&#10;0.1.0&#45;beta.2`" target="_blank">
<polygon fill="#c2e0c6" stroke="#000000" points="447,-152 274,-152 274,-99 447,-99 447,-152"/>
<text text-anchor="middle" x="360.5" y="-136.8" font-family="Times,serif" font-size="14.00" fill="#000000">zcash/halo2#404</text>
<text text-anchor="middle" x="360.5" y="-121.8" font-family="Times,serif" font-size="14.00" fill="#000000">Publish `halo2_proofs</text>
<text text-anchor="middle" x="360.5" y="-106.8" font-family="Times,serif" font-size="14.00" fill="#000000">0.1.0&#45;beta.2`</text>
</a>
</g>
</g>
<!-- zcash/halo2#404&#45;&gt;zcash/halo2#426 -->
<g id="edge2" class="edge">
<title>zcash/halo2#404&#45;&gt;zcash/halo2#426</title>
<path fill="none" stroke="#000000" d="M444.81,-152.11C465.96,-158.78 488.77,-165.98 510.36,-172.79"/>
<polygon fill="#000000" stroke="#000000" points="509.5902,-176.2172 520.18,-175.89 511.6975,-169.5419 509.5902,-176.2172"/>
</g>
<!-- zcash/halo2#458 -->
<g id="node4" class="node open">
<title>zcash/halo2#458</title>
<g id="a_node4"><a xlink:href="https://github.com/zcash/halo2/issues/458" xlink:title="zcash/halo2#458&#10;Publish `halo2_gadgets&#10;v0.1.0&#45;beta.1`" target="_blank">
<polygon fill="#c2e0c6" stroke="#000000" points="697,-154 512,-154 512,-101 697,-101 697,-154"/>
<text text-anchor="middle" x="604.5" y="-138.8" font-family="Times,serif" font-size="14.00" fill="#000000">zcash/halo2#458</text>
<text text-anchor="middle" x="604.5" y="-123.8" font-family="Times,serif" font-size="14.00" fill="#000000">Publish `halo2_gadgets</text>
<text text-anchor="middle" x="604.5" y="-108.8" font-family="Times,serif" font-size="14.00" fill="#000000">v0.1.0&#45;beta.1`</text>
</a>
</g>
</g>
<!-- zcash/halo2#404&#45;&gt;zcash/halo2#458 -->
<g id="edge3" class="edge">
<title>zcash/halo2#404&#45;&gt;zcash/halo2#458</title>
<path fill="none" stroke="#000000" d="M447.21,-126.21C464.9,-126.36 483.66,-126.51 501.84,-126.66"/>
<polygon fill="#000000" stroke="#000000" points="501.8424,-130.16 511.87,-126.74 501.8983,-123.1603 501.8424,-130.16"/>
</g>
<!-- zcash/halo2#458&#45;&gt;zcash/halo2#460 -->
<g id="edge4" class="edge">
<title>zcash/halo2#458&#45;&gt;zcash/halo2#460</title>
<path fill="none" stroke="#000000" d="M697,-127.5C710.84,-127.5 725.17,-127.5 739.21,-127.5"/>
<polygon fill="#000000" stroke="#000000" points="739.36,-131.0001 749.36,-127.5 739.36,-124.0001 739.36,-131.0001"/>
</g>
<!-- zcash/pasta_curves#22 -->
<g id="node5" class="node open">
<title>zcash/pasta_curves#22</title>
<g id="a_node5"><a xlink:href="https://github.com/zcash/pasta_curves/issues/22" xlink:title="zcash/pasta_curves#22&#10;Add `ec&#45;gpu` support" target="_blank">
<polygon fill="#c2e0c6" stroke="#000000" stroke-width="2" points="200.5,-413.5 14.5,-413.5 14.5,-375.5 200.5,-375.5 200.5,-413.5"/>
<text text-anchor="middle" x="107.5" y="-398.3" font-family="Times,serif" font-size="14.00" fill="#000000">zcash/pasta_curves#22</text>
<text text-anchor="middle" x="107.5" y="-383.3" font-family="Times,serif" font-size="14.00" fill="#000000">Add `ec&#45;gpu` support</text>
</a>
</g>
</g>
<!-- zcash/halo2#379 -->
<g id="node6" class="node open">
<title>zcash/halo2#379</title>
<g id="a_node6"><a xlink:href="https://github.com/zcash/halo2/issues/379" xlink:title="zcash/halo2#379&#10;Add `ec&#45;gpu` support" target="_blank">
<polygon fill="#c2e0c6" stroke="#000000" points="447,-413.5 274,-413.5 274,-375.5 447,-375.5 447,-413.5"/>
<text text-anchor="middle" x="360.5" y="-398.3" font-family="Times,serif" font-size="14.00" fill="#000000">zcash/halo2#379</text>
<text text-anchor="middle" x="360.5" y="-383.3" font-family="Times,serif" font-size="14.00" fill="#000000">Add `ec&#45;gpu` support</text>
</a>
</g>
</g>
<!-- zcash/pasta_curves#22&#45;&gt;zcash/halo2#379 -->
<g id="edge5" class="edge">
<title>zcash/pasta_curves#22&#45;&gt;zcash/halo2#379</title>
<path fill="none" stroke="#000000" d="M200.63,-394.5C221.21,-394.5 243.07,-394.5 263.79,-394.5"/>
<polygon fill="#000000" stroke="#000000" points="263.86,-398.0001 273.86,-394.5 263.86,-391.0001 263.86,-398.0001"/>
</g>
<!-- zcash/halo2#380 -->
<g id="node7" class="node open">
<title>zcash/halo2#380</title>
<g id="a_node7"><a xlink:href="https://github.com/zcash/halo2/pull/380" xlink:title="zcash/halo2#380&#10;[book] Fix errors and&#10;typos" target="_blank">
<polygon fill="#c2e0c6" stroke="#000000" stroke-width="2" points="191.5,-188 23.5,-188 23.5,-184 19.5,-184 19.5,-180 23.5,-180 23.5,-143 19.5,-143 19.5,-139 23.5,-139 23.5,-135 191.5,-135 191.5,-188"/>
<polyline fill="none" stroke="#000000" stroke-width="2" points="23.5,-184 27.5,-184 27.5,-180 23.5,-180 "/>
<polyline fill="none" stroke="#000000" stroke-width="2" points="23.5,-143 27.5,-143 27.5,-139 23.5,-139 "/>
<text text-anchor="middle" x="107.5" y="-172.8" font-family="Times,serif" font-size="14.00" fill="#000000">zcash/halo2#380</text>
<text text-anchor="middle" x="107.5" y="-157.8" font-family="Times,serif" font-size="14.00" fill="#000000">[book] Fix errors and</text>
<text text-anchor="middle" x="107.5" y="-142.8" font-family="Times,serif" font-size="14.00" fill="#000000">typos</text>
</a>
</g>
</g>
<!-- zcash/halo2#380&#45;&gt;zcash/halo2#404 -->
<g id="edge6" class="edge">
<title>zcash/halo2#380&#45;&gt;zcash/halo2#404</title>
<path fill="none" stroke="#000000" d="M191.75,-149.51C214.76,-146.24 239.89,-142.66 263.55,-139.29"/>
<polygon fill="#000000" stroke="#000000" points="264.1787,-142.736 273.59,-137.87 263.1984,-135.805 264.1787,-142.736"/>
</g>
<!-- zcash/halo2#75 -->
<g id="node8" class="node open">
<title>zcash/halo2#75</title>
<g id="a_node8"><a xlink:href="https://github.com/zcash/halo2/issues/75" xlink:title="zcash/halo2#75&#10;Implement support for&#10;recursion" target="_blank">
<polygon fill="#c2e0c6" stroke="#000000" points="1423.5,-533 1244.5,-533 1244.5,-480 1423.5,-480 1423.5,-533"/>
<text text-anchor="middle" x="1334" y="-517.8" font-family="Times,serif" font-size="14.00" fill="#000000">zcash/halo2#75</text>
<text text-anchor="middle" x="1334" y="-502.8" font-family="Times,serif" font-size="14.00" fill="#000000">Implement support for</text>
<text text-anchor="middle" x="1334" y="-487.8" font-family="Times,serif" font-size="14.00" fill="#000000">recursion</text>
</a>
</g>
</g>
<!-- zcash/halo2#79 -->
<g id="node9" class="node open">
<title>zcash/halo2#79</title>
<g id="a_node9"><a xlink:href="https://github.com/zcash/halo2/issues/79" xlink:title="zcash/halo2#79&#10;Migrate Rescue and&#10;Poseidon gadgets to&#10;algebraic hash&#10;abstraction" target="_blank">
<polygon fill="#c2e0c6" stroke="#000000" points="1166.5,-815 1005.5,-815 1005.5,-732 1166.5,-732 1166.5,-815"/>
<text text-anchor="middle" x="1086" y="-799.8" font-family="Times,serif" font-size="14.00" fill="#000000">zcash/halo2#79</text>
<text text-anchor="middle" x="1086" y="-784.8" font-family="Times,serif" font-size="14.00" fill="#000000">Migrate Rescue and</text>
<text text-anchor="middle" x="1086" y="-769.8" font-family="Times,serif" font-size="14.00" fill="#000000">Poseidon gadgets to</text>
<text text-anchor="middle" x="1086" y="-754.8" font-family="Times,serif" font-size="14.00" fill="#000000">algebraic hash</text>
<text text-anchor="middle" x="1086" y="-739.8" font-family="Times,serif" font-size="14.00" fill="#000000">abstraction</text>
</a>
</g>
</g>
<!-- zcash/halo2#78 -->
<g id="node10" class="node open">
<title>zcash/halo2#78</title>
<g id="a_node10"><a xlink:href="https://github.com/zcash/halo2/issues/78" xlink:title="zcash/halo2#78&#10;Implement algebraic hash&#10;/ random oracle&#10;abstraction gadget" target="_blank">
<polygon fill="#c2e0c6" stroke="#000000" stroke-width="2" points="944,-807.5 740,-807.5 740,-739.5 944,-739.5 944,-807.5"/>
<text text-anchor="middle" x="842" y="-792.3" font-family="Times,serif" font-size="14.00" fill="#000000">zcash/halo2#78</text>
<text text-anchor="middle" x="842" y="-777.3" font-family="Times,serif" font-size="14.00" fill="#000000">Implement algebraic hash</text>
<text text-anchor="middle" x="842" y="-762.3" font-family="Times,serif" font-size="14.00" fill="#000000">/ random oracle</text>
<text text-anchor="middle" x="842" y="-747.3" font-family="Times,serif" font-size="14.00" fill="#000000">abstraction gadget</text>
</a>
</g>
</g>
<!-- zcash/halo2#78&#45;&gt;zcash/halo2#79 -->
<g id="edge7" class="edge">
<title>zcash/halo2#78&#45;&gt;zcash/halo2#79</title>
<path fill="none" stroke="#000000" d="M944.06,-773.5C961.04,-773.5 978.55,-773.5 995.23,-773.5"/>
<polygon fill="#000000" stroke="#000000" points="995.5,-777.0001 1005.5,-773.5 995.5,-770.0001 995.5,-777.0001"/>
</g>
<!-- zcash/halo2#250 -->
<g id="node11" class="node open">
<title>zcash/halo2#250</title>
<g id="a_node11"><a xlink:href="https://github.com/zcash/halo2/issues/250" xlink:title="zcash/halo2#250&#10;Implement the logic for&#10;the IVC verifier circuit" target="_blank">
<polygon fill="#c2e0c6" stroke="#000000" points="1179,-595 993,-595 993,-542 1179,-542 1179,-595"/>
<text text-anchor="middle" x="1086" y="-579.8" font-family="Times,serif" font-size="14.00" fill="#000000">zcash/halo2#250</text>
<text text-anchor="middle" x="1086" y="-564.8" font-family="Times,serif" font-size="14.00" fill="#000000">Implement the logic for</text>
<text text-anchor="middle" x="1086" y="-549.8" font-family="Times,serif" font-size="14.00" fill="#000000">the IVC verifier circuit</text>
</a>
</g>
</g>
<!-- zcash/halo2#78&#45;&gt;zcash/halo2#250 -->
<g id="edge8" class="edge">
<title>zcash/halo2#78&#45;&gt;zcash/halo2#250</title>
<path fill="none" stroke="#000000" d="M931.1,-739.49C935.93,-736.67 940.6,-733.67 945,-730.5 994.13,-695.05 1037.7,-639.35 1063,-603.37"/>
<polygon fill="#000000" stroke="#000000" points="1065.8952,-605.3368 1068.7,-595.12 1060.1361,-601.3578 1065.8952,-605.3368"/>
</g>
<!-- zcash/halo2#250&#45;&gt;zcash/halo2#75 -->
<g id="edge9" class="edge">
<title>zcash/halo2#250&#45;&gt;zcash/halo2#75</title>
<path fill="none" stroke="#000000" d="M1179.1,-545.24C1197.1,-540.72 1216.1,-535.97 1234.4,-531.41"/>
<polygon fill="#000000" stroke="#000000" points="1235.256,-534.8038 1244.1,-528.97 1233.5483,-528.0153 1235.256,-534.8038"/>
</g>
<!-- zcash/halo2#57 -->
<g id="node12" class="node open">
<title>zcash/halo2#57</title>
<g id="a_node12"><a xlink:href="https://github.com/zcash/halo2/issues/57" xlink:title="zcash/halo2#57&#10;Remove unused&#10;fixed_values from&#10;ProvingKey" target="_blank">
<polygon fill="#c2e0c6" stroke="#000000" stroke-width="2" points="179,-594.5 36,-594.5 36,-526.5 179,-526.5 179,-594.5"/>
<text text-anchor="middle" x="107.5" y="-579.3" font-family="Times,serif" font-size="14.00" fill="#000000">zcash/halo2#57</text>
<text text-anchor="middle" x="107.5" y="-564.3" font-family="Times,serif" font-size="14.00" fill="#000000">Remove unused</text>
<text text-anchor="middle" x="107.5" y="-549.3" font-family="Times,serif" font-size="14.00" fill="#000000">fixed_values from</text>
<text text-anchor="middle" x="107.5" y="-534.3" font-family="Times,serif" font-size="14.00" fill="#000000">ProvingKey</text>
</a>
</g>
</g>
<!-- zcash/halo2#443 -->
<g id="node13" class="node open">
<title>zcash/halo2#443</title>
<g id="a_node13"><a xlink:href="https://github.com/zcash/halo2/issues/443" xlink:title="zcash/halo2#443&#10;implement `read` &amp;&#10;`write` for `halo2::plonk&#10;::ProvingKey`" target="_blank">
<polygon fill="#c2e0c6" stroke="#000000" points="457.5,-594.5 263.5,-594.5 263.5,-526.5 457.5,-526.5 457.5,-594.5"/>
<text text-anchor="middle" x="360.5" y="-579.3" font-family="Times,serif" font-size="14.00" fill="#000000">zcash/halo2#443</text>
<text text-anchor="middle" x="360.5" y="-564.3" font-family="Times,serif" font-size="14.00" fill="#000000">implement `read` &amp;</text>
<text text-anchor="middle" x="360.5" y="-549.3" font-family="Times,serif" font-size="14.00" fill="#000000">`write` for `halo2::plonk</text>
<text text-anchor="middle" x="360.5" y="-534.3" font-family="Times,serif" font-size="14.00" fill="#000000">::ProvingKey`</text>
</a>
</g>
</g>
<!-- zcash/halo2#57&#45;&gt;zcash/halo2#443 -->
<g id="edge10" class="edge">
<title>zcash/halo2#57&#45;&gt;zcash/halo2#443</title>
<path fill="none" stroke="#000000" d="M179.32,-560.5C202.31,-560.5 228.27,-560.5 253.22,-560.5"/>
<polygon fill="#000000" stroke="#000000" points="253.46,-564.0001 263.46,-560.5 253.46,-557.0001 253.46,-564.0001"/>
</g>
<!-- zcash/halo2#482 -->
<g id="node14" class="node open">
<title>zcash/halo2#482</title>
<g id="a_node14"><a xlink:href="https://github.com/zcash/halo2/issues/482" xlink:title="zcash/halo2#482&#10;Raise MSRV to 1.56.1" target="_blank">
<polygon fill="#c2e0c6" stroke="#000000" stroke-width="2" points="194,-650.5 21,-650.5 21,-612.5 194,-612.5 194,-650.5"/>
<text text-anchor="middle" x="107.5" y="-635.3" font-family="Times,serif" font-size="14.00" fill="#000000">zcash/halo2#482</text>
<text text-anchor="middle" x="107.5" y="-620.3" font-family="Times,serif" font-size="14.00" fill="#000000">Raise MSRV to 1.56.1</text>
</a>
</g>
</g>
<!-- zcash/halo2#483 -->
<g id="node15" class="node open">
<title>zcash/halo2#483</title>
<g id="a_node15"><a xlink:href="https://github.com/zcash/halo2/issues/483" xlink:title="zcash/halo2#483&#10;Refactor variable&#45;base&#10;scalar mul to distinguish&#10;the &quot;base field element&quot;&#10;case" target="_blank">
<polygon fill="#c2e0c6" stroke="#000000" stroke-width="2" points="701.5,-83 507.5,-83 507.5,0 701.5,0 701.5,-83"/>
<text text-anchor="middle" x="604.5" y="-67.8" font-family="Times,serif" font-size="14.00" fill="#000000">zcash/halo2#483</text>
<text text-anchor="middle" x="604.5" y="-52.8" font-family="Times,serif" font-size="14.00" fill="#000000">Refactor variable&#45;base</text>
<text text-anchor="middle" x="604.5" y="-37.8" font-family="Times,serif" font-size="14.00" fill="#000000">scalar mul to distinguish</text>
<text text-anchor="middle" x="604.5" y="-22.8" font-family="Times,serif" font-size="14.00" fill="#000000">the &quot;base field element&quot;</text>
<text text-anchor="middle" x="604.5" y="-7.8" font-family="Times,serif" font-size="14.00" fill="#000000">case</text>
</a>
</g>
</g>
<!-- zcash/halo2#483&#45;&gt;zcash/halo2#460 -->
<g id="edge11" class="edge">
<title>zcash/halo2#483&#45;&gt;zcash/halo2#460</title>
<path fill="none" stroke="#000000" d="M701.79,-76.728C720.77,-83.601 740.51,-90.748 758.97,-97.435"/>
<polygon fill="#000000" stroke="#000000" points="757.9058,-100.7721 768.5,-100.89 760.2917,-94.1912 757.9058,-100.7721"/>
</g>
<!-- zcash/halo2#420 -->
<g id="node16" class="node open">
<title>zcash/halo2#420</title>
<g id="a_node16"><a xlink:href="https://github.com/zcash/halo2/issues/420" xlink:title="zcash/halo2#420&#10;CI: Measure memory&#45;usage&#10;benchmarks" target="_blank">
<polygon fill="#c2e0c6" stroke="#000000" stroke-width="2" points="215,-722 0,-722 0,-669 215,-669 215,-722"/>
<text text-anchor="middle" x="107.5" y="-706.8" font-family="Times,serif" font-size="14.00" fill="#000000">zcash/halo2#420</text>
<text text-anchor="middle" x="107.5" y="-691.8" font-family="Times,serif" font-size="14.00" fill="#000000">CI: Measure memory&#45;usage</text>
<text text-anchor="middle" x="107.5" y="-676.8" font-family="Times,serif" font-size="14.00" fill="#000000">benchmarks</text>
</a>
</g>
</g>
<!-- zcash/halo2#418 -->
<g id="node17" class="node open">
<title>zcash/halo2#418</title>
<g id="a_node17"><a xlink:href="https://github.com/zcash/halo2/issues/418" xlink:title="zcash/halo2#418&#10;[memory optimization]&#10;lookup prover memory&#10;analysis" target="_blank">
<polygon fill="#c2e0c6" stroke="#000000" points="450,-729.5 271,-729.5 271,-661.5 450,-661.5 450,-729.5"/>
<text text-anchor="middle" x="360.5" y="-714.3" font-family="Times,serif" font-size="14.00" fill="#000000">zcash/halo2#418</text>
<text text-anchor="middle" x="360.5" y="-699.3" font-family="Times,serif" font-size="14.00" fill="#000000">[memory optimization]</text>
<text text-anchor="middle" x="360.5" y="-684.3" font-family="Times,serif" font-size="14.00" fill="#000000">lookup prover memory</text>
<text text-anchor="middle" x="360.5" y="-669.3" font-family="Times,serif" font-size="14.00" fill="#000000">analysis</text>
</a>
</g>
</g>
<!-- zcash/halo2#420&#45;&gt;zcash/halo2#418 -->
<g id="edge12" class="edge">
<title>zcash/halo2#420&#45;&gt;zcash/halo2#418</title>
<path fill="none" stroke="#000000" d="M215.16,-695.5C230.24,-695.5 245.69,-695.5 260.61,-695.5"/>
<polygon fill="#000000" stroke="#000000" points="260.86,-699.0001 270.86,-695.5 260.86,-692.0001 260.86,-699.0001"/>
</g>
<!-- zcash/halo2#425 -->
<g id="node18" class="node open">
<title>zcash/halo2#425</title>
<g id="a_node18"><a xlink:href="https://github.com/zcash/halo2/issues/425" xlink:title="zcash/halo2#425&#10;Make `Assigned&lt;F: Field&gt;`&#10;easier to use" target="_blank">
<polygon fill="#c2e0c6" stroke="#000000" stroke-width="2" points="470,-310 251,-310 251,-257 470,-257 470,-310"/>
<text text-anchor="middle" x="360.5" y="-294.8" font-family="Times,serif" font-size="14.00" fill="#000000">zcash/halo2#425</text>
<text text-anchor="middle" x="360.5" y="-279.8" font-family="Times,serif" font-size="14.00" fill="#000000">Make `Assigned&lt;F: Field&gt;`</text>
<text text-anchor="middle" x="360.5" y="-264.8" font-family="Times,serif" font-size="14.00" fill="#000000">easier to use</text>
</a>
</g>
</g>
<!-- zcash/halo2#425&#45;&gt;zcash/halo2#426 -->
<g id="edge13" class="edge">
<title>zcash/halo2#425&#45;&gt;zcash/halo2#426</title>
<path fill="none" stroke="#000000" d="M441.54,-256.91C451.14,-253.75 460.79,-250.56 470,-247.5 484.67,-242.64 500.22,-237.45 515.36,-232.4"/>
<polygon fill="#000000" stroke="#000000" points="516.8479,-235.5929 525.22,-229.1 514.6262,-228.9548 516.8479,-235.5929"/>
</g>
<!-- zcash/halo2#427 -->
<g id="node19" class="node open">
<title>zcash/halo2#427</title>
<g id="a_node19"><a xlink:href="https://github.com/zcash/halo2/issues/427" xlink:title="zcash/halo2#427&#10;Use smaller extended&#10;domains where possible&#10;during proving" target="_blank">
<polygon fill="#c2e0c6" stroke="#000000" stroke-width="2" points="201.5,-808.5 13.5,-808.5 13.5,-740.5 201.5,-740.5 201.5,-808.5"/>
<text text-anchor="middle" x="107.5" y="-793.3" font-family="Times,serif" font-size="14.00" fill="#000000">zcash/halo2#427</text>
<text text-anchor="middle" x="107.5" y="-778.3" font-family="Times,serif" font-size="14.00" fill="#000000">Use smaller extended</text>
<text text-anchor="middle" x="107.5" y="-763.3" font-family="Times,serif" font-size="14.00" fill="#000000">domains where possible</text>
<text text-anchor="middle" x="107.5" y="-748.3" font-family="Times,serif" font-size="14.00" fill="#000000">during proving</text>
</a>
</g>
</g>
<!-- zcash/halo2#456 -->
<g id="node20" class="node open">
<title>zcash/halo2#456</title>
<g id="a_node20"><a xlink:href="https://github.com/zcash/halo2/issues/456" xlink:title="zcash/halo2#456&#10;Benchmark `sha256`&#10;gadget." target="_blank">
<polygon fill="#c2e0c6" stroke="#000000" stroke-width="2" points="192.5,-880 22.5,-880 22.5,-827 192.5,-827 192.5,-880"/>
<text text-anchor="middle" x="107.5" y="-864.8" font-family="Times,serif" font-size="14.00" fill="#000000">zcash/halo2#456</text>
<text text-anchor="middle" x="107.5" y="-849.8" font-family="Times,serif" font-size="14.00" fill="#000000">Benchmark `sha256`</text>
<text text-anchor="middle" x="107.5" y="-834.8" font-family="Times,serif" font-size="14.00" fill="#000000">gadget.</text>
</a>
</g>
</g>
<!-- zcash/halo2#455 -->
<g id="node21" class="node open">
<title>zcash/halo2#455</title>
<g id="a_node21"><a xlink:href="https://github.com/zcash/halo2/issues/455" xlink:title="zcash/halo2#455&#10;[Book] add description of&#10;Poseidon gadget and chip" target="_blank">
<polygon fill="#c2e0c6" stroke="#000000" stroke-width="2" points="207.5,-951 7.5,-951 7.5,-898 207.5,-898 207.5,-951"/>
<text text-anchor="middle" x="107.5" y="-935.8" font-family="Times,serif" font-size="14.00" fill="#000000">zcash/halo2#455</text>
<text text-anchor="middle" x="107.5" y="-920.8" font-family="Times,serif" font-size="14.00" fill="#000000">[Book] add description of</text>
<text text-anchor="middle" x="107.5" y="-905.8" font-family="Times,serif" font-size="14.00" fill="#000000">Poseidon gadget and chip</text>
</a>
</g>
</g>
<!-- zcash/halo2#251 -->
<g id="node22" class="node open">
<title>zcash/halo2#251</title>
<g id="a_node22"><a xlink:href="https://github.com/zcash/halo2/issues/251" xlink:title="zcash/halo2#251&#10;Implement user&#45;facing API&#10;for recursive proving of&#10;IVC" target="_blank">
<polygon fill="#c2e0c6" stroke="#000000" points="1191,-477.5 981,-477.5 981,-409.5 1191,-409.5 1191,-477.5"/>
<text text-anchor="middle" x="1086" y="-462.3" font-family="Times,serif" font-size="14.00" fill="#000000">zcash/halo2#251</text>
<text text-anchor="middle" x="1086" y="-447.3" font-family="Times,serif" font-size="14.00" fill="#000000">Implement user&#45;facing API</text>
<text text-anchor="middle" x="1086" y="-432.3" font-family="Times,serif" font-size="14.00" fill="#000000">for recursive proving of</text>
<text text-anchor="middle" x="1086" y="-417.3" font-family="Times,serif" font-size="14.00" fill="#000000">IVC</text>
</a>
</g>
</g>
<!-- zcash/halo2#251&#45;&gt;zcash/halo2#75 -->
<g id="edge14" class="edge">
<title>zcash/halo2#251&#45;&gt;zcash/halo2#75</title>
<path fill="none" stroke="#000000" d="M1191.2,-470.22C1205.5,-473.87 1220.3,-477.61 1234.5,-481.23"/>
<polygon fill="#000000" stroke="#000000" points="1233.746,-484.6496 1244.3,-483.72 1235.4699,-477.8651 1233.746,-484.6496"/>
</g>
<!-- zcash/halo2#437 -->
<g id="node23" class="node open">
<title>zcash/halo2#437</title>
<g id="a_node23"><a xlink:href="https://github.com/zcash/halo2/issues/437" xlink:title="zcash/halo2#437&#10;Amend user&#45;facing API to&#10;work for both IVC and PCD" target="_blank">
<polygon fill="#c2e0c6" stroke="#000000" points="1441,-439 1227,-439 1227,-386 1441,-386 1441,-439"/>
<text text-anchor="middle" x="1334" y="-423.8" font-family="Times,serif" font-size="14.00" fill="#000000">zcash/halo2#437</text>
<text text-anchor="middle" x="1334" y="-408.8" font-family="Times,serif" font-size="14.00" fill="#000000">Amend user&#45;facing API to</text>
<text text-anchor="middle" x="1334" y="-393.8" font-family="Times,serif" font-size="14.00" fill="#000000">work for both IVC and PCD</text>
</a>
</g>
</g>
<!-- zcash/halo2#251&#45;&gt;zcash/halo2#437 -->
<g id="edge15" class="edge">
<title>zcash/halo2#251&#45;&gt;zcash/halo2#437</title>
<path fill="none" stroke="#000000" d="M1191.2,-430.35C1199.6,-429.3 1208.2,-428.23 1216.7,-427.16"/>
<polygon fill="#000000" stroke="#000000" points="1217.2114,-430.6234 1226.7,-425.91 1216.3431,-423.6775 1217.2114,-430.6234"/>
</g>
<!-- zcash/halo2#436 -->
<g id="node24" class="node open">
<title>zcash/halo2#436</title>
<g id="a_node24"><a xlink:href="https://github.com/zcash/halo2/issues/436" xlink:title="zcash/halo2#436&#10;Implement mock&#10;verification circuit for&#10;PCD" target="_blank">
<polygon fill="#c2e0c6" stroke="#000000" points="692,-379.5 517,-379.5 517,-311.5 692,-311.5 692,-379.5"/>
<text text-anchor="middle" x="604.5" y="-364.3" font-family="Times,serif" font-size="14.00" fill="#000000">zcash/halo2#436</text>
<text text-anchor="middle" x="604.5" y="-349.3" font-family="Times,serif" font-size="14.00" fill="#000000">Implement mock</text>
<text text-anchor="middle" x="604.5" y="-334.3" font-family="Times,serif" font-size="14.00" fill="#000000">verification circuit for</text>
<text text-anchor="middle" x="604.5" y="-319.3" font-family="Times,serif" font-size="14.00" fill="#000000">PCD</text>
</a>
</g>
</g>
<!-- zcash/halo2#436&#45;&gt;zcash/halo2#437 -->
<g id="edge16" class="edge">
<title>zcash/halo2#436&#45;&gt;zcash/halo2#437</title>
<path fill="none" stroke="#000000" d="M692.36,-356.37C707.89,-358.17 723.91,-359.96 739,-361.5 785.08,-366.21 1056.8,-389.2 1216.6,-402.65"/>
<polygon fill="#000000" stroke="#000000" points="1216.743,-406.1741 1227,-403.52 1217.3266,-399.1985 1216.743,-406.1741"/>
</g>
<!-- zcash/halo2#438 -->
<g id="node25" class="node open">
<title>zcash/halo2#438</title>
<g id="a_node25"><a xlink:href="https://github.com/zcash/halo2/issues/438" xlink:title="zcash/halo2#438&#10;Implement the logic for&#10;the PCD verifier circuit" target="_blank">
<polygon fill="#c2e0c6" stroke="#000000" points="935,-353 749,-353 749,-300 935,-300 935,-353"/>
<text text-anchor="middle" x="842" y="-337.8" font-family="Times,serif" font-size="14.00" fill="#000000">zcash/halo2#438</text>
<text text-anchor="middle" x="842" y="-322.8" font-family="Times,serif" font-size="14.00" fill="#000000">Implement the logic for</text>
<text text-anchor="middle" x="842" y="-307.8" font-family="Times,serif" font-size="14.00" fill="#000000">the PCD verifier circuit</text>
</a>
</g>
</g>
<!-- zcash/halo2#436&#45;&gt;zcash/halo2#438 -->
<g id="edge17" class="edge">
<title>zcash/halo2#436&#45;&gt;zcash/halo2#438</title>
<path fill="none" stroke="#000000" d="M692.26,-338.48C707.33,-337.27 723.11,-336.01 738.54,-334.78"/>
<polygon fill="#000000" stroke="#000000" points="738.9325,-338.2598 748.62,-333.97 738.3718,-331.2823 738.9325,-338.2598"/>
</g>
<!-- zcash/halo2#435 -->
<g id="node26" class="node open">
<title>zcash/halo2#435</title>
<g id="a_node26"><a xlink:href="https://github.com/zcash/halo2/issues/435" xlink:title="zcash/halo2#435&#10;Implement mock&#10;verification circuit for&#10;IVC" target="_blank">
<polygon fill="#c2e0c6" stroke="#000000" points="692,-537.5 517,-537.5 517,-469.5 692,-469.5 692,-537.5"/>
<text text-anchor="middle" x="604.5" y="-522.3" font-family="Times,serif" font-size="14.00" fill="#000000">zcash/halo2#435</text>
<text text-anchor="middle" x="604.5" y="-507.3" font-family="Times,serif" font-size="14.00" fill="#000000">Implement mock</text>
<text text-anchor="middle" x="604.5" y="-492.3" font-family="Times,serif" font-size="14.00" fill="#000000">verification circuit for</text>
<text text-anchor="middle" x="604.5" y="-477.3" font-family="Times,serif" font-size="14.00" fill="#000000">IVC</text>
</a>
</g>
</g>
<!-- zcash/halo2#247 -->
<g id="node27" class="node open">
<title>zcash/halo2#247</title>
<g id="a_node27"><a xlink:href="https://github.com/zcash/halo2/issues/247" xlink:title="zcash/halo2#247&#10;Implement underlying&#10;scaffolding for creating&#10;the IVC proof cycle" target="_blank">
<polygon fill="#c2e0c6" stroke="#000000" points="934.5,-477.5 749.5,-477.5 749.5,-409.5 934.5,-409.5 934.5,-477.5"/>
<text text-anchor="middle" x="842" y="-462.3" font-family="Times,serif" font-size="14.00" fill="#000000">zcash/halo2#247</text>
<text text-anchor="middle" x="842" y="-447.3" font-family="Times,serif" font-size="14.00" fill="#000000">Implement underlying</text>
<text text-anchor="middle" x="842" y="-432.3" font-family="Times,serif" font-size="14.00" fill="#000000">scaffolding for creating</text>
<text text-anchor="middle" x="842" y="-417.3" font-family="Times,serif" font-size="14.00" fill="#000000">the IVC proof cycle</text>
</a>
</g>
</g>
<!-- zcash/halo2#435&#45;&gt;zcash/halo2#247 -->
<g id="edge18" class="edge">
<title>zcash/halo2#435&#45;&gt;zcash/halo2#247</title>
<path fill="none" stroke="#000000" d="M692.26,-481.33C707.69,-477.43 723.87,-473.34 739.66,-469.36"/>
<polygon fill="#000000" stroke="#000000" points="740.5843,-472.7365 749.42,-466.89 738.8669,-465.9504 740.5843,-472.7365"/>
</g>
<!-- zcash/halo2#247&#45;&gt;zcash/halo2#250 -->
<g id="edge19" class="edge">
<title>zcash/halo2#247&#45;&gt;zcash/halo2#250</title>
<path fill="none" stroke="#000000" d="M926.17,-477.56C932.59,-480.49 938.93,-483.48 945,-486.5 975.53,-501.67 1008.5,-520.71 1034.9,-536.62"/>
<polygon fill="#000000" stroke="#000000" points="1033.2316,-539.7012 1043.6,-541.88 1036.8533,-533.711 1033.2316,-539.7012"/>
</g>
<!-- zcash/halo2#247&#45;&gt;zcash/halo2#251 -->
<g id="edge20" class="edge">
<title>zcash/halo2#247&#45;&gt;zcash/halo2#251</title>
<path fill="none" stroke="#000000" d="M934.59,-443.5C946.39,-443.5 958.58,-443.5 970.68,-443.5"/>
<polygon fill="#000000" stroke="#000000" points="970.81,-447.0001 980.81,-443.5 970.81,-440.0001 970.81,-447.0001"/>
</g>
<!-- zcash/halo2#246 -->
<g id="node28" class="node open">
<title>zcash/halo2#246</title>
<g id="a_node28"><a xlink:href="https://github.com/zcash/halo2/issues/246" xlink:title="zcash/halo2#246&#10;Create recursive proof&#10;structures" target="_blank">
<polygon fill="#c2e0c6" stroke="#000000" points="450,-508 271,-508 271,-455 450,-455 450,-508"/>
<text text-anchor="middle" x="360.5" y="-492.8" font-family="Times,serif" font-size="14.00" fill="#000000">zcash/halo2#246</text>
<text text-anchor="middle" x="360.5" y="-477.8" font-family="Times,serif" font-size="14.00" fill="#000000">Create recursive proof</text>
<text text-anchor="middle" x="360.5" y="-462.8" font-family="Times,serif" font-size="14.00" fill="#000000">structures</text>
</a>
</g>
</g>
<!-- zcash/halo2#246&#45;&gt;zcash/halo2#436 -->
<g id="edge21" class="edge">
<title>zcash/halo2#246&#45;&gt;zcash/halo2#436</title>
<path fill="none" stroke="#000000" d="M416.5,-454.95C434.21,-445.62 453.46,-434.45 470,-422.5 487.84,-409.61 487.64,-400.64 506,-388.5 507.93,-387.22 509.9,-385.97 511.91,-384.74"/>
<polygon fill="#000000" stroke="#000000" points="514.0224,-387.5606 520.91,-379.51 510.5053,-381.5083 514.0224,-387.5606"/>
</g>
<!-- zcash/halo2#246&#45;&gt;zcash/halo2#435 -->
<g id="edge22" class="edge">
<title>zcash/halo2#246&#45;&gt;zcash/halo2#435</title>
<path fill="none" stroke="#000000" d="M450.32,-489.6C468.75,-491.26 488.23,-493.02 506.92,-494.7"/>
<polygon fill="#000000" stroke="#000000" points="506.6363,-498.1885 516.91,-495.6 507.2644,-491.2168 506.6363,-498.1885"/>
</g>
<!-- zcash/halo2#439 -->
<g id="node29" class="node open">
<title>zcash/halo2#439</title>
<g id="a_node29"><a xlink:href="https://github.com/zcash/halo2/issues/439" xlink:title="zcash/halo2#439&#10;Support split&#10;accumulation in Halo 2" target="_blank">
<polygon fill="#c2e0c6" stroke="#000000" stroke-width="2" points="199,-508 16,-508 16,-455 199,-455 199,-508"/>
<text text-anchor="middle" x="107.5" y="-492.8" font-family="Times,serif" font-size="14.00" fill="#000000">zcash/halo2#439</text>
<text text-anchor="middle" x="107.5" y="-477.8" font-family="Times,serif" font-size="14.00" fill="#000000">Support split</text>
<text text-anchor="middle" x="107.5" y="-462.8" font-family="Times,serif" font-size="14.00" fill="#000000">accumulation in Halo 2</text>
</a>
</g>
</g>
<!-- zcash/halo2#439&#45;&gt;zcash/halo2#246 -->
<g id="edge23" class="edge">
<title>zcash/halo2#439&#45;&gt;zcash/halo2#246</title>
<path fill="none" stroke="#000000" d="M199.2,-481.5C219.16,-481.5 240.37,-481.5 260.63,-481.5"/>
<polygon fill="#000000" stroke="#000000" points="260.81,-485.0001 270.81,-481.5 260.81,-478.0001 260.81,-485.0001"/>
</g>
<!-- zcash/halo2#359 -->
<g id="node30" class="node open">
<title>zcash/halo2#359</title>
<g id="a_node30"><a xlink:href="https://github.com/zcash/halo2/issues/359" xlink:title="zcash/halo2#359&#10;Set up `BaseTranscript`,&#10;`ScalarTranscript`" target="_blank">
<polygon fill="#c2e0c6" stroke="#000000" stroke-width="2" points="703,-451 506,-451 506,-398 703,-398 703,-451"/>
<text text-anchor="middle" x="604.5" y="-435.8" font-family="Times,serif" font-size="14.00" fill="#000000">zcash/halo2#359</text>
<text text-anchor="middle" x="604.5" y="-420.8" font-family="Times,serif" font-size="14.00" fill="#000000">Set up `BaseTranscript`,</text>
<text text-anchor="middle" x="604.5" y="-405.8" font-family="Times,serif" font-size="14.00" fill="#000000">`ScalarTranscript`</text>
</a>
</g>
</g>
<!-- zcash/halo2#359&#45;&gt;zcash/halo2#247 -->
<g id="edge24" class="edge">
<title>zcash/halo2#359&#45;&gt;zcash/halo2#247</title>
<path fill="none" stroke="#000000" d="M703.16,-432.39C715.11,-433.35 727.33,-434.33 739.34,-435.29"/>
<polygon fill="#000000" stroke="#000000" points="739.1131,-438.7829 749.36,-436.09 739.6703,-431.8051 739.1131,-438.7829"/>
</g>
<!-- zcash/halo2#249 -->
<g id="node31" class="node committed">
<title>zcash/halo2#249</title>
<g id="a_node31"><a xlink:href="https://github.com/zcash/halo2/issues/249" xlink:title="zcash/halo2#249&#10;Implement recursion&#10;circuit logic for&#10;handling public inputs" target="_blank">
<polygon fill="#a6cfff" stroke="#000000" stroke-width="2" points="930.5,-721.5 753.5,-721.5 753.5,-653.5 930.5,-653.5 930.5,-721.5"/>
<text text-anchor="middle" x="842" y="-706.3" font-family="Times,serif" font-size="14.00" fill="#000000">zcash/halo2#249</text>
<text text-anchor="middle" x="842" y="-691.3" font-family="Times,serif" font-size="14.00" fill="#000000">Implement recursion</text>
<text text-anchor="middle" x="842" y="-676.3" font-family="Times,serif" font-size="14.00" fill="#000000">circuit logic for</text>
<text text-anchor="middle" x="842" y="-661.3" font-family="Times,serif" font-size="14.00" fill="#000000">handling public inputs</text>
</a>
</g>
</g>
<!-- zcash/halo2#249&#45;&gt;zcash/halo2#250 -->
<g id="edge25" class="edge">
<title>zcash/halo2#249&#45;&gt;zcash/halo2#250</title>
<path fill="none" stroke="#000000" d="M925.51,-653.46C932.14,-650.51 938.7,-647.5 945,-644.5 973.74,-630.8 1005,-614.15 1030.7,-599.93"/>
<polygon fill="#000000" stroke="#000000" points="1032.5416,-602.9112 1039.6,-595.01 1029.1549,-596.785 1032.5416,-602.9112"/>
</g>
<!-- zcash/halo2#449 -->
<g id="node32" class="node open">
<title>zcash/halo2#449</title>
<g id="a_node32"><a xlink:href="https://github.com/zcash/halo2/issues/449" xlink:title="zcash/halo2#449&#10;`VerifyingKey`&#10;serialization is not&#10;round&#45;trip compatible" target="_blank">
<polygon fill="#c2e0c6" stroke="#000000" stroke-width="2" points="447,-238.5 274,-238.5 274,-170.5 447,-170.5 447,-238.5"/>
<text text-anchor="middle" x="360.5" y="-223.3" font-family="Times,serif" font-size="14.00" fill="#000000">zcash/halo2#449</text>
<text text-anchor="middle" x="360.5" y="-208.3" font-family="Times,serif" font-size="14.00" fill="#000000">`VerifyingKey`</text>
<text text-anchor="middle" x="360.5" y="-193.3" font-family="Times,serif" font-size="14.00" fill="#000000">serialization is not</text>
<text text-anchor="middle" x="360.5" y="-178.3" font-family="Times,serif" font-size="14.00" fill="#000000">round&#45;trip compatible</text>
</a>
</g>
</g>
<!-- zcash/halo2#449&#45;&gt;zcash/halo2#426 -->
<g id="edge26" class="edge">
<title>zcash/halo2#449&#45;&gt;zcash/halo2#426</title>
<path fill="none" stroke="#000000" d="M447.21,-203.79C466.78,-203.63 487.68,-203.46 507.63,-203.29"/>
<polygon fill="#000000" stroke="#000000" points="507.6883,-206.7897 517.66,-203.21 507.6324,-199.79 507.6883,-206.7897"/>
</g>
<!-- zcash/halo2#398 -->
<g id="node33" class="node committed">
<title>zcash/halo2#398</title>
<g id="a_node33"><a xlink:href="https://github.com/zcash/halo2/issues/398" xlink:title="zcash/halo2#398&#10;[MockProver] Testing is&#10;slower after #389" target="_blank">
<polygon fill="#a6cfff" stroke="#000000" stroke-width="2" points="202,-117 13,-117 13,-64 202,-64 202,-117"/>
<text text-anchor="middle" x="107.5" y="-101.8" font-family="Times,serif" font-size="14.00" fill="#000000">zcash/halo2#398</text>
<text text-anchor="middle" x="107.5" y="-86.8" font-family="Times,serif" font-size="14.00" fill="#000000">[MockProver] Testing is</text>
<text text-anchor="middle" x="107.5" y="-71.8" font-family="Times,serif" font-size="14.00" fill="#000000">slower after #389</text>
</a>
</g>
</g>
<!-- zcash/halo2#398&#45;&gt;zcash/halo2#404 -->
<g id="edge27" class="edge">
<title>zcash/halo2#398&#45;&gt;zcash/halo2#404</title>
<path fill="none" stroke="#000000" d="M202.07,-103.58C222.24,-106.37 243.57,-109.32 263.82,-112.13"/>
<polygon fill="#000000" stroke="#000000" points="263.5958,-115.6321 273.98,-113.53 264.5514,-108.6976 263.5958,-115.6321"/>
</g>
<!-- zcash/halo2#248 -->
<g id="node34" class="node open">
<title>zcash/halo2#248</title>
<g id="a_node34"><a xlink:href="https://github.com/zcash/halo2/issues/248" xlink:title="zcash/halo2#248&#10;Implement endoscaling in&#10;the circuit" target="_blank">
<polygon fill="#c2e0c6" stroke="#000000" stroke-width="2" points="943.5,-635 740.5,-635 740.5,-582 943.5,-582 943.5,-635"/>
<text text-anchor="middle" x="842" y="-619.8" font-family="Times,serif" font-size="14.00" fill="#000000">zcash/halo2#248</text>
<text text-anchor="middle" x="842" y="-604.8" font-family="Times,serif" font-size="14.00" fill="#000000">Implement endoscaling in</text>
<text text-anchor="middle" x="842" y="-589.8" font-family="Times,serif" font-size="14.00" fill="#000000">the circuit</text>
</a>
</g>
</g>
<!-- zcash/halo2#248&#45;&gt;zcash/halo2#250 -->
<g id="edge28" class="edge">
<title>zcash/halo2#248&#45;&gt;zcash/halo2#250</title>
<path fill="none" stroke="#000000" d="M943.71,-591.83C956.51,-589.73 969.61,-587.58 982.43,-585.48"/>
<polygon fill="#000000" stroke="#000000" points="983.341,-588.8773 992.64,-583.8 982.2044,-581.9701 983.341,-588.8773"/>
</g>
<!-- zcash/halo2#245 -->
<g id="node35" class="node open">
<title>zcash/halo2#245</title>
<g id="a_node35"><a xlink:href="https://github.com/zcash/halo2/issues/245" xlink:title="zcash/halo2#245&#10;Remove the need to&#10;multiply by powers of x^n&#10;in verifier" target="_blank">
<polygon fill="#c2e0c6" stroke="#000000" stroke-width="2" points="945,-563.5 739,-563.5 739,-495.5 945,-495.5 945,-563.5"/>
<text text-anchor="middle" x="842" y="-548.3" font-family="Times,serif" font-size="14.00" fill="#000000">zcash/halo2#245</text>
<text text-anchor="middle" x="842" y="-533.3" font-family="Times,serif" font-size="14.00" fill="#000000">Remove the need to</text>
<text text-anchor="middle" x="842" y="-518.3" font-family="Times,serif" font-size="14.00" fill="#000000">multiply by powers of x^n</text>
<text text-anchor="middle" x="842" y="-503.3" font-family="Times,serif" font-size="14.00" fill="#000000">in verifier</text>
</a>
</g>
</g>
<!-- zcash/halo2#245&#45;&gt;zcash/halo2#250 -->
<g id="edge29" class="edge">
<title>zcash/halo2#245&#45;&gt;zcash/halo2#250</title>
<path fill="none" stroke="#000000" d="M945.12,-545.98C957.65,-547.98 970.44,-550.03 982.96,-552.03"/>
<polygon fill="#000000" stroke="#000000" points="982.5036,-555.5014 992.93,-553.62 983.606,-548.5887 982.5036,-555.5014"/>
</g>
<!-- zcash/halo2#312 -->
<g id="node36" class="node open">
<title>zcash/halo2#312</title>
<g id="a_node36"><a xlink:href="https://github.com/zcash/halo2/issues/312" xlink:title="zcash/halo2#312&#10;[Book] Document gadget&#10;API" target="_blank">
<polygon fill="#c2e0c6" stroke="#000000" stroke-width="2" points="205,-1022 10,-1022 10,-969 205,-969 205,-1022"/>
<text text-anchor="middle" x="107.5" y="-1006.8" font-family="Times,serif" font-size="14.00" fill="#000000">zcash/halo2#312</text>
<text text-anchor="middle" x="107.5" y="-991.8" font-family="Times,serif" font-size="14.00" fill="#000000">[Book] Document gadget</text>
<text text-anchor="middle" x="107.5" y="-976.8" font-family="Times,serif" font-size="14.00" fill="#000000">API</text>
</a>
</g>
</g>
</g>
</svg>
